<?xml version="1.0" encoding="UTF-8" standalone="no"?>
<svg
   xmlns:dc="http://purl.org/dc/elements/1.1/"
   xmlns:cc="http://creativecommons.org/ns#"
   xmlns:rdf="http://www.w3.org/1999/02/22-rdf-syntax-ns#"
   xmlns:svg="http://www.w3.org/2000/svg"
   xmlns="http://www.w3.org/2000/svg"
   xmlns:sodipodi="http://sodipodi.sourceforge.net/DTD/sodipodi-0.dtd"
   xmlns:inkscape="http://www.inkscape.org/namespaces/inkscape"
   width="128"
   height="64"
   viewBox="0 0 33.866666 16.933333"
   version="1.1"
   id="svg8"
   inkscape:version="1.0.2-2 (e86c870879, 2021-01-15)"
   sodipodi:docname="ze_calor_2.svg"
   inkscape:export-filename="C:\Users\Ari\Documents\GitHub\PI3_2022_1\imagens PI3\ze_frio_1.png"
   inkscape:export-xdpi="96"
   inkscape:export-ydpi="96">
  <defs
     id="defs2">
    <inkscape:path-effect
       effect="bspline"
       id="path-effect89"
       is_visible="true"
       lpeversion="1"
       weight="33.333333"
       steps="2"
       helper_size="0"
       apply_no_weight="true"
       apply_with_weight="true"
       only_selected="false" />
    <inkscape:path-effect
       effect="bspline"
       id="path-effect85"
       is_visible="true"
       lpeversion="1"
       weight="33.333333"
       steps="2"
       helper_size="0"
       apply_no_weight="true"
       apply_with_weight="true"
       only_selected="false" />
    <inkscape:path-effect
       effect="bspline"
       id="path-effect81"
       is_visible="true"
       lpeversion="1"
       weight="33.333333"
       steps="2"
       helper_size="0"
       apply_no_weight="true"
       apply_with_weight="true"
       only_selected="false" />
    <inkscape:path-effect
       effect="spiro"
       id="path-effect77"
       is_visible="true"
       lpeversion="1" />
    <inkscape:path-effect
       effect="spiro"
       id="path-effect73"
       is_visible="true"
       lpeversion="1" />
    <inkscape:path-effect
       effect="bspline"
       id="path-effect1120"
       is_visible="true"
       lpeversion="1"
       weight="33.333333"
       steps="2"
       helper_size="0"
       apply_no_weight="true"
       apply_with_weight="true"
       only_selected="false" />
    <inkscape:path-effect
       effect="bspline"
       id="path-effect1118"
       is_visible="true"
       lpeversion="1"
       weight="33.333333"
       steps="2"
       helper_size="0"
       apply_no_weight="true"
       apply_with_weight="true"
       only_selected="false" />
    <inkscape:path-effect
       effect="bspline"
       id="path-effect1116"
       is_visible="true"
       lpeversion="1"
       weight="33.333333"
       steps="2"
       helper_size="0"
       apply_no_weight="true"
       apply_with_weight="true"
       only_selected="false" />
    <inkscape:path-effect
       effect="bspline"
       id="path-effect1114"
       is_visible="true"
       lpeversion="1"
       weight="33.333333"
       steps="2"
       helper_size="0"
       apply_no_weight="true"
       apply_with_weight="true"
       only_selected="false" />
    <inkscape:path-effect
       effect="bspline"
       id="path-effect1112"
       is_visible="true"
       lpeversion="1"
       weight="33.333333"
       steps="2"
       helper_size="0"
       apply_no_weight="true"
       apply_with_weight="true"
       only_selected="false" />
    <inkscape:path-effect
       effect="bspline"
       id="path-effect852"
       is_visible="true"
       lpeversion="1"
       weight="33.333333"
       steps="2"
       helper_size="0"
       apply_no_weight="true"
       apply_with_weight="true"
       only_selected="false" />
    <inkscape:path-effect
       effect="bspline"
       id="path-effect843"
       is_visible="true"
       lpeversion="1"
       weight="33.333333"
       steps="2"
       helper_size="0"
       apply_no_weight="true"
       apply_with_weight="true"
       only_selected="false" />
    <inkscape:path-effect
       effect="bspline"
       id="path-effect835"
       is_visible="true"
       lpeversion="1"
       weight="33.333333"
       steps="2"
       helper_size="0"
       apply_no_weight="true"
       apply_with_weight="true"
       only_selected="false" />
    <inkscape:path-effect
       effect="bspline"
       id="path-effect850"
       is_visible="true"
       lpeversion="1"
       weight="33.333333"
       steps="2"
       helper_size="0"
       apply_no_weight="true"
       apply_with_weight="true"
       only_selected="false" />
    <inkscape:path-effect
       effect="bspline"
       id="path-effect854"
       is_visible="true"
       lpeversion="1"
       weight="33.333333"
       steps="2"
       helper_size="0"
       apply_no_weight="true"
       apply_with_weight="true"
       only_selected="false" />
    <inkscape:path-effect
       effect="bspline"
       id="path-effect858"
       is_visible="true"
       lpeversion="1"
       weight="33.333333"
       steps="2"
       helper_size="0"
       apply_no_weight="true"
       apply_with_weight="true"
       only_selected="false" />
    <inkscape:path-effect
       effect="bspline"
       id="path-effect863"
       is_visible="true"
       lpeversion="1"
       weight="33.333333"
       steps="2"
       helper_size="0"
       apply_no_weight="true"
       apply_with_weight="true"
       only_selected="false" />
    <inkscape:path-effect
       effect="bspline"
       id="path-effect880"
       is_visible="true"
       lpeversion="1"
       weight="33.333333"
       steps="2"
       helper_size="0"
       apply_no_weight="true"
       apply_with_weight="true"
       only_selected="false" />
    <inkscape:path-effect
       effect="bspline"
       id="path-effect884"
       is_visible="true"
       lpeversion="1"
       weight="33.333333"
       steps="2"
       helper_size="0"
       apply_no_weight="true"
       apply_with_weight="true"
       only_selected="false" />
    <inkscape:path-effect
       effect="bspline"
       id="path-effect896"
       is_visible="true"
       lpeversion="1"
       weight="33.333333"
       steps="2"
       helper_size="0"
       apply_no_weight="true"
       apply_with_weight="true"
       only_selected="false" />
    <inkscape:path-effect
       effect="bspline"
       id="path-effect898"
       is_visible="true"
       lpeversion="1"
       weight="33.333333"
       steps="2"
       helper_size="0"
       apply_no_weight="true"
       apply_with_weight="true"
       only_selected="false" />
    <inkscape:path-effect
       effect="bspline"
       id="path-effect906"
       is_visible="true"
       lpeversion="1"
       weight="33.333333"
       steps="2"
       helper_size="0"
       apply_no_weight="true"
       apply_with_weight="true"
       only_selected="false" />
    <inkscape:path-effect
       effect="bspline"
       id="path-effect908"
       is_visible="true"
       lpeversion="1"
       weight="33.333333"
       steps="2"
       helper_size="0"
       apply_no_weight="true"
       apply_with_weight="true"
       only_selected="false" />
    <inkscape:path-effect
       effect="bspline"
       id="path-effect916"
       is_visible="true"
       lpeversion="1"
       weight="33.333333"
       steps="2"
       helper_size="0"
       apply_no_weight="true"
       apply_with_weight="true"
       only_selected="false" />
    <inkscape:path-effect
       effect="bspline"
       id="path-effect918"
       is_visible="true"
       lpeversion="1"
       weight="33.333333"
       steps="2"
       helper_size="0"
       apply_no_weight="true"
       apply_with_weight="true"
       only_selected="false" />
    <inkscape:path-effect
       effect="bspline"
       id="path-effect926"
       is_visible="true"
       lpeversion="1"
       weight="33.333333"
       steps="2"
       helper_size="0"
       apply_no_weight="true"
       apply_with_weight="true"
       only_selected="false" />
    <inkscape:path-effect
       effect="bspline"
       id="path-effect928"
       is_visible="true"
       lpeversion="1"
       weight="33.333333"
       steps="2"
       helper_size="0"
       apply_no_weight="true"
       apply_with_weight="true"
       only_selected="false" />
    <inkscape:path-effect
       effect="bspline"
       id="path-effect936"
       is_visible="true"
       lpeversion="1"
       weight="33.333333"
       steps="2"
       helper_size="0"
       apply_no_weight="true"
       apply_with_weight="true"
       only_selected="false" />
    <inkscape:path-effect
       effect="bspline"
       id="path-effect938"
       is_visible="true"
       lpeversion="1"
       weight="33.333333"
       steps="2"
       helper_size="0"
       apply_no_weight="true"
       apply_with_weight="true"
       only_selected="false" />
  </defs>
  <sodipodi:namedview
     id="base"
     pagecolor="#ffffff"
     bordercolor="#666666"
     borderopacity="1.0"
     inkscape:pageopacity="0.0"
     inkscape:pageshadow="2"
     inkscape:zoom="5.6"
     inkscape:cx="70.802642"
     inkscape:cy="15.906843"
     inkscape:document-units="px"
     inkscape:current-layer="layer1"
     inkscape:document-rotation="0"
     showgrid="false"
     units="px"
     inkscape:window-width="1366"
     inkscape:window-height="705"
     inkscape:window-x="-8"
     inkscape:window-y="-8"
     inkscape:window-maximized="1">
    <inkscape:grid
       type="xygrid"
       id="grid864" />
  </sodipodi:namedview>
  <metadata
     id="metadata5">
    <rdf:RDF>
      <cc:Work
         rdf:about="">
        <dc:format>image/svg+xml</dc:format>
        <dc:type
           rdf:resource="http://purl.org/dc/dcmitype/StillImage" />
        <dc:title />
      </cc:Work>
    </rdf:RDF>
  </metadata>
  <g
     inkscape:label="Layer 1"
     inkscape:groupmode="layer"
     id="layer1">
    <rect
       style="fill:#ffffff;fill-rule:evenodd;stroke-width:0.264583"
       id="rect14"
       width="33.866665"
       height="16.933332"
       x="5.567627e-07"
       y="2.7838135e-07"
       sodipodi:insensitive="true" />
    <path
       id="path860"
       style="fill:#000000;fill-rule:evenodd;stroke-width:0.245765"
       d="m 10.176205,5.4069343 a 1.4699824,1.8736488 0 0 0 -0.09043,0.6456192 1.4699824,1.8736488 0 0 0 1.470194,1.87399 1.4699824,1.8736488 0 0 0 1.469678,-1.87399 1.4699824,1.8736488 0 0 0 -0.462504,-1.3643612 2.0661342,3.2864598 76.288496 0 1 -0.02222,0.013822 2.0661342,3.2864598 76.288496 0 1 -0.0677,0.040128 2.0661342,3.2864598 76.288496 0 1 -0.06873,0.039236 2.0661342,3.2864598 76.288496 0 1 -0.06976,0.038345 2.0661342,3.2864598 76.288496 0 1 -0.04961,0.026306 2.0661342,3.2864598 76.288496 0 1 -0.07183,0.036116 2.0661342,3.2864598 76.288496 0 1 -0.07235,0.035669 2.0661342,3.2864598 76.288496 0 1 -0.0739,0.034332 2.0661342,3.2864598 76.288496 0 1 -0.07441,0.033441 2.0661342,3.2864598 76.288496 0 1 -0.07545,0.032103 2.0661342,3.2864598 76.288496 0 1 -0.07648,0.03121 2.0661342,3.2864598 76.288496 0 1 -0.077,0.029873 2.0661342,3.2864598 76.288496 0 1 -0.07752,0.028536 2.0661342,3.2864598 76.288496 0 1 -0.07855,0.027644 2.0661342,3.2864598 76.288496 0 1 -0.07906,0.026306 2.0661342,3.2864598 76.288496 0 1 -0.07958,0.024969 2.0661342,3.2864598 76.288496 0 1 -0.0801,0.023631 2.0661342,3.2864598 76.288496 0 1 -0.0801,0.022739 2.0661342,3.2864598 76.288496 0 1 -0.08113,0.020957 2.0661342,3.2864598 76.288496 0 1 -0.08113,0.020064 2.0661342,3.2864598 76.288496 0 1 -0.08165,0.018726 2.0661342,3.2864598 76.288496 0 1 -0.08165,0.017388 2.0661342,3.2864598 76.288496 0 1 -0.08216,0.016051 2.0661342,3.2864598 76.288496 0 1 -0.08217,0.014713 2.0661342,3.2864598 76.288496 0 1 -0.08217,0.01293 2.0661342,3.2864598 76.288496 0 1 -0.08217,0.012038 2.0661342,3.2864598 76.288496 0 1 -0.08217,0.0107 2.0661342,3.2864598 76.288496 0 1 -0.08217,0.00936 2.0661342,3.2864598 76.288496 0 1 -0.08217,0.00758 2.0661342,3.2864598 76.288496 0 1 -0.08165,0.00669 2.0661342,3.2864598 76.288496 0 1 -0.08165,0.0049 2.0661342,3.2864598 76.288496 0 1 -0.04858,0.00223 z" />
    <path
       id="path870"
       style="fill:#000000;fill-rule:evenodd;stroke-width:0.241815"
       d="m 23.837469,5.4164094 a 1.4699824,1.8139016 0 0 1 0.09043,0.6250316 1.4699824,1.8139016 0 0 1 -1.470195,1.8142319 1.4699824,1.8139016 0 0 1 -1.469677,-1.8142319 1.4699824,1.8139016 0 0 1 0.462504,-1.3208543 3.2808779,2.0036521 12.781187 0 0 0.02222,0.013381 3.2808779,2.0036521 12.781187 0 0 0.0677,0.038849 3.2808779,2.0036521 12.781187 0 0 0.06873,0.037985 3.2808779,2.0036521 12.781187 0 0 0.06976,0.037122 3.2808779,2.0036521 12.781187 0 0 0.04961,0.025467 3.2808779,2.0036521 12.781187 0 0 0.07183,0.034964 3.2808779,2.0036521 12.781187 0 0 0.07235,0.034532 3.2808779,2.0036521 12.781187 0 0 0.0739,0.033237 3.2808779,2.0036521 12.781187 0 0 0.07441,0.032374 3.2808779,2.0036521 12.781187 0 0 0.07545,0.031079 3.2808779,2.0036521 12.781187 0 0 0.07648,0.030215 3.2808779,2.0036521 12.781187 0 0 0.077,0.02892 3.2808779,2.0036521 12.781187 0 0 0.07751,0.027626 3.2808779,2.0036521 12.781187 0 0 0.07855,0.026762 3.2808779,2.0036521 12.781187 0 0 0.07906,0.025467 3.2808779,2.0036521 12.781187 0 0 0.07958,0.024173 3.2808779,2.0036521 12.781187 0 0 0.0801,0.022877 3.2808779,2.0036521 12.781187 0 0 0.0801,0.022014 3.2808779,2.0036521 12.781187 0 0 0.08113,0.020288 3.2808779,2.0036521 12.781187 0 0 0.08113,0.019424 3.2808779,2.0036521 12.781187 0 0 0.08165,0.018129 3.2808779,2.0036521 12.781187 0 0 0.08165,0.016835 3.2808779,2.0036521 12.781187 0 0 0.08217,0.01554 3.2808779,2.0036521 12.781187 0 0 0.08216,0.014244 3.2808779,2.0036521 12.781187 0 0 0.08217,0.012518 3.2808779,2.0036521 12.781187 0 0 0.08216,0.011655 3.2808779,2.0036521 12.781187 0 0 0.08217,0.010359 3.2808779,2.0036521 12.781187 0 0 0.08216,0.00906 3.2808779,2.0036521 12.781187 0 0 0.08217,0.00734 3.2808779,2.0036521 12.781187 0 0 0.08165,0.00647 3.2808779,2.0036521 12.781187 0 0 0.08165,0.00474 3.2808779,2.0036521 12.781187 0 0 0.04858,0.00216 z" />
    <path
       id="path68"
       style="fill:#000000;fill-rule:evenodd;stroke:#000000;stroke-width:0.309542"
       d="m 21.825219,12.323171 c 0,1.017153 -2.116875,0.05745 -4.870777,0.05745 -2.753901,0 -5.101983,0.959431 -5.101983,-0.05745 0,-1.017151 2.232479,-1.84171 4.986379,-1.84171 2.753902,0 4.986381,0.824559 4.986381,1.84171 z"
       sodipodi:nodetypes="sssss" />
    <path
       style="fill:#000000;stroke:#000000;stroke-width:0.415961px;stroke-linecap:butt;stroke-linejoin:miter;stroke-opacity:1"
       d="M 7.9465714,1.6920922 C 7.6294946,0.91795507 7.3927583,1.4047673 7.0383246,2.1333542 6.6838909,2.8619411 6.2118219,3.8321747 6.0195933,4.559389 5.8273646,5.2866033 5.9150131,5.7703469 6.4681446,6.0590902 7.0212762,6.3478335 8.0398602,6.4419539 8.3504191,5.4714298 8.660978,4.5009057 8.2636482,2.4662294 7.9465714,1.6920922 Z"
       id="path79"
       inkscape:path-effect="#path-effect81"
       inkscape:original-d="M 7.8662362,0.43113173 C 7.6297928,0.91810011 7.3927916,1.4047835 7.156064,1.8914933 6.6840231,2.8620054 6.21212,3.8323198 5.7396666,4.8025858 5.8275836,5.2865636 5.9152317,5.7703073 6.0025914,6.2537037 7.0212588,6.3480214 8.0398428,6.4421423 9.0584031,6.5360706 8.6611925,4.5008638 8.2638628,2.4661875 7.8662362,0.43113173 Z"
       sodipodi:nodetypes="cccccc" />
    <path
       style="fill:#000000;stroke:#000000;stroke-width:0.249442px;stroke-linecap:butt;stroke-linejoin:miter;stroke-opacity:1"
       d="m 25.32875,2.2937837 c -0.318795,-0.521587 -0.32606,-0.1526959 -0.336997,0.3995237 -0.01094,0.5522195 -0.02554,1.2876228 0.04049,1.8235907 0.06603,0.5359679 0.212609,0.8722916 0.53867,1.0260391 0.32606,0.1537476 0.831642,0.1251847 0.769237,-0.595229 -0.06241,-0.7204137 -0.6926,-2.1323376 -1.011395,-2.6539245 z"
       id="path83"
       inkscape:path-effect="#path-effect85"
       inkscape:original-d="m 25.017224,1.4031612 c -0.0071,0.3690388 -0.01452,0.7379269 -0.0218,1.1068083 -0.01453,0.735559 -0.02904,1.4709642 -0.04382,2.2063864 0.146766,0.3364648 0.293344,0.6727898 0.43971,1.0088958 0.505662,-0.02843 1.011244,-0.05699 1.516772,-0.08569 C 26.277834,4.2272521 25.647641,2.8153279 25.017224,1.4031612 Z"
       sodipodi:nodetypes="cccccc" />
    <path
       style="fill:#000000;stroke:#000000;stroke-width:0.141884px;stroke-linecap:butt;stroke-linejoin:miter;stroke-opacity:1"
       d="m 25.807596,6.8136266 c -0.0026,0.08449 -0.0077,0.253408 -0.01543,0.50627 -0.0077,0.252862 -0.01805,0.5896031 0.02861,0.8350348 0.04666,0.2454317 0.150229,0.3994339 0.380609,0.4698263 0.23038,0.070392 0.587609,0.057315 0.543518,-0.2725562 C 26.700819,8.0223307 26.255543,7.3758093 26.032853,7.0524737 25.810163,6.729138 25.810163,6.7291367 25.807596,6.8136266 Z"
       id="path87"
       inkscape:path-effect="#path-effect89"
       inkscape:original-d="m 25.810163,6.7291367 c -0.005,0.1689838 -0.01026,0.3378981 -0.0154,0.5068099 -0.01027,0.3368136 -0.02052,0.6735568 -0.03096,1.0103083 0.103701,0.1540674 0.207268,0.308071 0.310686,0.4619749 0.357285,-0.013016 0.714514,-0.0261 1.071705,-0.039234 C 26.700872,8.0222941 26.255597,7.3757718 25.810163,6.729138 Z"
       sodipodi:nodetypes="cccccc" />
  </g>
</svg>
