<?xml version="1.0" encoding="UTF-8" standalone="no"?>
<svg
   xmlns:dc="http://purl.org/dc/elements/1.1/"
   xmlns:cc="http://creativecommons.org/ns#"
   xmlns:rdf="http://www.w3.org/1999/02/22-rdf-syntax-ns#"
   xmlns:svg="http://www.w3.org/2000/svg"
   xmlns="http://www.w3.org/2000/svg"
   xmlns:sodipodi="http://sodipodi.sourceforge.net/DTD/sodipodi-0.dtd"
   xmlns:inkscape="http://www.inkscape.org/namespaces/inkscape"
   width="128"
   height="64"
   viewBox="0 0 33.866666 16.933333"
   version="1.1"
   id="svg8"
   inkscape:version="1.0.2-2 (e86c870879, 2021-01-15)"
   sodipodi:docname="ze_calor_1.svg"
   inkscape:export-filename="C:\Users\Ari\Documents\GitHub\PI3_2022_1\imagens PI3\ze_calor_1.png"
   inkscape:export-xdpi="96"
   inkscape:export-ydpi="96">
  <defs
     id="defs2">
    <inkscape:path-effect
       effect="bspline"
       id="path-effect89"
       is_visible="true"
       lpeversion="1"
       weight="33.333333"
       steps="2"
       helper_size="0"
       apply_no_weight="true"
       apply_with_weight="true"
       only_selected="false" />
    <inkscape:path-effect
       effect="bspline"
       id="path-effect85"
       is_visible="true"
       lpeversion="1"
       weight="33.333333"
       steps="2"
       helper_size="0"
       apply_no_weight="true"
       apply_with_weight="true"
       only_selected="false" />
    <inkscape:path-effect
       effect="bspline"
       id="path-effect81"
       is_visible="true"
       lpeversion="1"
       weight="33.333333"
       steps="2"
       helper_size="0"
       apply_no_weight="true"
       apply_with_weight="true"
       only_selected="false" />
    <inkscape:path-effect
       effect="spiro"
       id="path-effect77"
       is_visible="true"
       lpeversion="1" />
    <inkscape:path-effect
       effect="spiro"
       id="path-effect73"
       is_visible="true"
       lpeversion="1" />
    <inkscape:path-effect
       effect="bspline"
       id="path-effect1120"
       is_visible="true"
       lpeversion="1"
       weight="33.333333"
       steps="2"
       helper_size="0"
       apply_no_weight="true"
       apply_with_weight="true"
       only_selected="false" />
    <inkscape:path-effect
       effect="bspline"
       id="path-effect1118"
       is_visible="true"
       lpeversion="1"
       weight="33.333333"
       steps="2"
       helper_size="0"
       apply_no_weight="true"
       apply_with_weight="true"
       only_selected="false" />
    <inkscape:path-effect
       effect="bspline"
       id="path-effect1116"
       is_visible="true"
       lpeversion="1"
       weight="33.333333"
       steps="2"
       helper_size="0"
       apply_no_weight="true"
       apply_with_weight="true"
       only_selected="false" />
    <inkscape:path-effect
       effect="bspline"
       id="path-effect1114"
       is_visible="true"
       lpeversion="1"
       weight="33.333333"
       steps="2"
       helper_size="0"
       apply_no_weight="true"
       apply_with_weight="true"
       only_selected="false" />
    <inkscape:path-effect
       effect="bspline"
       id="path-effect1112"
       is_visible="true"
       lpeversion="1"
       weight="33.333333"
       steps="2"
       helper_size="0"
       apply_no_weight="true"
       apply_with_weight="true"
       only_selected="false" />
    <inkscape:path-effect
       effect="bspline"
       id="path-effect852"
       is_visible="true"
       lpeversion="1"
       weight="33.333333"
       steps="2"
       helper_size="0"
       apply_no_weight="true"
       apply_with_weight="true"
       only_selected="false" />
    <inkscape:path-effect
       effect="bspline"
       id="path-effect843"
       is_visible="true"
       lpeversion="1"
       weight="33.333333"
       steps="2"
       helper_size="0"
       apply_no_weight="true"
       apply_with_weight="true"
       only_selected="false" />
    <inkscape:path-effect
       effect="bspline"
       id="path-effect835"
       is_visible="true"
       lpeversion="1"
       weight="33.333333"
       steps="2"
       helper_size="0"
       apply_no_weight="true"
       apply_with_weight="true"
       only_selected="false" />
    <inkscape:path-effect
       effect="bspline"
       id="path-effect850"
       is_visible="true"
       lpeversion="1"
       weight="33.333333"
       steps="2"
       helper_size="0"
       apply_no_weight="true"
       apply_with_weight="true"
       only_selected="false" />
    <inkscape:path-effect
       effect="bspline"
       id="path-effect854"
       is_visible="true"
       lpeversion="1"
       weight="33.333333"
       steps="2"
       helper_size="0"
       apply_no_weight="true"
       apply_with_weight="true"
       only_selected="false" />
    <inkscape:path-effect
       effect="bspline"
       id="path-effect858"
       is_visible="true"
       lpeversion="1"
       weight="33.333333"
       steps="2"
       helper_size="0"
       apply_no_weight="true"
       apply_with_weight="true"
       only_selected="false" />
    <inkscape:path-effect
       effect="bspline"
       id="path-effect863"
       is_visible="true"
       lpeversion="1"
       weight="33.333333"
       steps="2"
       helper_size="0"
       apply_no_weight="true"
       apply_with_weight="true"
       only_selected="false" />
    <inkscape:path-effect
       effect="bspline"
       id="path-effect880"
       is_visible="true"
       lpeversion="1"
       weight="33.333333"
       steps="2"
       helper_size="0"
       apply_no_weight="true"
       apply_with_weight="true"
       only_selected="false" />
    <inkscape:path-effect
       effect="bspline"
       id="path-effect884"
       is_visible="true"
       lpeversion="1"
       weight="33.333333"
       steps="2"
       helper_size="0"
       apply_no_weight="true"
       apply_with_weight="true"
       only_selected="false" />
    <inkscape:path-effect
       effect="bspline"
       id="path-effect896"
       is_visible="true"
       lpeversion="1"
       weight="33.333333"
       steps="2"
       helper_size="0"
       apply_no_weight="true"
       apply_with_weight="true"
       only_selected="false" />
    <inkscape:path-effect
       effect="bspline"
       id="path-effect898"
       is_visible="true"
       lpeversion="1"
       weight="33.333333"
       steps="2"
       helper_size="0"
       apply_no_weight="true"
       apply_with_weight="true"
       only_selected="false" />
    <inkscape:path-effect
       effect="bspline"
       id="path-effect906"
       is_visible="true"
       lpeversion="1"
       weight="33.333333"
       steps="2"
       helper_size="0"
       apply_no_weight="true"
       apply_with_weight="true"
       only_selected="false" />
    <inkscape:path-effect
       effect="bspline"
       id="path-effect908"
       is_visible="true"
       lpeversion="1"
       weight="33.333333"
       steps="2"
       helper_size="0"
       apply_no_weight="true"
       apply_with_weight="true"
       only_selected="false" />
    <inkscape:path-effect
       effect="bspline"
       id="path-effect916"
       is_visible="true"
       lpeversion="1"
       weight="33.333333"
       steps="2"
       helper_size="0"
       apply_no_weight="true"
       apply_with_weight="true"
       only_selected="false" />
    <inkscape:path-effect
       effect="bspline"
       id="path-effect918"
       is_visible="true"
       lpeversion="1"
       weight="33.333333"
       steps="2"
       helper_size="0"
       apply_no_weight="true"
       apply_with_weight="true"
       only_selected="false" />
    <inkscape:path-effect
       effect="bspline"
       id="path-effect926"
       is_visible="true"
       lpeversion="1"
       weight="33.333333"
       steps="2"
       helper_size="0"
       apply_no_weight="true"
       apply_with_weight="true"
       only_selected="false" />
    <inkscape:path-effect
       effect="bspline"
       id="path-effect928"
       is_visible="true"
       lpeversion="1"
       weight="33.333333"
       steps="2"
       helper_size="0"
       apply_no_weight="true"
       apply_with_weight="true"
       only_selected="false" />
    <inkscape:path-effect
       effect="bspline"
       id="path-effect936"
       is_visible="true"
       lpeversion="1"
       weight="33.333333"
       steps="2"
       helper_size="0"
       apply_no_weight="true"
       apply_with_weight="true"
       only_selected="false" />
    <inkscape:path-effect
       effect="bspline"
       id="path-effect938"
       is_visible="true"
       lpeversion="1"
       weight="33.333333"
       steps="2"
       helper_size="0"
       apply_no_weight="true"
       apply_with_weight="true"
       only_selected="false" />
  </defs>
  <sodipodi:namedview
     id="base"
     pagecolor="#ffffff"
     bordercolor="#666666"
     borderopacity="1.0"
     inkscape:pageopacity="0.0"
     inkscape:pageshadow="2"
     inkscape:zoom="2.8"
     inkscape:cx="13.096652"
     inkscape:cy="-21.596344"
     inkscape:document-units="px"
     inkscape:current-layer="layer1"
     inkscape:document-rotation="0"
     showgrid="false"
     units="px"
     inkscape:window-width="1366"
     inkscape:window-height="705"
     inkscape:window-x="-8"
     inkscape:window-y="-8"
     inkscape:window-maximized="1">
    <inkscape:grid
       type="xygrid"
       id="grid864" />
  </sodipodi:namedview>
  <metadata
     id="metadata5">
    <rdf:RDF>
      <cc:Work
         rdf:about="">
        <dc:format>image/svg+xml</dc:format>
        <dc:type
           rdf:resource="http://purl.org/dc/dcmitype/StillImage" />
        <dc:title />
      </cc:Work>
    </rdf:RDF>
  </metadata>
  <g
     inkscape:label="Layer 1"
     inkscape:groupmode="layer"
     id="layer1">
    <rect
       style="fill:#ffffff;fill-rule:evenodd;stroke-width:0.264583"
       id="rect14"
       width="33.866665"
       height="16.933332"
       x="5.567627e-07"
       y="2.7838135e-07"
       sodipodi:insensitive="true" />
    <path
       id="path860"
       style="fill:#000000;fill-rule:evenodd;stroke-width:0.264583"
       d="m 10.176205,5.0063085 a 1.4699824,2.1715648 0 0 0 -0.09043,0.7482747 1.4699824,2.1715648 0 0 0 1.470194,2.1719603 1.4699824,2.1715648 0 0 0 1.469678,-2.1719603 1.4699824,2.1715648 0 0 0 -0.462504,-1.5812989 2.366175,3.326018 70.172737 0 1 -0.02222,0.01602 2.366175,3.326018 70.172737 0 1 -0.0677,0.046509 2.366175,3.326018 70.172737 0 1 -0.06873,0.045475 2.366175,3.326018 70.172737 0 1 -0.06976,0.044442 2.366175,3.326018 70.172737 0 1 -0.04961,0.030489 2.366175,3.326018 70.172737 0 1 -0.07183,0.041858 2.366175,3.326018 70.172737 0 1 -0.07235,0.041341 2.366175,3.326018 70.172737 0 1 -0.0739,0.039791 2.366175,3.326018 70.172737 0 1 -0.07441,0.038758 2.366175,3.326018 70.172737 0 1 -0.07545,0.037207 2.366175,3.326018 70.172737 0 1 -0.07648,0.036173 2.366175,3.326018 70.172737 0 1 -0.077,0.034623 2.366175,3.326018 70.172737 0 1 -0.07752,0.033073 2.366175,3.326018 70.172737 0 1 -0.07855,0.03204 2.366175,3.326018 70.172737 0 1 -0.07906,0.030489 2.366175,3.326018 70.172737 0 1 -0.07958,0.028939 2.366175,3.326018 70.172737 0 1 -0.0801,0.027388 2.366175,3.326018 70.172737 0 1 -0.0801,0.026355 2.366175,3.326018 70.172737 0 1 -0.08113,0.024289 2.366175,3.326018 70.172737 0 1 -0.08113,0.023254 2.366175,3.326018 70.172737 0 1 -0.08165,0.021704 2.366175,3.326018 70.172737 0 1 -0.08165,0.020153 2.366175,3.326018 70.172737 0 1 -0.08216,0.018603 2.366175,3.326018 70.172737 0 1 -0.08217,0.017052 2.366175,3.326018 70.172737 0 1 -0.08217,0.014986 2.366175,3.326018 70.172737 0 1 -0.08217,0.013952 2.366175,3.326018 70.172737 0 1 -0.08217,0.012401 2.366175,3.326018 70.172737 0 1 -0.08217,0.010853 2.366175,3.326018 70.172737 0 1 -0.08217,0.00878 2.366175,3.326018 70.172737 0 1 -0.08165,0.00775 2.366175,3.326018 70.172737 0 1 -0.08165,0.00568 2.366175,3.326018 70.172737 0 1 -0.04858,0.00259 z" />
    <path
       id="path870"
       style="fill:#000000;fill-rule:evenodd;stroke-width:0.264583"
       d="m 23.837469,4.9354379 a 1.4699824,2.1715648 0 0 1 0.09043,0.7482747 1.4699824,2.1715648 0 0 1 -1.470195,2.1719603 1.4699824,2.1715648 0 0 1 -1.469677,-2.1719603 1.4699824,2.1715648 0 0 1 0.462504,-1.5812989 3.326018,2.366175 19.827263 0 0 0.02222,0.01602 3.326018,2.366175 19.827263 0 0 0.0677,0.046509 3.326018,2.366175 19.827263 0 0 0.06873,0.045475 3.326018,2.366175 19.827263 0 0 0.06976,0.044442 3.326018,2.366175 19.827263 0 0 0.04961,0.030489 3.326018,2.366175 19.827263 0 0 0.07183,0.041858 3.326018,2.366175 19.827263 0 0 0.07235,0.041341 3.326018,2.366175 19.827263 0 0 0.0739,0.039791 3.326018,2.366175 19.827263 0 0 0.07441,0.038758 3.326018,2.366175 19.827263 0 0 0.07545,0.037207 3.326018,2.366175 19.827263 0 0 0.07648,0.036173 3.326018,2.366175 19.827263 0 0 0.077,0.034623 3.326018,2.366175 19.827263 0 0 0.07751,0.033073 3.326018,2.366175 19.827263 0 0 0.07855,0.032039 3.326018,2.366175 19.827263 0 0 0.07906,0.030489 3.326018,2.366175 19.827263 0 0 0.07958,0.028939 3.326018,2.366175 19.827263 0 0 0.0801,0.027388 3.326018,2.366175 19.827263 0 0 0.0801,0.026355 3.326018,2.366175 19.827263 0 0 0.08113,0.024288 3.326018,2.366175 19.827263 0 0 0.08113,0.023254 3.326018,2.366175 19.827263 0 0 0.08165,0.021704 3.326018,2.366175 19.827263 0 0 0.08165,0.020154 3.326018,2.366175 19.827263 0 0 0.08217,0.018604 3.326018,2.366175 19.827263 0 0 0.08216,0.017053 3.326018,2.366175 19.827263 0 0 0.08217,0.014986 3.326018,2.366175 19.827263 0 0 0.08216,0.013953 3.326018,2.366175 19.827263 0 0 0.08217,0.012402 3.326018,2.366175 19.827263 0 0 0.08216,0.010852 3.326018,2.366175 19.827263 0 0 0.08217,0.00879 3.326018,2.366175 19.827263 0 0 0.08165,0.00775 3.326018,2.366175 19.827263 0 0 0.08165,0.00568 3.326018,2.366175 19.827263 0 0 0.04858,0.00258 z" />
    <path
       id="path68"
       style="fill:#000000;fill-rule:evenodd;stroke:#000000;stroke-width:0.261592"
       d="m 21.825219,11.796781 c 0,0.726434 -2.116875,0.04103 -4.870777,0.04103 -2.753901,0 -5.101983,0.68521 -5.101983,-0.04103 0,-0.726433 2.232479,-1.31532 4.986379,-1.31532 2.753902,0 4.986381,0.588887 4.986381,1.31532 z"
       sodipodi:nodetypes="sssss" />
    <path
       style="fill:#000000;stroke:#000000;stroke-width:0.462293px;stroke-linecap:butt;stroke-linejoin:miter;stroke-opacity:1"
       d="M 7.2378541,3.8314577 C 6.9207681,2.8752969 6.6840506,3.4765486 6.3296133,4.3764909 5.9751761,5.2764333 5.5030953,6.4748731 5.3108761,7.3730761 5.1186568,8.2712791 5.2063053,8.8687881 5.7594425,9.2254459 6.3125798,9.5821037 7.3311638,9.6983593 7.6417168,8.4995813 7.9522698,7.3008033 7.5549401,4.7876185 7.2378541,3.8314577 Z"
       id="path79"
       inkscape:path-effect="#path-effect81"
       inkscape:original-d="M 7.1575308,2.2739306 C 6.9210874,2.8754226 6.6840862,3.4765626 6.4473586,4.0777352 5.9753177,5.2764891 5.5034146,6.4749989 5.0309612,7.6734485 5.1188778,8.2712467 5.2065263,8.8687557 5.293886,9.4658355 6.3125534,9.582335 7.3311374,9.6985907 8.3496977,9.8146092 7.9524871,7.3007689 7.5551574,4.7875841 7.1575308,2.2739306 Z"
       sodipodi:nodetypes="cccccc" />
    <path
       style="fill:#000000;stroke:#000000;stroke-width:0.278062px;stroke-linecap:butt;stroke-linejoin:miter;stroke-opacity:1"
       d="M 25.375994,4.1028193 C 25.057202,3.4546828 25.049937,3.9130809 25.039,4.5992918 c -0.01094,0.6862109 -0.02554,1.6000541 0.04048,2.2660604 0.06602,0.6660063 0.212606,1.0839357 0.538668,1.2749982 0.326061,0.1910625 0.831643,0.1555711 0.769236,-0.7396543 -0.06241,-0.8952254 -0.6926,-2.6497403 -1.011392,-3.2978768 z"
       id="path83"
       inkscape:path-effect="#path-effect85"
       inkscape:original-d="m 25.064471,2.9961028 c -0.0071,0.4585827 -0.01452,0.9169783 -0.0218,1.3753654 -0.01453,0.9140358 -0.02904,1.8278805 -0.04382,2.7417462 0.146766,0.4181056 0.293344,0.836036 0.43971,1.2536947 0.505662,-0.03533 1.011244,-0.07082 1.516772,-0.106476 -0.630252,-1.754999 -1.260445,-3.509514 -1.890862,-5.2643303 z"
       sodipodi:nodetypes="cccccc" />
    <path
       style="fill:#000000;stroke:#000000;stroke-width:0.154979px;stroke-linecap:butt;stroke-linejoin:miter;stroke-opacity:1"
       d="m 25.90209,9.2920392 c -0.0026,0.1008061 -0.0077,0.3023426 -0.01543,0.6040345 -0.0077,0.3016923 -0.01805,0.7034613 0.02861,0.9962813 0.04666,0.292821 0.150226,0.476562 0.380609,0.560553 0.230382,0.08399 0.587611,0.06839 0.543518,-0.325188 C 26.795307,10.734144 26.350031,9.9627738 26.127344,9.5770044 25.904657,9.1912351 25.904657,9.1912331 25.90209,9.2920392 Z"
       id="path87"
       inkscape:path-effect="#path-effect89"
       inkscape:original-d="m 25.904657,9.1912331 c -0.005,0.2016156 -0.01026,0.4031489 -0.0154,0.6046785 -0.01027,0.4018554 -0.02052,0.8036264 -0.03096,1.2054074 0.103701,0.183819 0.207268,0.367562 0.310686,0.551186 0.357285,-0.01553 0.714514,-0.03114 1.071705,-0.04681 -0.445322,-0.771585 -0.890597,-1.542956 -1.336031,-2.3144599 z"
       sodipodi:nodetypes="cccccc" />
  </g>
</svg>
