<?xml version="1.0" encoding="UTF-8" standalone="no"?>
<svg
   xmlns:dc="http://purl.org/dc/elements/1.1/"
   xmlns:cc="http://creativecommons.org/ns#"
   xmlns:rdf="http://www.w3.org/1999/02/22-rdf-syntax-ns#"
   xmlns:svg="http://www.w3.org/2000/svg"
   xmlns="http://www.w3.org/2000/svg"
   xmlns:sodipodi="http://sodipodi.sourceforge.net/DTD/sodipodi-0.dtd"
   xmlns:inkscape="http://www.inkscape.org/namespaces/inkscape"
   width="128"
   height="64"
   viewBox="0 0 33.866666 16.933333"
   version="1.1"
   id="svg8"
   inkscape:version="1.0.2-2 (e86c870879, 2021-01-15)"
   sodipodi:docname="ze_calor_3.svg"
   inkscape:export-filename="C:\Users\Ari\Documents\GitHub\PI3_2022_1\imagens PI3\ze_calor_3.png"
   inkscape:export-xdpi="96"
   inkscape:export-ydpi="96">
  <defs
     id="defs2">
    <inkscape:path-effect
       effect="bspline"
       id="path-effect89"
       is_visible="true"
       lpeversion="1"
       weight="33.333333"
       steps="2"
       helper_size="0"
       apply_no_weight="true"
       apply_with_weight="true"
       only_selected="false" />
    <inkscape:path-effect
       effect="bspline"
       id="path-effect85"
       is_visible="true"
       lpeversion="1"
       weight="33.333333"
       steps="2"
       helper_size="0"
       apply_no_weight="true"
       apply_with_weight="true"
       only_selected="false" />
    <inkscape:path-effect
       effect="bspline"
       id="path-effect81"
       is_visible="true"
       lpeversion="1"
       weight="33.333333"
       steps="2"
       helper_size="0"
       apply_no_weight="true"
       apply_with_weight="true"
       only_selected="false" />
    <inkscape:path-effect
       effect="spiro"
       id="path-effect77"
       is_visible="true"
       lpeversion="1" />
    <inkscape:path-effect
       effect="spiro"
       id="path-effect73"
       is_visible="true"
       lpeversion="1" />
    <inkscape:path-effect
       effect="bspline"
       id="path-effect1120"
       is_visible="true"
       lpeversion="1"
       weight="33.333333"
       steps="2"
       helper_size="0"
       apply_no_weight="true"
       apply_with_weight="true"
       only_selected="false" />
    <inkscape:path-effect
       effect="bspline"
       id="path-effect1118"
       is_visible="true"
       lpeversion="1"
       weight="33.333333"
       steps="2"
       helper_size="0"
       apply_no_weight="true"
       apply_with_weight="true"
       only_selected="false" />
    <inkscape:path-effect
       effect="bspline"
       id="path-effect1116"
       is_visible="true"
       lpeversion="1"
       weight="33.333333"
       steps="2"
       helper_size="0"
       apply_no_weight="true"
       apply_with_weight="true"
       only_selected="false" />
    <inkscape:path-effect
       effect="bspline"
       id="path-effect1114"
       is_visible="true"
       lpeversion="1"
       weight="33.333333"
       steps="2"
       helper_size="0"
       apply_no_weight="true"
       apply_with_weight="true"
       only_selected="false" />
    <inkscape:path-effect
       effect="bspline"
       id="path-effect1112"
       is_visible="true"
       lpeversion="1"
       weight="33.333333"
       steps="2"
       helper_size="0"
       apply_no_weight="true"
       apply_with_weight="true"
       only_selected="false" />
    <inkscape:path-effect
       effect="bspline"
       id="path-effect852"
       is_visible="true"
       lpeversion="1"
       weight="33.333333"
       steps="2"
       helper_size="0"
       apply_no_weight="true"
       apply_with_weight="true"
       only_selected="false" />
    <inkscape:path-effect
       effect="bspline"
       id="path-effect843"
       is_visible="true"
       lpeversion="1"
       weight="33.333333"
       steps="2"
       helper_size="0"
       apply_no_weight="true"
       apply_with_weight="true"
       only_selected="false" />
    <inkscape:path-effect
       effect="bspline"
       id="path-effect835"
       is_visible="true"
       lpeversion="1"
       weight="33.333333"
       steps="2"
       helper_size="0"
       apply_no_weight="true"
       apply_with_weight="true"
       only_selected="false" />
    <inkscape:path-effect
       effect="bspline"
       id="path-effect850"
       is_visible="true"
       lpeversion="1"
       weight="33.333333"
       steps="2"
       helper_size="0"
       apply_no_weight="true"
       apply_with_weight="true"
       only_selected="false" />
    <inkscape:path-effect
       effect="bspline"
       id="path-effect854"
       is_visible="true"
       lpeversion="1"
       weight="33.333333"
       steps="2"
       helper_size="0"
       apply_no_weight="true"
       apply_with_weight="true"
       only_selected="false" />
    <inkscape:path-effect
       effect="bspline"
       id="path-effect858"
       is_visible="true"
       lpeversion="1"
       weight="33.333333"
       steps="2"
       helper_size="0"
       apply_no_weight="true"
       apply_with_weight="true"
       only_selected="false" />
    <inkscape:path-effect
       effect="bspline"
       id="path-effect863"
       is_visible="true"
       lpeversion="1"
       weight="33.333333"
       steps="2"
       helper_size="0"
       apply_no_weight="true"
       apply_with_weight="true"
       only_selected="false" />
    <inkscape:path-effect
       effect="bspline"
       id="path-effect880"
       is_visible="true"
       lpeversion="1"
       weight="33.333333"
       steps="2"
       helper_size="0"
       apply_no_weight="true"
       apply_with_weight="true"
       only_selected="false" />
    <inkscape:path-effect
       effect="bspline"
       id="path-effect884"
       is_visible="true"
       lpeversion="1"
       weight="33.333333"
       steps="2"
       helper_size="0"
       apply_no_weight="true"
       apply_with_weight="true"
       only_selected="false" />
    <inkscape:path-effect
       effect="bspline"
       id="path-effect896"
       is_visible="true"
       lpeversion="1"
       weight="33.333333"
       steps="2"
       helper_size="0"
       apply_no_weight="true"
       apply_with_weight="true"
       only_selected="false" />
    <inkscape:path-effect
       effect="bspline"
       id="path-effect898"
       is_visible="true"
       lpeversion="1"
       weight="33.333333"
       steps="2"
       helper_size="0"
       apply_no_weight="true"
       apply_with_weight="true"
       only_selected="false" />
    <inkscape:path-effect
       effect="bspline"
       id="path-effect906"
       is_visible="true"
       lpeversion="1"
       weight="33.333333"
       steps="2"
       helper_size="0"
       apply_no_weight="true"
       apply_with_weight="true"
       only_selected="false" />
    <inkscape:path-effect
       effect="bspline"
       id="path-effect908"
       is_visible="true"
       lpeversion="1"
       weight="33.333333"
       steps="2"
       helper_size="0"
       apply_no_weight="true"
       apply_with_weight="true"
       only_selected="false" />
    <inkscape:path-effect
       effect="bspline"
       id="path-effect916"
       is_visible="true"
       lpeversion="1"
       weight="33.333333"
       steps="2"
       helper_size="0"
       apply_no_weight="true"
       apply_with_weight="true"
       only_selected="false" />
    <inkscape:path-effect
       effect="bspline"
       id="path-effect918"
       is_visible="true"
       lpeversion="1"
       weight="33.333333"
       steps="2"
       helper_size="0"
       apply_no_weight="true"
       apply_with_weight="true"
       only_selected="false" />
    <inkscape:path-effect
       effect="bspline"
       id="path-effect926"
       is_visible="true"
       lpeversion="1"
       weight="33.333333"
       steps="2"
       helper_size="0"
       apply_no_weight="true"
       apply_with_weight="true"
       only_selected="false" />
    <inkscape:path-effect
       effect="bspline"
       id="path-effect928"
       is_visible="true"
       lpeversion="1"
       weight="33.333333"
       steps="2"
       helper_size="0"
       apply_no_weight="true"
       apply_with_weight="true"
       only_selected="false" />
    <inkscape:path-effect
       effect="bspline"
       id="path-effect936"
       is_visible="true"
       lpeversion="1"
       weight="33.333333"
       steps="2"
       helper_size="0"
       apply_no_weight="true"
       apply_with_weight="true"
       only_selected="false" />
    <inkscape:path-effect
       effect="bspline"
       id="path-effect938"
       is_visible="true"
       lpeversion="1"
       weight="33.333333"
       steps="2"
       helper_size="0"
       apply_no_weight="true"
       apply_with_weight="true"
       only_selected="false" />
  </defs>
  <sodipodi:namedview
     id="base"
     pagecolor="#ffffff"
     bordercolor="#666666"
     borderopacity="1.0"
     inkscape:pageopacity="0.0"
     inkscape:pageshadow="2"
     inkscape:zoom="5.6"
     inkscape:cx="34.732302"
     inkscape:cy="36.377346"
     inkscape:document-units="px"
     inkscape:current-layer="layer1"
     inkscape:document-rotation="0"
     showgrid="false"
     units="px"
     inkscape:window-width="1366"
     inkscape:window-height="705"
     inkscape:window-x="-8"
     inkscape:window-y="-8"
     inkscape:window-maximized="1">
    <inkscape:grid
       type="xygrid"
       id="grid864" />
  </sodipodi:namedview>
  <metadata
     id="metadata5">
    <rdf:RDF>
      <cc:Work
         rdf:about="">
        <dc:format>image/svg+xml</dc:format>
        <dc:type
           rdf:resource="http://purl.org/dc/dcmitype/StillImage" />
        <dc:title></dc:title>
      </cc:Work>
    </rdf:RDF>
  </metadata>
  <g
     inkscape:label="Layer 1"
     inkscape:groupmode="layer"
     id="layer1">
    <rect
       style="fill:#ffffff;fill-rule:evenodd;stroke-width:0.264583"
       id="rect14"
       width="33.866665"
       height="16.933332"
       x="5.567627e-07"
       y="2.7838135e-07"
       sodipodi:insensitive="true" />
    <path
       id="path860"
       style="fill:#000000;fill-rule:evenodd;stroke-width:0.245765"
       d="m 10.176205,5.4069343 a 1.4699824,1.8736488 0 0 0 -0.09043,0.6456192 1.4699824,1.8736488 0 0 0 1.470194,1.87399 1.4699824,1.8736488 0 0 0 1.469678,-1.87399 1.4699824,1.8736488 0 0 0 -0.462504,-1.3643612 2.0661342,3.2864598 76.288496 0 1 -0.02222,0.013822 2.0661342,3.2864598 76.288496 0 1 -0.0677,0.040128 2.0661342,3.2864598 76.288496 0 1 -0.06873,0.039236 2.0661342,3.2864598 76.288496 0 1 -0.06976,0.038345 2.0661342,3.2864598 76.288496 0 1 -0.04961,0.026306 2.0661342,3.2864598 76.288496 0 1 -0.07183,0.036116 2.0661342,3.2864598 76.288496 0 1 -0.07235,0.035669 2.0661342,3.2864598 76.288496 0 1 -0.0739,0.034332 2.0661342,3.2864598 76.288496 0 1 -0.07441,0.033441 2.0661342,3.2864598 76.288496 0 1 -0.07545,0.032103 2.0661342,3.2864598 76.288496 0 1 -0.07648,0.03121 2.0661342,3.2864598 76.288496 0 1 -0.077,0.029873 2.0661342,3.2864598 76.288496 0 1 -0.07752,0.028536 2.0661342,3.2864598 76.288496 0 1 -0.07855,0.027644 2.0661342,3.2864598 76.288496 0 1 -0.07906,0.026306 2.0661342,3.2864598 76.288496 0 1 -0.07958,0.024969 2.0661342,3.2864598 76.288496 0 1 -0.0801,0.023631 2.0661342,3.2864598 76.288496 0 1 -0.0801,0.022739 2.0661342,3.2864598 76.288496 0 1 -0.08113,0.020957 2.0661342,3.2864598 76.288496 0 1 -0.08113,0.020064 2.0661342,3.2864598 76.288496 0 1 -0.08165,0.018726 2.0661342,3.2864598 76.288496 0 1 -0.08165,0.017388 2.0661342,3.2864598 76.288496 0 1 -0.08216,0.016051 2.0661342,3.2864598 76.288496 0 1 -0.08217,0.014713 2.0661342,3.2864598 76.288496 0 1 -0.08217,0.01293 2.0661342,3.2864598 76.288496 0 1 -0.08217,0.012038 2.0661342,3.2864598 76.288496 0 1 -0.08217,0.0107 2.0661342,3.2864598 76.288496 0 1 -0.08217,0.00936 2.0661342,3.2864598 76.288496 0 1 -0.08217,0.00758 2.0661342,3.2864598 76.288496 0 1 -0.08165,0.00669 2.0661342,3.2864598 76.288496 0 1 -0.08165,0.0049 2.0661342,3.2864598 76.288496 0 1 -0.04858,0.00223 z" />
    <path
       id="path870"
       style="fill:#000000;fill-rule:evenodd;stroke-width:0.241815"
       d="m 23.837469,5.4164094 a 1.4699824,1.8139016 0 0 1 0.09043,0.6250316 1.4699824,1.8139016 0 0 1 -1.470195,1.8142319 1.4699824,1.8139016 0 0 1 -1.469677,-1.8142319 1.4699824,1.8139016 0 0 1 0.462504,-1.3208543 3.2808779,2.0036521 12.781187 0 0 0.02222,0.013381 3.2808779,2.0036521 12.781187 0 0 0.0677,0.038849 3.2808779,2.0036521 12.781187 0 0 0.06873,0.037985 3.2808779,2.0036521 12.781187 0 0 0.06976,0.037122 3.2808779,2.0036521 12.781187 0 0 0.04961,0.025467 3.2808779,2.0036521 12.781187 0 0 0.07183,0.034964 3.2808779,2.0036521 12.781187 0 0 0.07235,0.034532 3.2808779,2.0036521 12.781187 0 0 0.0739,0.033237 3.2808779,2.0036521 12.781187 0 0 0.07441,0.032374 3.2808779,2.0036521 12.781187 0 0 0.07545,0.031079 3.2808779,2.0036521 12.781187 0 0 0.07648,0.030215 3.2808779,2.0036521 12.781187 0 0 0.077,0.02892 3.2808779,2.0036521 12.781187 0 0 0.07751,0.027626 3.2808779,2.0036521 12.781187 0 0 0.07855,0.026762 3.2808779,2.0036521 12.781187 0 0 0.07906,0.025467 3.2808779,2.0036521 12.781187 0 0 0.07958,0.024173 3.2808779,2.0036521 12.781187 0 0 0.0801,0.022877 3.2808779,2.0036521 12.781187 0 0 0.0801,0.022014 3.2808779,2.0036521 12.781187 0 0 0.08113,0.020288 3.2808779,2.0036521 12.781187 0 0 0.08113,0.019424 3.2808779,2.0036521 12.781187 0 0 0.08165,0.018129 3.2808779,2.0036521 12.781187 0 0 0.08165,0.016835 3.2808779,2.0036521 12.781187 0 0 0.08217,0.01554 3.2808779,2.0036521 12.781187 0 0 0.08216,0.014244 3.2808779,2.0036521 12.781187 0 0 0.08217,0.012518 3.2808779,2.0036521 12.781187 0 0 0.08216,0.011655 3.2808779,2.0036521 12.781187 0 0 0.08217,0.010359 3.2808779,2.0036521 12.781187 0 0 0.08216,0.00906 3.2808779,2.0036521 12.781187 0 0 0.08217,0.00734 3.2808779,2.0036521 12.781187 0 0 0.08165,0.00647 3.2808779,2.0036521 12.781187 0 0 0.08165,0.00474 3.2808779,2.0036521 12.781187 0 0 0.04858,0.00216 z" />
    <path
       id="path68"
       style="fill:#000000;fill-rule:evenodd;stroke:#000000;stroke-width:0.233789"
       d="m 21.825219,11.53204 c 0,0.580221 -2.116875,0.03277 -4.870777,0.03277 -2.753901,0 -5.101983,0.547295 -5.101983,-0.03277 0,-0.58022 2.232479,-1.050579 4.986379,-1.050579 2.753902,0 4.986381,0.470359 4.986381,1.050579 z"
       sodipodi:nodetypes="sssss" />
    <path
       style="fill:#000000;stroke:#000000;stroke-width:0.419909px;stroke-linecap:butt;stroke-linejoin:miter;stroke-opacity:1"
       d="M 9.2222397,10.597257 C 8.9051619,9.8083583 8.6684276,10.304451 8.3139936,11.046934 7.9595596,11.789417 7.4874892,12.778159 7.2952616,13.519239 7.1030339,14.26032 7.1906824,14.75329 7.7438146,15.047541 8.2969468,15.341792 9.3155305,15.437707 9.626089,14.448673 9.9366476,13.459638 9.539317,11.386155 9.2222397,10.597257 Z"
       id="path79"
       inkscape:path-effect="#path-effect81"
       inkscape:original-d="m 9.1419058,9.3122457 c -0.2364434,0.496256 -0.4734446,0.9922213 -0.7101722,1.4882133 -0.4720409,0.989022 -0.943944,1.977843 -1.4163974,2.966614 0.087917,0.493208 0.1755651,0.986178 0.2629248,1.478794 1.0186674,0.09612 2.0372514,0.192033 3.055812,0.287752 C 9.9368619,13.459597 9.5395324,11.386114 9.1419058,9.3122457 Z"
       sodipodi:nodetypes="cccccc" />
    <path
       style="fill:#000000;stroke:#000000;stroke-width:0.241051px;stroke-linecap:butt;stroke-linejoin:miter;stroke-opacity:1"
       d="M 25.848468,9.4288763 C 25.529672,8.941786 25.522407,9.2862781 25.51147,9.8019722 c -0.01094,0.5156938 -0.02554,1.2024548 0.04049,1.7029748 0.06603,0.50052 0.21261,0.814598 0.53867,0.958174 0.32606,0.143576 0.831642,0.116903 0.769237,-0.555858 -0.06241,-0.672761 -0.692599,-1.9912964 -1.011395,-2.4783867 z"
       id="path83"
       inkscape:path-effect="#path-effect85"
       inkscape:original-d="m 25.536941,8.5971603 c -0.0071,0.3446293 -0.01452,0.6891181 -0.0218,1.0336004 -0.01453,0.6869073 -0.02904,1.3736703 -0.04382,2.0604493 0.146766,0.31421 0.293344,0.628289 0.43971,0.942164 0.505662,-0.02655 1.011244,-0.05322 1.516772,-0.08002 -0.630252,-1.318897 -1.260445,-2.6374322 -1.890862,-3.9561937 z"
       sodipodi:nodetypes="cccccc" />
    <path
       style="fill:#000000;stroke:#000000;stroke-width:0.138556px;stroke-linecap:butt;stroke-linejoin:miter;stroke-opacity:1"
       d="m 26.043831,13.107675 c -0.0026,0.08057 -0.0077,0.24166 -0.01543,0.482799 -0.0077,0.241139 -0.01805,0.562269 0.02862,0.796324 0.04666,0.234055 0.15023,0.380918 0.380609,0.448047 0.230379,0.06713 0.587608,0.05466 0.543518,-0.259918 -0.04409,-0.314576 -0.489367,-0.931125 -0.712057,-1.239473 -0.222691,-0.308347 -0.222691,-0.308352 -0.225258,-0.227779 z"
       id="path87"
       inkscape:path-effect="#path-effect89"
       inkscape:original-d="m 26.046398,13.027102 c -0.005,0.16115 -0.01026,0.322233 -0.0154,0.483314 -0.01027,0.321199 -0.02052,0.642331 -0.03096,0.963471 0.103701,0.146925 0.207268,0.293789 0.310686,0.440558 0.357285,-0.01241 0.714514,-0.02489 1.071705,-0.03741 -0.445322,-0.616721 -0.890597,-1.233271 -1.336031,-1.849928 z"
       sodipodi:nodetypes="cccccc" />
  </g>
</svg>
