<?xml version="1.0" encoding="UTF-8" standalone="no"?>
<svg
   xmlns:dc="http://purl.org/dc/elements/1.1/"
   xmlns:cc="http://creativecommons.org/ns#"
   xmlns:rdf="http://www.w3.org/1999/02/22-rdf-syntax-ns#"
   xmlns:svg="http://www.w3.org/2000/svg"
   xmlns="http://www.w3.org/2000/svg"
   xmlns:sodipodi="http://sodipodi.sourceforge.net/DTD/sodipodi-0.dtd"
   xmlns:inkscape="http://www.inkscape.org/namespaces/inkscape"
   width="128"
   height="64"
   viewBox="0 0 33.866666 16.933333"
   version="1.1"
   id="svg8"
   inkscape:version="0.92.4 (5da689c313, 2019-01-14)"
   sodipodi:docname="ze_encharcado_2.svg"
   inkscape:export-filename="C:\Users\Aluno\Desktop\ze_encharcado_1.png"
   inkscape:export-xdpi="96"
   inkscape:export-ydpi="96">
  <defs
     id="defs2">
    <inkscape:path-effect
       is_visible="true"
       id="path-effect4585"
       effect="spiro" />
    <inkscape:path-effect
       effect="spiro"
       id="path-effect4581"
       is_visible="true" />
    <inkscape:path-effect
       effect="bspline"
       id="path-effect1163"
       is_visible="true"
       lpeversion="1"
       weight="33.333333"
       steps="2"
       helper_size="0"
       apply_no_weight="true"
       apply_with_weight="true"
       only_selected="false" />
    <inkscape:path-effect
       effect="bspline"
       id="path-effect1159"
       is_visible="true"
       lpeversion="1"
       weight="33.333333"
       steps="2"
       helper_size="0"
       apply_no_weight="true"
       apply_with_weight="true"
       only_selected="false" />
    <inkscape:path-effect
       effect="bspline"
       id="path-effect1120"
       is_visible="true"
       lpeversion="1"
       weight="33.333333"
       steps="2"
       helper_size="0"
       apply_no_weight="true"
       apply_with_weight="true"
       only_selected="false" />
    <inkscape:path-effect
       effect="bspline"
       id="path-effect1118"
       is_visible="true"
       lpeversion="1"
       weight="33.333333"
       steps="2"
       helper_size="0"
       apply_no_weight="true"
       apply_with_weight="true"
       only_selected="false" />
    <inkscape:path-effect
       effect="bspline"
       id="path-effect1116"
       is_visible="true"
       lpeversion="1"
       weight="33.333333"
       steps="2"
       helper_size="0"
       apply_no_weight="true"
       apply_with_weight="true"
       only_selected="false" />
    <inkscape:path-effect
       effect="bspline"
       id="path-effect1114"
       is_visible="true"
       lpeversion="1"
       weight="33.333333"
       steps="2"
       helper_size="0"
       apply_no_weight="true"
       apply_with_weight="true"
       only_selected="false" />
    <inkscape:path-effect
       effect="bspline"
       id="path-effect1112"
       is_visible="true"
       lpeversion="1"
       weight="33.333333"
       steps="2"
       helper_size="0"
       apply_no_weight="true"
       apply_with_weight="true"
       only_selected="false" />
    <inkscape:path-effect
       effect="bspline"
       id="path-effect852"
       is_visible="true"
       lpeversion="1"
       weight="33.333333"
       steps="2"
       helper_size="0"
       apply_no_weight="true"
       apply_with_weight="true"
       only_selected="false" />
    <inkscape:path-effect
       effect="bspline"
       id="path-effect843"
       is_visible="true"
       lpeversion="1"
       weight="33.333333"
       steps="2"
       helper_size="0"
       apply_no_weight="true"
       apply_with_weight="true"
       only_selected="false" />
    <inkscape:path-effect
       effect="bspline"
       id="path-effect835"
       is_visible="true"
       lpeversion="1"
       weight="33.333333"
       steps="2"
       helper_size="0"
       apply_no_weight="true"
       apply_with_weight="true"
       only_selected="false" />
    <inkscape:path-effect
       effect="bspline"
       id="path-effect850"
       is_visible="true"
       lpeversion="1"
       weight="33.333333"
       steps="2"
       helper_size="0"
       apply_no_weight="true"
       apply_with_weight="true"
       only_selected="false" />
    <inkscape:path-effect
       effect="bspline"
       id="path-effect854"
       is_visible="true"
       lpeversion="1"
       weight="33.333333"
       steps="2"
       helper_size="0"
       apply_no_weight="true"
       apply_with_weight="true"
       only_selected="false" />
    <inkscape:path-effect
       effect="bspline"
       id="path-effect858"
       is_visible="true"
       lpeversion="1"
       weight="33.333333"
       steps="2"
       helper_size="0"
       apply_no_weight="true"
       apply_with_weight="true"
       only_selected="false" />
    <inkscape:path-effect
       effect="bspline"
       id="path-effect863"
       is_visible="true"
       lpeversion="1"
       weight="33.333333"
       steps="2"
       helper_size="0"
       apply_no_weight="true"
       apply_with_weight="true"
       only_selected="false" />
    <inkscape:path-effect
       effect="bspline"
       id="path-effect880"
       is_visible="true"
       lpeversion="1"
       weight="33.333333"
       steps="2"
       helper_size="0"
       apply_no_weight="true"
       apply_with_weight="true"
       only_selected="false" />
    <inkscape:path-effect
       effect="bspline"
       id="path-effect884"
       is_visible="true"
       lpeversion="1"
       weight="33.333333"
       steps="2"
       helper_size="0"
       apply_no_weight="true"
       apply_with_weight="true"
       only_selected="false" />
    <inkscape:path-effect
       effect="bspline"
       id="path-effect896"
       is_visible="true"
       lpeversion="1"
       weight="33.333333"
       steps="2"
       helper_size="0"
       apply_no_weight="true"
       apply_with_weight="true"
       only_selected="false" />
    <inkscape:path-effect
       effect="bspline"
       id="path-effect898"
       is_visible="true"
       lpeversion="1"
       weight="33.333333"
       steps="2"
       helper_size="0"
       apply_no_weight="true"
       apply_with_weight="true"
       only_selected="false" />
    <inkscape:path-effect
       effect="bspline"
       id="path-effect906"
       is_visible="true"
       lpeversion="1"
       weight="33.333333"
       steps="2"
       helper_size="0"
       apply_no_weight="true"
       apply_with_weight="true"
       only_selected="false" />
    <inkscape:path-effect
       effect="bspline"
       id="path-effect908"
       is_visible="true"
       lpeversion="1"
       weight="33.333333"
       steps="2"
       helper_size="0"
       apply_no_weight="true"
       apply_with_weight="true"
       only_selected="false" />
    <inkscape:path-effect
       effect="bspline"
       id="path-effect916"
       is_visible="true"
       lpeversion="1"
       weight="33.333333"
       steps="2"
       helper_size="0"
       apply_no_weight="true"
       apply_with_weight="true"
       only_selected="false" />
    <inkscape:path-effect
       effect="bspline"
       id="path-effect918"
       is_visible="true"
       lpeversion="1"
       weight="33.333333"
       steps="2"
       helper_size="0"
       apply_no_weight="true"
       apply_with_weight="true"
       only_selected="false" />
    <inkscape:path-effect
       effect="bspline"
       id="path-effect926"
       is_visible="true"
       lpeversion="1"
       weight="33.333333"
       steps="2"
       helper_size="0"
       apply_no_weight="true"
       apply_with_weight="true"
       only_selected="false" />
    <inkscape:path-effect
       effect="bspline"
       id="path-effect928"
       is_visible="true"
       lpeversion="1"
       weight="33.333333"
       steps="2"
       helper_size="0"
       apply_no_weight="true"
       apply_with_weight="true"
       only_selected="false" />
    <inkscape:path-effect
       effect="bspline"
       id="path-effect936"
       is_visible="true"
       lpeversion="1"
       weight="33.333333"
       steps="2"
       helper_size="0"
       apply_no_weight="true"
       apply_with_weight="true"
       only_selected="false" />
    <inkscape:path-effect
       effect="bspline"
       id="path-effect938"
       is_visible="true"
       lpeversion="1"
       weight="33.333333"
       steps="2"
       helper_size="0"
       apply_no_weight="true"
       apply_with_weight="true"
       only_selected="false" />
  </defs>
  <sodipodi:namedview
     id="base"
     pagecolor="#ffffff"
     bordercolor="#666666"
     borderopacity="1.0"
     inkscape:pageopacity="0.0"
     inkscape:pageshadow="2"
     inkscape:zoom="7.9195959"
     inkscape:cx="56.781631"
     inkscape:cy="38.46331"
     inkscape:document-units="px"
     inkscape:current-layer="layer1"
     inkscape:document-rotation="0"
     showgrid="false"
     units="px"
     inkscape:window-width="1600"
     inkscape:window-height="838"
     inkscape:window-x="-8"
     inkscape:window-y="-8"
     inkscape:window-maximized="1"
     showguides="false">
    <inkscape:grid
       type="xygrid"
       id="grid864" />
  </sodipodi:namedview>
  <metadata
     id="metadata5">
    <rdf:RDF>
      <cc:Work
         rdf:about="">
        <dc:format>image/svg+xml</dc:format>
        <dc:type
           rdf:resource="http://purl.org/dc/dcmitype/StillImage" />
        <dc:title></dc:title>
      </cc:Work>
    </rdf:RDF>
  </metadata>
  <g
     inkscape:label="Layer 1"
     inkscape:groupmode="layer"
     id="layer1">
    <rect
       style="fill:#ffffff;fill-rule:evenodd;stroke-width:0.264583"
       id="rect1179"
       width="33.866665"
       height="16.933332"
       x="5.567627e-07"
       y="2.7838135e-07"
       sodipodi:insensitive="true" />
    <path
       id="path860"
       style="fill:#000000;fill-rule:evenodd;stroke-width:0.18401888"
       d="m 10.081711,4.5998646 a 1.4699824,1.0504459 0 0 0 -0.09043,0.3619612 1.4699824,1.0504459 0 0 0 1.470194,1.0506372 1.4699824,1.0504459 0 0 0 1.469678,-1.0506372 1.4699824,1.0504459 0 0 0 -0.462504,-0.764918 1.1741465,3.2422767 84.679508 0 1 -0.02222,0.00775 1.1741465,3.2422767 84.679508 0 1 -0.0677,0.022498 1.1741465,3.2422767 84.679508 0 1 -0.06873,0.021998 1.1741465,3.2422767 84.679508 0 1 -0.06976,0.021498 1.1741465,3.2422767 84.679508 0 1 -0.04961,0.014748 1.1741465,3.2422767 84.679508 0 1 -0.07183,0.020248 1.1741465,3.2422767 84.679508 0 1 -0.07235,0.019998 1.1741465,3.2422767 84.679508 0 1 -0.0739,0.019248 1.1741465,3.2422767 84.679508 0 1 -0.07441,0.018748 1.1741465,3.2422767 84.679508 0 1 -0.07545,0.017998 1.1741465,3.2422767 84.679508 0 1 -0.07648,0.017498 1.1741465,3.2422767 84.679508 0 1 -0.077,0.016748 1.1741465,3.2422767 84.679508 0 1 -0.07752,0.015998 1.1741465,3.2422767 84.679508 0 1 -0.07855,0.015499 1.1741465,3.2422767 84.679508 0 1 -0.07906,0.014748 1.1741465,3.2422767 84.679508 0 1 -0.07958,0.013999 1.1741465,3.2422767 84.679508 0 1 -0.0801,0.013248 1.1741465,3.2422767 84.679508 0 1 -0.0801,0.012749 1.1741465,3.2422767 84.679508 0 1 -0.08113,0.011749 1.1741465,3.2422767 84.679508 0 1 -0.08113,0.011249 1.1741465,3.2422767 84.679508 0 1 -0.08165,0.010499 1.1741465,3.2422767 84.679508 0 1 -0.08165,0.00975 1.1741465,3.2422767 84.679508 0 1 -0.08216,0.009 1.1741465,3.2422767 84.679508 0 1 -0.08217,0.00825 1.1741465,3.2422767 84.679508 0 1 -0.08217,0.00725 1.1741465,3.2422767 84.679508 0 1 -0.08217,0.00675 1.1741465,3.2422767 84.679508 0 1 -0.08217,0.006 1.1741465,3.2422767 84.679508 0 1 -0.08217,0.00525 1.1741465,3.2422767 84.679508 0 1 -0.08217,0.00425 1.1741465,3.2422767 84.679508 0 1 -0.08165,0.00375 1.1741465,3.2422767 84.679508 0 1 -0.08165,0.00275 1.1741465,3.2422767 84.679508 0 1 -0.04858,0.00125 z"
       inkscape:connector-curvature="0" />
    <path
       id="path870"
       style="fill:#000000;fill-rule:evenodd;stroke-width:0.18060094"
       d="m 23.742975,4.4807554 a 1.4699824,1.0117866 0 0 1 0.09043,0.34864 1.4699824,1.0117866 0 0 1 -1.470195,1.0119709 1.4699824,1.0117866 0 0 1 -1.469677,-1.0119709 1.4699824,1.0117866 0 0 1 0.462504,-0.7367669 3.2412803,1.1312823 5.0707022 0 0 0.02222,0.00746 3.2412803,1.1312823 5.0707022 0 0 0.0677,0.02167 3.2412803,1.1312823 5.0707022 0 0 0.06873,0.021188 3.2412803,1.1312823 5.0707022 0 0 0.06976,0.020707 3.2412803,1.1312823 5.0707022 0 0 0.04961,0.014206 3.2412803,1.1312823 5.0707022 0 0 0.07183,0.019503 3.2412803,1.1312823 5.0707022 0 0 0.07235,0.019262 3.2412803,1.1312823 5.0707022 0 0 0.0739,0.01854 3.2412803,1.1312823 5.0707022 0 0 0.07441,0.018058 3.2412803,1.1312823 5.0707022 0 0 0.07545,0.017336 3.2412803,1.1312823 5.0707022 0 0 0.07648,0.016854 3.2412803,1.1312823 5.0707022 0 0 0.077,0.016132 3.2412803,1.1312823 5.0707022 0 0 0.07751,0.01541 3.2412803,1.1312823 5.0707022 0 0 0.07855,0.014928 3.2412803,1.1312823 5.0707022 0 0 0.07906,0.014206 3.2412803,1.1312823 5.0707022 0 0 0.07958,0.013483 3.2412803,1.1312823 5.0707022 0 0 0.0801,0.012761 3.2412803,1.1312823 5.0707022 0 0 0.0801,0.012279 3.2412803,1.1312823 5.0707022 0 0 0.08113,0.011316 3.2412803,1.1312823 5.0707022 0 0 0.08113,0.010835 3.2412803,1.1312823 5.0707022 0 0 0.08165,0.010112 3.2412803,1.1312823 5.0707022 0 0 0.08165,0.00939 3.2412803,1.1312823 5.0707022 0 0 0.08217,0.00867 3.2412803,1.1312823 5.0707022 0 0 0.08216,0.00795 3.2412803,1.1312823 5.0707022 0 0 0.08217,0.00698 3.2412803,1.1312823 5.0707022 0 0 0.08216,0.0065 3.2412803,1.1312823 5.0707022 0 0 0.08217,0.00578 3.2412803,1.1312823 5.0707022 0 0 0.08216,0.00506 3.2412803,1.1312823 5.0707022 0 0 0.08217,0.0041 3.2412803,1.1312823 5.0707022 0 0 0.08165,0.00361 3.2412803,1.1312823 5.0707022 0 0 0.08165,0.00265 3.2412803,1.1312823 5.0707022 0 0 0.04858,0.0012 z"
       inkscape:connector-curvature="0" />
    <path
       style="fill:none;stroke:#000000;stroke-width:0.52979618;stroke-linecap:round;stroke-linejoin:miter;stroke-miterlimit:4;stroke-dasharray:none;stroke-opacity:1"
       d="M 14.446779,12.019643 H 19.90225"
       id="path64"
       inkscape:connector-curvature="0" />
    <path
       style="fill:none;stroke:#000000;stroke-width:0.76729167;stroke-linecap:round;stroke-linejoin:miter;stroke-miterlimit:4;stroke-dasharray:none;stroke-opacity:1"
       d="m 13.347284,10.51955 c 0.282827,0.125022 0.524511,0.341185 0.680191,0.608365 0.155679,0.267181 0.224568,0.584027 0.193879,0.891728 -0.02625,0.263183 -0.124675,0.518805 -0.28171,0.731629 -0.157036,0.212824 -0.372253,0.382271 -0.615983,0.484982"
       id="path4579"
       inkscape:connector-curvature="0"
       inkscape:path-effect="#path-effect4581"
       inkscape:original-d="m 13.347284,10.51955 c 0.291621,0.499766 0.582978,0.999797 0.87407,1.500093 0.291092,0.500296 -0.598198,0.810809 -0.897693,1.216611"
       transform="translate(0.23386083,0.06681738)" />
    <path
       inkscape:original-d="m 13.347284,10.51955 c 0.291621,0.499766 0.582978,0.999797 0.87407,1.500093 0.291092,0.500296 -0.598198,0.810809 -0.897693,1.216611"
       inkscape:path-effect="#path-effect4585"
       inkscape:connector-curvature="0"
       id="path4583"
       d="m 13.347284,10.51955 c 0.282827,0.125022 0.524511,0.341185 0.680191,0.608365 0.155679,0.267181 0.224568,0.584027 0.193879,0.891728 -0.02625,0.263183 -0.124675,0.518805 -0.28171,0.731629 -0.157036,0.212824 -0.372253,0.382271 -0.615983,0.484982"
       style="fill:none;stroke:#000000;stroke-width:0.76729167;stroke-linecap:round;stroke-linejoin:miter;stroke-miterlimit:4;stroke-dasharray:none;stroke-opacity:1"
       transform="matrix(-1,0,0,1,34.182087,0.01383833)" />
    <circle
       style="fill:none;stroke:#000000;stroke-width:0.37041667;stroke-linecap:round;stroke-miterlimit:4;stroke-dasharray:none"
       id="path4589"
       cx="28.515139"
       cy="9.3489132"
       r="1.6536458" />
    <ellipse
       style="fill:none;stroke:#000000;stroke-width:0.21560186;stroke-linecap:round;stroke-miterlimit:4;stroke-dasharray:none"
       id="path4589-8"
       cx="27.311604"
       cy="6.159029"
       rx="0.9459489"
       ry="0.9793576" />
    <circle
       style="fill:none;stroke:#000000;stroke-width:0.12814355;stroke-linecap:round;stroke-miterlimit:4;stroke-dasharray:none"
       id="path4589-6"
       cx="29.266012"
       cy="3.6366746"
       r="0.57206941" />
  </g>
</svg>
