<?xml version="1.0" encoding="UTF-8" standalone="no"?>
<svg
   xmlns:dc="http://purl.org/dc/elements/1.1/"
   xmlns:cc="http://creativecommons.org/ns#"
   xmlns:rdf="http://www.w3.org/1999/02/22-rdf-syntax-ns#"
   xmlns:svg="http://www.w3.org/2000/svg"
   xmlns="http://www.w3.org/2000/svg"
   xmlns:sodipodi="http://sodipodi.sourceforge.net/DTD/sodipodi-0.dtd"
   xmlns:inkscape="http://www.inkscape.org/namespaces/inkscape"
   width="128"
   height="64"
   viewBox="0 0 33.866666 16.933333"
   version="1.1"
   id="svg8"
   inkscape:version="0.92.4 (5da689c313, 2019-01-14)"
   sodipodi:docname="ze_encharcado_1.svg"
   inkscape:export-filename="C:\Users\Ari\Documents\GitHub\PI3_2022_1\imagens PI3\ze_frio_2.png"
   inkscape:export-xdpi="96"
   inkscape:export-ydpi="96">
  <defs
     id="defs2">
    <inkscape:path-effect
       is_visible="true"
       id="path-effect4585"
       effect="spiro" />
    <inkscape:path-effect
       effect="spiro"
       id="path-effect4581"
       is_visible="true" />
    <inkscape:path-effect
       effect="bspline"
       id="path-effect1163"
       is_visible="true"
       lpeversion="1"
       weight="33.333333"
       steps="2"
       helper_size="0"
       apply_no_weight="true"
       apply_with_weight="true"
       only_selected="false" />
    <inkscape:path-effect
       effect="bspline"
       id="path-effect1159"
       is_visible="true"
       lpeversion="1"
       weight="33.333333"
       steps="2"
       helper_size="0"
       apply_no_weight="true"
       apply_with_weight="true"
       only_selected="false" />
    <inkscape:path-effect
       effect="bspline"
       id="path-effect1120"
       is_visible="true"
       lpeversion="1"
       weight="33.333333"
       steps="2"
       helper_size="0"
       apply_no_weight="true"
       apply_with_weight="true"
       only_selected="false" />
    <inkscape:path-effect
       effect="bspline"
       id="path-effect1118"
       is_visible="true"
       lpeversion="1"
       weight="33.333333"
       steps="2"
       helper_size="0"
       apply_no_weight="true"
       apply_with_weight="true"
       only_selected="false" />
    <inkscape:path-effect
       effect="bspline"
       id="path-effect1116"
       is_visible="true"
       lpeversion="1"
       weight="33.333333"
       steps="2"
       helper_size="0"
       apply_no_weight="true"
       apply_with_weight="true"
       only_selected="false" />
    <inkscape:path-effect
       effect="bspline"
       id="path-effect1114"
       is_visible="true"
       lpeversion="1"
       weight="33.333333"
       steps="2"
       helper_size="0"
       apply_no_weight="true"
       apply_with_weight="true"
       only_selected="false" />
    <inkscape:path-effect
       effect="bspline"
       id="path-effect1112"
       is_visible="true"
       lpeversion="1"
       weight="33.333333"
       steps="2"
       helper_size="0"
       apply_no_weight="true"
       apply_with_weight="true"
       only_selected="false" />
    <inkscape:path-effect
       effect="bspline"
       id="path-effect852"
       is_visible="true"
       lpeversion="1"
       weight="33.333333"
       steps="2"
       helper_size="0"
       apply_no_weight="true"
       apply_with_weight="true"
       only_selected="false" />
    <inkscape:path-effect
       effect="bspline"
       id="path-effect843"
       is_visible="true"
       lpeversion="1"
       weight="33.333333"
       steps="2"
       helper_size="0"
       apply_no_weight="true"
       apply_with_weight="true"
       only_selected="false" />
    <inkscape:path-effect
       effect="bspline"
       id="path-effect835"
       is_visible="true"
       lpeversion="1"
       weight="33.333333"
       steps="2"
       helper_size="0"
       apply_no_weight="true"
       apply_with_weight="true"
       only_selected="false" />
    <inkscape:path-effect
       effect="bspline"
       id="path-effect850"
       is_visible="true"
       lpeversion="1"
       weight="33.333333"
       steps="2"
       helper_size="0"
       apply_no_weight="true"
       apply_with_weight="true"
       only_selected="false" />
    <inkscape:path-effect
       effect="bspline"
       id="path-effect854"
       is_visible="true"
       lpeversion="1"
       weight="33.333333"
       steps="2"
       helper_size="0"
       apply_no_weight="true"
       apply_with_weight="true"
       only_selected="false" />
    <inkscape:path-effect
       effect="bspline"
       id="path-effect858"
       is_visible="true"
       lpeversion="1"
       weight="33.333333"
       steps="2"
       helper_size="0"
       apply_no_weight="true"
       apply_with_weight="true"
       only_selected="false" />
    <inkscape:path-effect
       effect="bspline"
       id="path-effect863"
       is_visible="true"
       lpeversion="1"
       weight="33.333333"
       steps="2"
       helper_size="0"
       apply_no_weight="true"
       apply_with_weight="true"
       only_selected="false" />
    <inkscape:path-effect
       effect="bspline"
       id="path-effect880"
       is_visible="true"
       lpeversion="1"
       weight="33.333333"
       steps="2"
       helper_size="0"
       apply_no_weight="true"
       apply_with_weight="true"
       only_selected="false" />
    <inkscape:path-effect
       effect="bspline"
       id="path-effect884"
       is_visible="true"
       lpeversion="1"
       weight="33.333333"
       steps="2"
       helper_size="0"
       apply_no_weight="true"
       apply_with_weight="true"
       only_selected="false" />
    <inkscape:path-effect
       effect="bspline"
       id="path-effect896"
       is_visible="true"
       lpeversion="1"
       weight="33.333333"
       steps="2"
       helper_size="0"
       apply_no_weight="true"
       apply_with_weight="true"
       only_selected="false" />
    <inkscape:path-effect
       effect="bspline"
       id="path-effect898"
       is_visible="true"
       lpeversion="1"
       weight="33.333333"
       steps="2"
       helper_size="0"
       apply_no_weight="true"
       apply_with_weight="true"
       only_selected="false" />
    <inkscape:path-effect
       effect="bspline"
       id="path-effect906"
       is_visible="true"
       lpeversion="1"
       weight="33.333333"
       steps="2"
       helper_size="0"
       apply_no_weight="true"
       apply_with_weight="true"
       only_selected="false" />
    <inkscape:path-effect
       effect="bspline"
       id="path-effect908"
       is_visible="true"
       lpeversion="1"
       weight="33.333333"
       steps="2"
       helper_size="0"
       apply_no_weight="true"
       apply_with_weight="true"
       only_selected="false" />
    <inkscape:path-effect
       effect="bspline"
       id="path-effect916"
       is_visible="true"
       lpeversion="1"
       weight="33.333333"
       steps="2"
       helper_size="0"
       apply_no_weight="true"
       apply_with_weight="true"
       only_selected="false" />
    <inkscape:path-effect
       effect="bspline"
       id="path-effect918"
       is_visible="true"
       lpeversion="1"
       weight="33.333333"
       steps="2"
       helper_size="0"
       apply_no_weight="true"
       apply_with_weight="true"
       only_selected="false" />
    <inkscape:path-effect
       effect="bspline"
       id="path-effect926"
       is_visible="true"
       lpeversion="1"
       weight="33.333333"
       steps="2"
       helper_size="0"
       apply_no_weight="true"
       apply_with_weight="true"
       only_selected="false" />
    <inkscape:path-effect
       effect="bspline"
       id="path-effect928"
       is_visible="true"
       lpeversion="1"
       weight="33.333333"
       steps="2"
       helper_size="0"
       apply_no_weight="true"
       apply_with_weight="true"
       only_selected="false" />
    <inkscape:path-effect
       effect="bspline"
       id="path-effect936"
       is_visible="true"
       lpeversion="1"
       weight="33.333333"
       steps="2"
       helper_size="0"
       apply_no_weight="true"
       apply_with_weight="true"
       only_selected="false" />
    <inkscape:path-effect
       effect="bspline"
       id="path-effect938"
       is_visible="true"
       lpeversion="1"
       weight="33.333333"
       steps="2"
       helper_size="0"
       apply_no_weight="true"
       apply_with_weight="true"
       only_selected="false" />
  </defs>
  <sodipodi:namedview
     id="base"
     pagecolor="#ffffff"
     bordercolor="#666666"
     borderopacity="1.0"
     inkscape:pageopacity="0.0"
     inkscape:pageshadow="2"
     inkscape:zoom="7.9195959"
     inkscape:cx="56.084893"
     inkscape:cy="31.460985"
     inkscape:document-units="px"
     inkscape:current-layer="layer1"
     inkscape:document-rotation="0"
     showgrid="false"
     units="px"
     inkscape:window-width="1600"
     inkscape:window-height="838"
     inkscape:window-x="-8"
     inkscape:window-y="-8"
     inkscape:window-maximized="1"
     showguides="false">
    <inkscape:grid
       type="xygrid"
       id="grid864" />
  </sodipodi:namedview>
  <metadata
     id="metadata5">
    <rdf:RDF>
      <cc:Work
         rdf:about="">
        <dc:format>image/svg+xml</dc:format>
        <dc:type
           rdf:resource="http://purl.org/dc/dcmitype/StillImage" />
        <dc:title></dc:title>
      </cc:Work>
    </rdf:RDF>
  </metadata>
  <g
     inkscape:label="Layer 1"
     inkscape:groupmode="layer"
     id="layer1">
    <rect
       style="fill:#ffffff;fill-rule:evenodd;stroke-width:0.264583"
       id="rect1179"
       width="33.866665"
       height="16.933332"
       x="5.567627e-07"
       y="2.7838135e-07"
       sodipodi:insensitive="true" />
    <path
       id="path860"
       style="fill:#000000;fill-rule:evenodd;stroke-width:0.264583"
       d="m 10.081711,5.029932 a 1.4699824,2.1715648 0 0 0 -0.09043,0.7482747 1.4699824,2.1715648 0 0 0 1.470194,2.1719603 1.4699824,2.1715648 0 0 0 1.469678,-2.1719603 1.4699824,2.1715648 0 0 0 -0.462504,-1.5812989 2.366175,3.326018 70.172737 0 1 -0.02222,0.01602 2.366175,3.326018 70.172737 0 1 -0.0677,0.046509 2.366175,3.326018 70.172737 0 1 -0.06873,0.045475 2.366175,3.326018 70.172737 0 1 -0.06976,0.044442 2.366175,3.326018 70.172737 0 1 -0.04961,0.030489 2.366175,3.326018 70.172737 0 1 -0.07183,0.041858 2.366175,3.326018 70.172737 0 1 -0.07235,0.041341 2.366175,3.326018 70.172737 0 1 -0.0739,0.039791 2.366175,3.326018 70.172737 0 1 -0.07441,0.038758 2.366175,3.326018 70.172737 0 1 -0.07545,0.037207 2.366175,3.326018 70.172737 0 1 -0.07648,0.036173 2.366175,3.326018 70.172737 0 1 -0.077,0.034623 2.366175,3.326018 70.172737 0 1 -0.07752,0.033073 2.366175,3.326018 70.172737 0 1 -0.07855,0.03204 2.366175,3.326018 70.172737 0 1 -0.07906,0.030489 2.366175,3.326018 70.172737 0 1 -0.07958,0.028939 2.366175,3.326018 70.172737 0 1 -0.0801,0.027388 2.366175,3.326018 70.172737 0 1 -0.0801,0.026355 2.366175,3.326018 70.172737 0 1 -0.08113,0.024289 2.366175,3.326018 70.172737 0 1 -0.08113,0.023254 2.366175,3.326018 70.172737 0 1 -0.08165,0.021704 2.366175,3.326018 70.172737 0 1 -0.08165,0.020153 2.366175,3.326018 70.172737 0 1 -0.08216,0.018603 2.366175,3.326018 70.172737 0 1 -0.08217,0.017052 2.366175,3.326018 70.172737 0 1 -0.08217,0.014986 2.366175,3.326018 70.172737 0 1 -0.08217,0.013952 2.366175,3.326018 70.172737 0 1 -0.08217,0.012401 2.366175,3.326018 70.172737 0 1 -0.08217,0.010853 2.366175,3.326018 70.172737 0 1 -0.08217,0.00878 2.366175,3.326018 70.172737 0 1 -0.08165,0.00775 2.366175,3.326018 70.172737 0 1 -0.08165,0.00568 2.366175,3.326018 70.172737 0 1 -0.04858,0.00259 z" />
    <path
       id="path870"
       style="fill:#000000;fill-rule:evenodd;stroke-width:0.264583"
       d="m 23.742975,4.9590614 a 1.4699824,2.1715648 0 0 1 0.09043,0.7482747 1.4699824,2.1715648 0 0 1 -1.470195,2.1719603 1.4699824,2.1715648 0 0 1 -1.469677,-2.1719603 1.4699824,2.1715648 0 0 1 0.462504,-1.5812989 3.326018,2.366175 19.827263 0 0 0.02222,0.01602 3.326018,2.366175 19.827263 0 0 0.0677,0.046509 3.326018,2.366175 19.827263 0 0 0.06873,0.045475 3.326018,2.366175 19.827263 0 0 0.06976,0.044442 3.326018,2.366175 19.827263 0 0 0.04961,0.030489 3.326018,2.366175 19.827263 0 0 0.07183,0.041858 3.326018,2.366175 19.827263 0 0 0.07235,0.041341 3.326018,2.366175 19.827263 0 0 0.0739,0.039791 3.326018,2.366175 19.827263 0 0 0.07441,0.038758 3.326018,2.366175 19.827263 0 0 0.07545,0.037207 3.326018,2.366175 19.827263 0 0 0.07648,0.036173 3.326018,2.366175 19.827263 0 0 0.077,0.034623 3.326018,2.366175 19.827263 0 0 0.07751,0.033073 3.326018,2.366175 19.827263 0 0 0.07855,0.032039 3.326018,2.366175 19.827263 0 0 0.07906,0.030489 3.326018,2.366175 19.827263 0 0 0.07958,0.028939 3.326018,2.366175 19.827263 0 0 0.0801,0.027388 3.326018,2.366175 19.827263 0 0 0.0801,0.026355 3.326018,2.366175 19.827263 0 0 0.08113,0.024288 3.326018,2.366175 19.827263 0 0 0.08113,0.023254 3.326018,2.366175 19.827263 0 0 0.08165,0.021704 3.326018,2.366175 19.827263 0 0 0.08165,0.020154 3.326018,2.366175 19.827263 0 0 0.08217,0.018604 3.326018,2.366175 19.827263 0 0 0.08216,0.017053 3.326018,2.366175 19.827263 0 0 0.08217,0.014986 3.326018,2.366175 19.827263 0 0 0.08216,0.013953 3.326018,2.366175 19.827263 0 0 0.08217,0.012402 3.326018,2.366175 19.827263 0 0 0.08216,0.010852 3.326018,2.366175 19.827263 0 0 0.08217,0.00879 3.326018,2.366175 19.827263 0 0 0.08165,0.00775 3.326018,2.366175 19.827263 0 0 0.08165,0.00568 3.326018,2.366175 19.827263 0 0 0.04858,0.00258 z" />
    <path
       style="fill:none;stroke:#000000;stroke-width:0.55562499;stroke-linecap:round;stroke-linejoin:miter;stroke-opacity:1;stroke-miterlimit:4;stroke-dasharray:none"
       d="m 14.221354,12.019643 h 6.000372"
       id="path64"
       inkscape:connector-curvature="0" />
    <path
       style="fill:none;stroke:#000000;stroke-width:0.76729165;stroke-linecap:round;stroke-linejoin:miter;stroke-opacity:1;stroke-miterlimit:4;stroke-dasharray:none"
       d="m 13.347284,10.51955 c 0.282827,0.125022 0.524511,0.341185 0.680191,0.608365 0.155679,0.267181 0.224568,0.584027 0.193879,0.891728 -0.02625,0.263183 -0.124675,0.518805 -0.28171,0.731629 -0.157036,0.212824 -0.372253,0.382271 -0.615983,0.484982"
       id="path4579"
       inkscape:connector-curvature="0"
       inkscape:path-effect="#path-effect4581"
       inkscape:original-d="m 13.347284,10.51955 c 0.291621,0.499766 0.582978,0.999797 0.87407,1.500093 0.291092,0.500296 -0.598198,0.810809 -0.897693,1.216611" />
    <path
       inkscape:original-d="m 13.347284,10.51955 c 0.291621,0.499766 0.582978,0.999797 0.87407,1.500093 0.291092,0.500296 -0.598198,0.810809 -0.897693,1.216611"
       inkscape:path-effect="#path-effect4585"
       inkscape:connector-curvature="0"
       id="path4583"
       d="m 13.347284,10.51955 c 0.282827,0.125022 0.524511,0.341185 0.680191,0.608365 0.155679,0.267181 0.224568,0.584027 0.193879,0.891728 -0.02625,0.263183 -0.124675,0.518805 -0.28171,0.731629 -0.157036,0.212824 -0.372253,0.382271 -0.615983,0.484982"
       style="fill:none;stroke:#000000;stroke-width:0.76729167;stroke-linecap:round;stroke-linejoin:miter;stroke-miterlimit:4;stroke-dasharray:none;stroke-opacity:1"
       transform="matrix(-1,0,0,1,34.516174,0.04724702)" />
    <circle
       style="fill:none;stroke:#000000;stroke-width:0.37041667;stroke-linecap:round;stroke-miterlimit:4;stroke-dasharray:none"
       id="path4589"
       cx="25.608583"
       cy="11.587296"
       r="1.6536458" />
    <ellipse
       style="fill:none;stroke:#000000;stroke-width:0.21560186;stroke-linecap:round;stroke-miterlimit:4;stroke-dasharray:none"
       id="path4589-8"
       cx="26.476387"
       cy="8.2637768"
       rx="0.9459489"
       ry="0.9793576" />
    <circle
       style="fill:none;stroke:#000000;stroke-width:0.12814355;stroke-linecap:round;stroke-miterlimit:4;stroke-dasharray:none"
       id="path4589-6"
       cx="28.764883"
       cy="8.5143433"
       r="0.57206941" />
  </g>
</svg>
