<?xml version="1.0" encoding="UTF-8" standalone="no"?>
<svg
   xmlns:dc="http://purl.org/dc/elements/1.1/"
   xmlns:cc="http://creativecommons.org/ns#"
   xmlns:rdf="http://www.w3.org/1999/02/22-rdf-syntax-ns#"
   xmlns:svg="http://www.w3.org/2000/svg"
   xmlns="http://www.w3.org/2000/svg"
   xmlns:sodipodi="http://sodipodi.sourceforge.net/DTD/sodipodi-0.dtd"
   xmlns:inkscape="http://www.inkscape.org/namespaces/inkscape"
   width="128"
   height="64"
   viewBox="0 0 33.866666 16.933333"
   version="1.1"
   id="svg8"
   inkscape:version="1.0.2-2 (e86c870879, 2021-01-15)"
   sodipodi:docname="ze_frio_1.svg"
   inkscape:export-filename="C:\Users\Ari\Documents\GitHub\PI3_2022_1\imagens PI3\ze_frio_1.png"
   inkscape:export-xdpi="96"
   inkscape:export-ydpi="96">
  <defs
     id="defs2">
    <inkscape:path-effect
       effect="bspline"
       id="path-effect1120"
       is_visible="true"
       lpeversion="1"
       weight="33.333333"
       steps="2"
       helper_size="0"
       apply_no_weight="true"
       apply_with_weight="true"
       only_selected="false" />
    <inkscape:path-effect
       effect="bspline"
       id="path-effect1118"
       is_visible="true"
       lpeversion="1"
       weight="33.333333"
       steps="2"
       helper_size="0"
       apply_no_weight="true"
       apply_with_weight="true"
       only_selected="false" />
    <inkscape:path-effect
       effect="bspline"
       id="path-effect1116"
       is_visible="true"
       lpeversion="1"
       weight="33.333333"
       steps="2"
       helper_size="0"
       apply_no_weight="true"
       apply_with_weight="true"
       only_selected="false" />
    <inkscape:path-effect
       effect="bspline"
       id="path-effect1114"
       is_visible="true"
       lpeversion="1"
       weight="33.333333"
       steps="2"
       helper_size="0"
       apply_no_weight="true"
       apply_with_weight="true"
       only_selected="false" />
    <inkscape:path-effect
       effect="bspline"
       id="path-effect1112"
       is_visible="true"
       lpeversion="1"
       weight="33.333333"
       steps="2"
       helper_size="0"
       apply_no_weight="true"
       apply_with_weight="true"
       only_selected="false" />
    <inkscape:path-effect
       effect="bspline"
       id="path-effect852"
       is_visible="true"
       lpeversion="1"
       weight="33.333333"
       steps="2"
       helper_size="0"
       apply_no_weight="true"
       apply_with_weight="true"
       only_selected="false" />
    <inkscape:path-effect
       effect="bspline"
       id="path-effect843"
       is_visible="true"
       lpeversion="1"
       weight="33.333333"
       steps="2"
       helper_size="0"
       apply_no_weight="true"
       apply_with_weight="true"
       only_selected="false" />
    <inkscape:path-effect
       effect="bspline"
       id="path-effect835"
       is_visible="true"
       lpeversion="1"
       weight="33.333333"
       steps="2"
       helper_size="0"
       apply_no_weight="true"
       apply_with_weight="true"
       only_selected="false" />
    <inkscape:path-effect
       effect="bspline"
       id="path-effect850"
       is_visible="true"
       lpeversion="1"
       weight="33.333333"
       steps="2"
       helper_size="0"
       apply_no_weight="true"
       apply_with_weight="true"
       only_selected="false" />
    <inkscape:path-effect
       effect="bspline"
       id="path-effect854"
       is_visible="true"
       lpeversion="1"
       weight="33.333333"
       steps="2"
       helper_size="0"
       apply_no_weight="true"
       apply_with_weight="true"
       only_selected="false" />
    <inkscape:path-effect
       effect="bspline"
       id="path-effect858"
       is_visible="true"
       lpeversion="1"
       weight="33.333333"
       steps="2"
       helper_size="0"
       apply_no_weight="true"
       apply_with_weight="true"
       only_selected="false" />
    <inkscape:path-effect
       effect="bspline"
       id="path-effect863"
       is_visible="true"
       lpeversion="1"
       weight="33.333333"
       steps="2"
       helper_size="0"
       apply_no_weight="true"
       apply_with_weight="true"
       only_selected="false" />
    <inkscape:path-effect
       effect="bspline"
       id="path-effect880"
       is_visible="true"
       lpeversion="1"
       weight="33.333333"
       steps="2"
       helper_size="0"
       apply_no_weight="true"
       apply_with_weight="true"
       only_selected="false" />
    <inkscape:path-effect
       effect="bspline"
       id="path-effect884"
       is_visible="true"
       lpeversion="1"
       weight="33.333333"
       steps="2"
       helper_size="0"
       apply_no_weight="true"
       apply_with_weight="true"
       only_selected="false" />
    <inkscape:path-effect
       effect="bspline"
       id="path-effect896"
       is_visible="true"
       lpeversion="1"
       weight="33.333333"
       steps="2"
       helper_size="0"
       apply_no_weight="true"
       apply_with_weight="true"
       only_selected="false" />
    <inkscape:path-effect
       effect="bspline"
       id="path-effect898"
       is_visible="true"
       lpeversion="1"
       weight="33.333333"
       steps="2"
       helper_size="0"
       apply_no_weight="true"
       apply_with_weight="true"
       only_selected="false" />
    <inkscape:path-effect
       effect="bspline"
       id="path-effect906"
       is_visible="true"
       lpeversion="1"
       weight="33.333333"
       steps="2"
       helper_size="0"
       apply_no_weight="true"
       apply_with_weight="true"
       only_selected="false" />
    <inkscape:path-effect
       effect="bspline"
       id="path-effect908"
       is_visible="true"
       lpeversion="1"
       weight="33.333333"
       steps="2"
       helper_size="0"
       apply_no_weight="true"
       apply_with_weight="true"
       only_selected="false" />
    <inkscape:path-effect
       effect="bspline"
       id="path-effect916"
       is_visible="true"
       lpeversion="1"
       weight="33.333333"
       steps="2"
       helper_size="0"
       apply_no_weight="true"
       apply_with_weight="true"
       only_selected="false" />
    <inkscape:path-effect
       effect="bspline"
       id="path-effect918"
       is_visible="true"
       lpeversion="1"
       weight="33.333333"
       steps="2"
       helper_size="0"
       apply_no_weight="true"
       apply_with_weight="true"
       only_selected="false" />
    <inkscape:path-effect
       effect="bspline"
       id="path-effect926"
       is_visible="true"
       lpeversion="1"
       weight="33.333333"
       steps="2"
       helper_size="0"
       apply_no_weight="true"
       apply_with_weight="true"
       only_selected="false" />
    <inkscape:path-effect
       effect="bspline"
       id="path-effect928"
       is_visible="true"
       lpeversion="1"
       weight="33.333333"
       steps="2"
       helper_size="0"
       apply_no_weight="true"
       apply_with_weight="true"
       only_selected="false" />
    <inkscape:path-effect
       effect="bspline"
       id="path-effect936"
       is_visible="true"
       lpeversion="1"
       weight="33.333333"
       steps="2"
       helper_size="0"
       apply_no_weight="true"
       apply_with_weight="true"
       only_selected="false" />
    <inkscape:path-effect
       effect="bspline"
       id="path-effect938"
       is_visible="true"
       lpeversion="1"
       weight="33.333333"
       steps="2"
       helper_size="0"
       apply_no_weight="true"
       apply_with_weight="true"
       only_selected="false" />
  </defs>
  <sodipodi:namedview
     id="base"
     pagecolor="#ffffff"
     bordercolor="#666666"
     borderopacity="1.0"
     inkscape:pageopacity="0.0"
     inkscape:pageshadow="2"
     inkscape:zoom="3.959798"
     inkscape:cx="35.377256"
     inkscape:cy="4.5100133"
     inkscape:document-units="px"
     inkscape:current-layer="layer1"
     inkscape:document-rotation="0"
     showgrid="false"
     units="px"
     inkscape:window-width="1366"
     inkscape:window-height="705"
     inkscape:window-x="-8"
     inkscape:window-y="-8"
     inkscape:window-maximized="1">
    <inkscape:grid
       type="xygrid"
       id="grid864" />
  </sodipodi:namedview>
  <metadata
     id="metadata5">
    <rdf:RDF>
      <cc:Work
         rdf:about="">
        <dc:format>image/svg+xml</dc:format>
        <dc:type
           rdf:resource="http://purl.org/dc/dcmitype/StillImage" />
        <dc:title />
      </cc:Work>
    </rdf:RDF>
  </metadata>
  <g
     inkscape:label="Layer 1"
     inkscape:groupmode="layer"
     id="layer1">
    <rect
       style="fill:#ffffff;fill-rule:evenodd;stroke-width:0.264583"
       id="rect14"
       width="33.866665"
       height="16.933332"
       x="5.567627e-07"
       y="2.7838135e-07"
       sodipodi:insensitive="true" />
    <path
       id="path860"
       style="fill:#000000;fill-rule:evenodd;stroke-width:0.264583"
       d="m 10.176205,5.0063085 a 1.4699824,2.1715648 0 0 0 -0.09043,0.7482747 1.4699824,2.1715648 0 0 0 1.470194,2.1719603 1.4699824,2.1715648 0 0 0 1.469678,-2.1719603 1.4699824,2.1715648 0 0 0 -0.462504,-1.5812989 2.366175,3.326018 70.172737 0 1 -0.02222,0.01602 2.366175,3.326018 70.172737 0 1 -0.0677,0.046509 2.366175,3.326018 70.172737 0 1 -0.06873,0.045475 2.366175,3.326018 70.172737 0 1 -0.06976,0.044442 2.366175,3.326018 70.172737 0 1 -0.04961,0.030489 2.366175,3.326018 70.172737 0 1 -0.07183,0.041858 2.366175,3.326018 70.172737 0 1 -0.07235,0.041341 2.366175,3.326018 70.172737 0 1 -0.0739,0.039791 2.366175,3.326018 70.172737 0 1 -0.07441,0.038758 2.366175,3.326018 70.172737 0 1 -0.07545,0.037207 2.366175,3.326018 70.172737 0 1 -0.07648,0.036173 2.366175,3.326018 70.172737 0 1 -0.077,0.034623 2.366175,3.326018 70.172737 0 1 -0.07752,0.033073 2.366175,3.326018 70.172737 0 1 -0.07855,0.03204 2.366175,3.326018 70.172737 0 1 -0.07906,0.030489 2.366175,3.326018 70.172737 0 1 -0.07958,0.028939 2.366175,3.326018 70.172737 0 1 -0.0801,0.027388 2.366175,3.326018 70.172737 0 1 -0.0801,0.026355 2.366175,3.326018 70.172737 0 1 -0.08113,0.024289 2.366175,3.326018 70.172737 0 1 -0.08113,0.023254 2.366175,3.326018 70.172737 0 1 -0.08165,0.021704 2.366175,3.326018 70.172737 0 1 -0.08165,0.020153 2.366175,3.326018 70.172737 0 1 -0.08216,0.018603 2.366175,3.326018 70.172737 0 1 -0.08217,0.017052 2.366175,3.326018 70.172737 0 1 -0.08217,0.014986 2.366175,3.326018 70.172737 0 1 -0.08217,0.013952 2.366175,3.326018 70.172737 0 1 -0.08217,0.012401 2.366175,3.326018 70.172737 0 1 -0.08217,0.010853 2.366175,3.326018 70.172737 0 1 -0.08217,0.00878 2.366175,3.326018 70.172737 0 1 -0.08165,0.00775 2.366175,3.326018 70.172737 0 1 -0.08165,0.00568 2.366175,3.326018 70.172737 0 1 -0.04858,0.00259 z" />
    <g
       id="g1155"
       transform="translate(-0.42161552)"
       inkscape:export-xdpi="96"
       inkscape:export-ydpi="96">
      <rect
         style="fill:#ffffff;fill-rule:evenodd;stroke:#000000;stroke-width:0.462027;stroke-linecap:round;stroke-linejoin:round;stroke-miterlimit:4;stroke-dasharray:none"
         id="rect842"
         width="10.63058"
         height="2.6732483"
         x="12.039659"
         y="10.804304"
         ry="1.1537174"
         rx="0" />
      <path
         style="fill:none;stroke:#000000;stroke-width:0.264583px;stroke-linecap:butt;stroke-linejoin:miter;stroke-opacity:1"
         d="m 12.12377,12.035633 c 3.519313,0 7.038362,0 10.557146,0"
         id="path848"
         inkscape:path-effect="#path-effect1112"
         inkscape:original-d="m 12.12377,12.035633 c 3.519313,2.64e-4 7.038362,2.64e-4 10.557146,0" />
      <path
         style="fill:none;stroke:#000000;stroke-width:0.264583px;stroke-linecap:butt;stroke-linejoin:miter;stroke-opacity:1"
         d="m 17.368935,10.899737 c -0.01114,0.857751 -0.02228,1.715241 -0.03341,2.572469"
         id="path852"
         inkscape:path-effect="#path-effect1114"
         inkscape:original-d="m 17.368935,10.899737 c -0.01087,0.857755 -0.02201,1.715244 -0.03341,2.572469" />
      <path
         style="fill:none;stroke:#000000;stroke-width:0.264583px;stroke-linecap:butt;stroke-linejoin:miter;stroke-opacity:1"
         d="m 14.955458,10.898233 c -0.01691,0.847606 -0.03382,1.694962 -0.05072,2.542068"
         id="path856"
         inkscape:path-effect="#path-effect1116"
         inkscape:original-d="m 14.955458,10.898233 c -0.01663,0.847612 -0.03353,1.694968 -0.05072,2.542068" />
      <path
         style="fill:none;stroke:#000000;stroke-width:0.264583px;stroke-linecap:butt;stroke-linejoin:miter;stroke-opacity:1"
         d="m 19.791065,10.782807 c 0,0.902299 0,1.804333 0,2.706103"
         id="path861"
         inkscape:path-effect="#path-effect1118"
         inkscape:original-d="m 19.791065,10.782807 c 2.64e-4,0.902299 2.64e-4,1.804333 0,2.706103" />
    </g>
    <path
       id="path870"
       style="fill:#000000;fill-rule:evenodd;stroke-width:0.264583"
       d="m 23.837469,4.9354379 a 1.4699824,2.1715648 0 0 1 0.09043,0.7482747 1.4699824,2.1715648 0 0 1 -1.470195,2.1719603 1.4699824,2.1715648 0 0 1 -1.469677,-2.1719603 1.4699824,2.1715648 0 0 1 0.462504,-1.5812989 3.326018,2.366175 19.827263 0 0 0.02222,0.01602 3.326018,2.366175 19.827263 0 0 0.0677,0.046509 3.326018,2.366175 19.827263 0 0 0.06873,0.045475 3.326018,2.366175 19.827263 0 0 0.06976,0.044442 3.326018,2.366175 19.827263 0 0 0.04961,0.030489 3.326018,2.366175 19.827263 0 0 0.07183,0.041858 3.326018,2.366175 19.827263 0 0 0.07235,0.041341 3.326018,2.366175 19.827263 0 0 0.0739,0.039791 3.326018,2.366175 19.827263 0 0 0.07441,0.038758 3.326018,2.366175 19.827263 0 0 0.07545,0.037207 3.326018,2.366175 19.827263 0 0 0.07648,0.036173 3.326018,2.366175 19.827263 0 0 0.077,0.034623 3.326018,2.366175 19.827263 0 0 0.07751,0.033073 3.326018,2.366175 19.827263 0 0 0.07855,0.032039 3.326018,2.366175 19.827263 0 0 0.07906,0.030489 3.326018,2.366175 19.827263 0 0 0.07958,0.028939 3.326018,2.366175 19.827263 0 0 0.0801,0.027388 3.326018,2.366175 19.827263 0 0 0.0801,0.026355 3.326018,2.366175 19.827263 0 0 0.08113,0.024288 3.326018,2.366175 19.827263 0 0 0.08113,0.023254 3.326018,2.366175 19.827263 0 0 0.08165,0.021704 3.326018,2.366175 19.827263 0 0 0.08165,0.020154 3.326018,2.366175 19.827263 0 0 0.08217,0.018604 3.326018,2.366175 19.827263 0 0 0.08216,0.017053 3.326018,2.366175 19.827263 0 0 0.08217,0.014986 3.326018,2.366175 19.827263 0 0 0.08216,0.013953 3.326018,2.366175 19.827263 0 0 0.08217,0.012402 3.326018,2.366175 19.827263 0 0 0.08216,0.010852 3.326018,2.366175 19.827263 0 0 0.08217,0.00879 3.326018,2.366175 19.827263 0 0 0.08165,0.00775 3.326018,2.366175 19.827263 0 0 0.08165,0.00568 3.326018,2.366175 19.827263 0 0 0.04858,0.00258 z" />
    <g
       id="g962"
       transform="translate(20.242082,-1.0271648)">
      <path
         sodipodi:type="star"
         style="fill:#000000;fill-rule:evenodd;stroke-width:0.264583"
         id="path872"
         sodipodi:sides="6"
         sodipodi:cx="6.4432831"
         sodipodi:cy="3.3904059"
         sodipodi:r1="2.5469606"
         sodipodi:r2="0.40751371"
         sodipodi:arg1="0.86418212"
         sodipodi:arg2="1.3877809"
         inkscape:flatsided="false"
         inkscape:rounded="0.03"
         inkscape:randomized="0"
         inkscape:transform-center-x="0.44429549"
         inkscape:transform-center-y="-0.23713887"
         d="M 8.0969288,5.3275337 C 8.046652,5.3704529 6.5824493,3.7790831 6.5174487,3.7911139 6.4524482,3.8031446 5.6548115,5.8131503 5.592504,5.791069 5.5301966,5.7689876 6.1762618,3.705266 6.1333426,3.6549892 6.0904234,3.6047125 3.9508891,3.9189417 3.9388583,3.8539412 3.9268276,3.7889406 6.0370956,3.3165887 6.059177,3.2542812 6.0812583,3.1919738 4.7393606,1.4961973 4.7896374,1.4532781 c 0.050277,-0.042919 1.5144795,1.5484505 1.57948,1.5364198 0.065001,-0.012031 0.8626372,-2.02203646 0.9249447,-1.9999551 0.062308,0.0220814 -0.5837577,2.085803 -0.5408386,2.1360798 0.042919,0.050277 2.1824536,-0.2639525 2.1944843,-0.198952 0.012031,0.065001 -2.0982373,0.5373525 -2.1203186,0.5996599 -0.022081,0.062308 1.3198163,1.758084 1.2695396,1.8010032 z" />
      <g
         id="g888">
        <path
           style="fill:none;stroke:#000000;stroke-width:0.105833;stroke-linecap:round;stroke-linejoin:miter;stroke-miterlimit:4;stroke-dasharray:none;stroke-opacity:1"
           d="M 6.9323031,1.9042953 C 6.8711162,1.6039229 6.809867,1.3032447 6.7485555,1.0022607"
           id="path878"
           inkscape:path-effect="#path-effect1120"
           inkscape:original-d="M 6.9323031,1.9042953 C 6.8713185,1.6038817 6.8100693,1.3032035 6.7485555,1.0022607" />
        <path
           style="fill:none;stroke:#000000;stroke-width:0.105833;stroke-linecap:round;stroke-linejoin:miter;stroke-miterlimit:4;stroke-dasharray:none;stroke-opacity:1"
           d="M 7.7180013,1.4245995 C 7.4563682,1.5843355 7.1944689,1.7442341 6.9323031,1.9042953"
           id="path882"
           inkscape:path-effect="#path-effect884"
           inkscape:original-d="M 7.7180013,1.4245995 C 7.4564756,1.5845114 7.1945765,1.7444103 6.9323031,1.9042953" />
      </g>
      <g
         id="g894"
         transform="rotate(54.602965,6.3542421,3.5881867)">
        <path
           style="fill:none;stroke:#000000;stroke-width:0.105833;stroke-linecap:round;stroke-linejoin:miter;stroke-miterlimit:4;stroke-dasharray:none;stroke-opacity:1"
           d="M 6.9323031,1.9042953 C 6.8711162,1.6039229 6.809867,1.3032447 6.7485555,1.0022607"
           id="path890"
           inkscape:path-effect="#path-effect896"
           inkscape:original-d="M 6.9323031,1.9042953 C 6.8713185,1.6038817 6.8100693,1.3032035 6.7485555,1.0022607" />
        <path
           style="fill:none;stroke:#000000;stroke-width:0.105833;stroke-linecap:round;stroke-linejoin:miter;stroke-miterlimit:4;stroke-dasharray:none;stroke-opacity:1"
           d="M 7.7180013,1.4245995 C 7.4563682,1.5843355 7.1944689,1.7442341 6.9323031,1.9042953"
           id="path892"
           inkscape:path-effect="#path-effect898"
           inkscape:original-d="M 7.7180013,1.4245995 C 7.4564756,1.5845114 7.1945765,1.7444103 6.9323031,1.9042953" />
      </g>
      <g
         id="g904"
         transform="rotate(-56.140651,6.4902007,3.4510963)">
        <path
           style="fill:none;stroke:#000000;stroke-width:0.105833;stroke-linecap:round;stroke-linejoin:miter;stroke-miterlimit:4;stroke-dasharray:none;stroke-opacity:1"
           d="M 6.9323031,1.9042953 C 6.8711162,1.6039229 6.809867,1.3032447 6.7485555,1.0022607"
           id="path900"
           inkscape:path-effect="#path-effect906"
           inkscape:original-d="M 6.9323031,1.9042953 C 6.8713185,1.6038817 6.8100693,1.3032035 6.7485555,1.0022607" />
        <path
           style="fill:none;stroke:#000000;stroke-width:0.105833;stroke-linecap:round;stroke-linejoin:miter;stroke-miterlimit:4;stroke-dasharray:none;stroke-opacity:1"
           d="M 7.7180013,1.4245995 C 7.4563682,1.5843355 7.1944689,1.7442341 6.9323031,1.9042953"
           id="path902"
           inkscape:path-effect="#path-effect908"
           inkscape:original-d="M 7.7180013,1.4245995 C 7.4564756,1.5845114 7.1945765,1.7444103 6.9323031,1.9042953" />
      </g>
      <g
         id="g914"
         transform="rotate(-132.25823,6.3284787,3.2126806)">
        <path
           style="fill:none;stroke:#000000;stroke-width:0.105833;stroke-linecap:round;stroke-linejoin:miter;stroke-miterlimit:4;stroke-dasharray:none;stroke-opacity:1"
           d="M 6.9323031,1.9042953 C 6.8711162,1.6039229 6.809867,1.3032447 6.7485555,1.0022607"
           id="path910"
           inkscape:path-effect="#path-effect916"
           inkscape:original-d="M 6.9323031,1.9042953 C 6.8713185,1.6038817 6.8100693,1.3032035 6.7485555,1.0022607" />
        <path
           style="fill:none;stroke:#000000;stroke-width:0.105833;stroke-linecap:round;stroke-linejoin:miter;stroke-miterlimit:4;stroke-dasharray:none;stroke-opacity:1"
           d="M 7.7180013,1.4245995 C 7.4563682,1.5843355 7.1944689,1.7442341 6.9323031,1.9042953"
           id="path912"
           inkscape:path-effect="#path-effect918"
           inkscape:original-d="M 7.7180013,1.4245995 C 7.4564756,1.5845114 7.1945765,1.7444103 6.9323031,1.9042953" />
      </g>
      <g
         id="g924"
         transform="rotate(173.93679,6.3807432,3.2649965)">
        <path
           style="fill:none;stroke:#000000;stroke-width:0.105833;stroke-linecap:round;stroke-linejoin:miter;stroke-miterlimit:4;stroke-dasharray:none;stroke-opacity:1"
           d="M 6.9323031,1.9042953 C 6.8711162,1.6039229 6.809867,1.3032447 6.7485555,1.0022607"
           id="path920"
           inkscape:path-effect="#path-effect926"
           inkscape:original-d="M 6.9323031,1.9042953 C 6.8713185,1.6038817 6.8100693,1.3032035 6.7485555,1.0022607" />
        <path
           style="fill:none;stroke:#000000;stroke-width:0.105833;stroke-linecap:round;stroke-linejoin:miter;stroke-miterlimit:4;stroke-dasharray:none;stroke-opacity:1"
           d="M 7.7180013,1.4245995 C 7.4563682,1.5843355 7.1944689,1.7442341 6.9323031,1.9042953"
           id="path922"
           inkscape:path-effect="#path-effect928"
           inkscape:original-d="M 7.7180013,1.4245995 C 7.4564756,1.5845114 7.1945765,1.7444103 6.9323031,1.9042953" />
      </g>
      <g
         id="g934"
         transform="rotate(114.33979,6.3252829,3.4269236)">
        <path
           style="fill:none;stroke:#000000;stroke-width:0.105833;stroke-linecap:round;stroke-linejoin:miter;stroke-miterlimit:4;stroke-dasharray:none;stroke-opacity:1"
           d="M 6.9323031,1.9042953 C 6.8711162,1.6039229 6.809867,1.3032447 6.7485555,1.0022607"
           id="path930"
           inkscape:path-effect="#path-effect936"
           inkscape:original-d="M 6.9323031,1.9042953 C 6.8713185,1.6038817 6.8100693,1.3032035 6.7485555,1.0022607" />
        <path
           style="fill:none;stroke:#000000;stroke-width:0.105833;stroke-linecap:round;stroke-linejoin:miter;stroke-miterlimit:4;stroke-dasharray:none;stroke-opacity:1"
           d="M 7.7180013,1.4245995 C 7.4563682,1.5843355 7.1944689,1.7442341 6.9323031,1.9042953"
           id="path932"
           inkscape:path-effect="#path-effect938"
           inkscape:original-d="M 7.7180013,1.4245995 C 7.4564756,1.5845114 7.1945765,1.7444103 6.9323031,1.9042953" />
      </g>
      <path
         sodipodi:type="star"
         style="fill:none;fill-rule:evenodd;stroke:#000000;stroke-width:0.132292;stroke-miterlimit:4;stroke-dasharray:none"
         id="path940"
         sodipodi:sides="6"
         sodipodi:cx="6.4388819"
         sodipodi:cy="3.2750702"
         sodipodi:r1="0.80354667"
         sodipodi:r2="0.69589186"
         sodipodi:arg1="0.75599488"
         sodipodi:arg2="1.2795937"
         inkscape:flatsided="true"
         inkscape:rounded="-0.15"
         inkscape:randomized="0"
         transform="matrix(1.1638871,0.10703308,-0.13144912,1.1210168,-0.66796378,-0.95234604)"
         d="M 7.0235339,3.8263135 C 7.1062204,3.7386157 6.1365254,4.0292557 6.2538171,4.0570154 6.3711089,4.0847751 5.6345598,3.3903145 5.6691651,3.505772 5.7037704,3.6212295 5.9369163,2.636129 5.8542298,2.7238268 5.7715433,2.8115246 6.7412384,2.5208847 6.6239466,2.493125 6.5066548,2.4653653 7.2432039,3.1598259 7.2085986,3.0443684 7.1739934,2.9289108 6.9408474,3.9140114 7.0235339,3.8263135 Z" />
    </g>
  </g>
</svg>
