<?xml version="1.0" encoding="UTF-8" standalone="no"?>
<svg
   xmlns:dc="http://purl.org/dc/elements/1.1/"
   xmlns:cc="http://creativecommons.org/ns#"
   xmlns:rdf="http://www.w3.org/1999/02/22-rdf-syntax-ns#"
   xmlns:svg="http://www.w3.org/2000/svg"
   xmlns="http://www.w3.org/2000/svg"
   xmlns:sodipodi="http://sodipodi.sourceforge.net/DTD/sodipodi-0.dtd"
   xmlns:inkscape="http://www.inkscape.org/namespaces/inkscape"
   width="128"
   height="64"
   viewBox="0 0 33.866666 16.933333"
   version="1.1"
   id="svg8"
   inkscape:version="1.0.2-2 (e86c870879, 2021-01-15)"
   sodipodi:docname="ze_feliz_3.svg"
   inkscape:export-filename="C:\Users\Ari\Documents\GitHub\PI3_2022_1\imagens PI3\ze_feliz_3.png"
   inkscape:export-xdpi="93"
   inkscape:export-ydpi="93">
  <defs
     id="defs2">
    <inkscape:path-effect
       effect="bspline"
       id="path-effect852"
       is_visible="true"
       lpeversion="1"
       weight="33.333333"
       steps="2"
       helper_size="0"
       apply_no_weight="true"
       apply_with_weight="true"
       only_selected="false" />
    <inkscape:path-effect
       effect="bspline"
       id="path-effect843"
       is_visible="true"
       lpeversion="1"
       weight="33.333333"
       steps="2"
       helper_size="0"
       apply_no_weight="true"
       apply_with_weight="true"
       only_selected="false" />
    <inkscape:path-effect
       effect="bspline"
       id="path-effect835"
       is_visible="true"
       lpeversion="1"
       weight="33.333333"
       steps="2"
       helper_size="0"
       apply_no_weight="true"
       apply_with_weight="true"
       only_selected="false" />
  </defs>
  <sodipodi:namedview
     id="base"
     pagecolor="#ffffff"
     bordercolor="#666666"
     borderopacity="1.0"
     inkscape:pageopacity="0.0"
     inkscape:pageshadow="2"
     inkscape:zoom="1.4142136"
     inkscape:cx="-29.955"
     inkscape:cy="6.6007121"
     inkscape:document-units="px"
     inkscape:current-layer="layer1"
     inkscape:document-rotation="0"
     showgrid="false"
     units="px"
     inkscape:window-width="1366"
     inkscape:window-height="705"
     inkscape:window-x="-8"
     inkscape:window-y="-8"
     inkscape:window-maximized="1">
    <inkscape:grid
       type="xygrid"
       id="grid864" />
  </sodipodi:namedview>
  <metadata
     id="metadata5">
    <rdf:RDF>
      <cc:Work
         rdf:about="">
        <dc:format>image/svg+xml</dc:format>
        <dc:type
           rdf:resource="http://purl.org/dc/dcmitype/StillImage" />
        <dc:title />
      </cc:Work>
    </rdf:RDF>
  </metadata>
  <g
     inkscape:label="Layer 1"
     inkscape:groupmode="layer"
     id="layer1">
    <rect
       style="fill:#ffffff;fill-rule:evenodd;stroke-width:0.264583"
       id="rect14"
       width="33.866665"
       height="16.933332"
       x="5.567627e-07"
       y="2.7838135e-07" />
    <path
       id="path845"
       style="fill:none;fill-rule:evenodd;stroke:#000000;stroke-width:0.795587;stroke-linecap:round;stroke-miterlimit:4;stroke-dasharray:none"
       d="m 22.182218,9.0068174 c -0.87095,2.0955716 -2.395025,4.3819146 -5.203121,4.3819146 -2.808103,0 -4.423712,-2.11255 -5.294649,-4.2081299"
       sodipodi:nodetypes="csc" />
    <path
       id="path860"
       style="fill:#000000;fill-rule:evenodd;stroke-width:0.19382"
       d="m 11.091829,3.3765317 a 1.4699824,1.1653275 0 0 0 -1.4701943,1.1652625 1.4699824,1.1653275 0 0 0 0.00723,0.1142522 3.3074604,1.1563635 0 0 1 1.6298743,-0.1500254 3.3074604,1.1563635 0 0 1 1.301213,0.093454 1.4699824,1.1653275 0 0 0 0.0015,-0.057681 1.4699824,1.1653275 0 0 0 -1.469678,-1.1652625 z" />
    <path
       id="path846"
       style="fill:#000000;fill-rule:evenodd;stroke-width:0.19382"
       d="m 21.985485,3.2543243 a -1.4699824,1.1653275 0 0 1 1.470194,1.1652625 -1.4699824,1.1653275 0 0 1 -0.0072,0.1142522 -3.3074604,1.1563635 0 0 0 -1.629874,-0.1500254 -3.3074604,1.1563635 0 0 0 -1.301213,0.093454 -1.4699824,1.1653275 0 0 1 -0.0015,-0.057681 -1.4699824,1.1653275 0 0 1 1.469678,-1.1652625 z" />
  </g>
</svg>
