<?xml version="1.0" encoding="UTF-8" standalone="no"?>
<svg
   xmlns:dc="http://purl.org/dc/elements/1.1/"
   xmlns:cc="http://creativecommons.org/ns#"
   xmlns:rdf="http://www.w3.org/1999/02/22-rdf-syntax-ns#"
   xmlns:svg="http://www.w3.org/2000/svg"
   xmlns="http://www.w3.org/2000/svg"
   xmlns:sodipodi="http://sodipodi.sourceforge.net/DTD/sodipodi-0.dtd"
   xmlns:inkscape="http://www.inkscape.org/namespaces/inkscape"
   width="128"
   height="64"
   viewBox="0 0 33.866666 16.933333"
   version="1.1"
   id="svg8"
   inkscape:version="0.92.4 (5da689c313, 2019-01-14)"
   sodipodi:docname="ze_palido_1.svg"
   inkscape:export-filename="C:\Users\Aluno\Desktop\ze_palido1.png"
   inkscape:export-xdpi="96"
   inkscape:export-ydpi="96">
  <defs
     id="defs2">
    <inkscape:path-effect
       is_visible="true"
       id="path-effect4594"
       effect="spiro" />
    <inkscape:path-effect
       effect="spiro"
       id="path-effect4590"
       is_visible="true" />
    <inkscape:path-effect
       is_visible="true"
       id="path-effect4586"
       effect="spiro" />
    <inkscape:path-effect
       effect="spiro"
       id="path-effect4582"
       is_visible="true" />
    <inkscape:path-effect
       is_visible="true"
       id="path-effect4578"
       effect="spiro" />
    <inkscape:path-effect
       effect="spiro"
       id="path-effect4574"
       is_visible="true" />
    <inkscape:path-effect
       is_visible="true"
       id="path-effect4570"
       effect="spiro" />
    <inkscape:path-effect
       effect="spiro"
       id="path-effect4566"
       is_visible="true" />
    <inkscape:path-effect
       is_visible="true"
       id="path-effect4562"
       effect="spiro" />
    <inkscape:path-effect
       is_visible="true"
       id="path-effect4558"
       effect="spiro" />
    <inkscape:path-effect
       effect="spiro"
       id="path-effect46"
       is_visible="true" />
    <inkscape:path-effect
       effect="bspline"
       id="path-effect89"
       is_visible="true"
       lpeversion="1"
       weight="33.333333"
       steps="2"
       helper_size="0"
       apply_no_weight="true"
       apply_with_weight="true"
       only_selected="false" />
    <inkscape:path-effect
       effect="bspline"
       id="path-effect85"
       is_visible="true"
       lpeversion="1"
       weight="33.333333"
       steps="2"
       helper_size="0"
       apply_no_weight="true"
       apply_with_weight="true"
       only_selected="false" />
    <inkscape:path-effect
       effect="bspline"
       id="path-effect81"
       is_visible="true"
       lpeversion="1"
       weight="33.333333"
       steps="2"
       helper_size="0"
       apply_no_weight="true"
       apply_with_weight="true"
       only_selected="false" />
    <inkscape:path-effect
       effect="spiro"
       id="path-effect77"
       is_visible="true"
       lpeversion="1" />
    <inkscape:path-effect
       effect="spiro"
       id="path-effect73"
       is_visible="true"
       lpeversion="1" />
    <inkscape:path-effect
       effect="bspline"
       id="path-effect1120"
       is_visible="true"
       lpeversion="1"
       weight="33.333333"
       steps="2"
       helper_size="0"
       apply_no_weight="true"
       apply_with_weight="true"
       only_selected="false" />
    <inkscape:path-effect
       effect="bspline"
       id="path-effect1118"
       is_visible="true"
       lpeversion="1"
       weight="33.333333"
       steps="2"
       helper_size="0"
       apply_no_weight="true"
       apply_with_weight="true"
       only_selected="false" />
    <inkscape:path-effect
       effect="bspline"
       id="path-effect1116"
       is_visible="true"
       lpeversion="1"
       weight="33.333333"
       steps="2"
       helper_size="0"
       apply_no_weight="true"
       apply_with_weight="true"
       only_selected="false" />
    <inkscape:path-effect
       effect="bspline"
       id="path-effect1114"
       is_visible="true"
       lpeversion="1"
       weight="33.333333"
       steps="2"
       helper_size="0"
       apply_no_weight="true"
       apply_with_weight="true"
       only_selected="false" />
    <inkscape:path-effect
       effect="bspline"
       id="path-effect1112"
       is_visible="true"
       lpeversion="1"
       weight="33.333333"
       steps="2"
       helper_size="0"
       apply_no_weight="true"
       apply_with_weight="true"
       only_selected="false" />
    <inkscape:path-effect
       effect="bspline"
       id="path-effect852"
       is_visible="true"
       lpeversion="1"
       weight="33.333333"
       steps="2"
       helper_size="0"
       apply_no_weight="true"
       apply_with_weight="true"
       only_selected="false" />
    <inkscape:path-effect
       effect="bspline"
       id="path-effect843"
       is_visible="true"
       lpeversion="1"
       weight="33.333333"
       steps="2"
       helper_size="0"
       apply_no_weight="true"
       apply_with_weight="true"
       only_selected="false" />
    <inkscape:path-effect
       effect="bspline"
       id="path-effect835"
       is_visible="true"
       lpeversion="1"
       weight="33.333333"
       steps="2"
       helper_size="0"
       apply_no_weight="true"
       apply_with_weight="true"
       only_selected="false" />
    <inkscape:path-effect
       effect="bspline"
       id="path-effect850"
       is_visible="true"
       lpeversion="1"
       weight="33.333333"
       steps="2"
       helper_size="0"
       apply_no_weight="true"
       apply_with_weight="true"
       only_selected="false" />
    <inkscape:path-effect
       effect="bspline"
       id="path-effect854"
       is_visible="true"
       lpeversion="1"
       weight="33.333333"
       steps="2"
       helper_size="0"
       apply_no_weight="true"
       apply_with_weight="true"
       only_selected="false" />
    <inkscape:path-effect
       effect="bspline"
       id="path-effect858"
       is_visible="true"
       lpeversion="1"
       weight="33.333333"
       steps="2"
       helper_size="0"
       apply_no_weight="true"
       apply_with_weight="true"
       only_selected="false" />
    <inkscape:path-effect
       effect="bspline"
       id="path-effect863"
       is_visible="true"
       lpeversion="1"
       weight="33.333333"
       steps="2"
       helper_size="0"
       apply_no_weight="true"
       apply_with_weight="true"
       only_selected="false" />
    <inkscape:path-effect
       effect="bspline"
       id="path-effect880"
       is_visible="true"
       lpeversion="1"
       weight="33.333333"
       steps="2"
       helper_size="0"
       apply_no_weight="true"
       apply_with_weight="true"
       only_selected="false" />
    <inkscape:path-effect
       effect="bspline"
       id="path-effect884"
       is_visible="true"
       lpeversion="1"
       weight="33.333333"
       steps="2"
       helper_size="0"
       apply_no_weight="true"
       apply_with_weight="true"
       only_selected="false" />
    <inkscape:path-effect
       effect="bspline"
       id="path-effect896"
       is_visible="true"
       lpeversion="1"
       weight="33.333333"
       steps="2"
       helper_size="0"
       apply_no_weight="true"
       apply_with_weight="true"
       only_selected="false" />
    <inkscape:path-effect
       effect="bspline"
       id="path-effect898"
       is_visible="true"
       lpeversion="1"
       weight="33.333333"
       steps="2"
       helper_size="0"
       apply_no_weight="true"
       apply_with_weight="true"
       only_selected="false" />
    <inkscape:path-effect
       effect="bspline"
       id="path-effect906"
       is_visible="true"
       lpeversion="1"
       weight="33.333333"
       steps="2"
       helper_size="0"
       apply_no_weight="true"
       apply_with_weight="true"
       only_selected="false" />
    <inkscape:path-effect
       effect="bspline"
       id="path-effect908"
       is_visible="true"
       lpeversion="1"
       weight="33.333333"
       steps="2"
       helper_size="0"
       apply_no_weight="true"
       apply_with_weight="true"
       only_selected="false" />
    <inkscape:path-effect
       effect="bspline"
       id="path-effect916"
       is_visible="true"
       lpeversion="1"
       weight="33.333333"
       steps="2"
       helper_size="0"
       apply_no_weight="true"
       apply_with_weight="true"
       only_selected="false" />
    <inkscape:path-effect
       effect="bspline"
       id="path-effect918"
       is_visible="true"
       lpeversion="1"
       weight="33.333333"
       steps="2"
       helper_size="0"
       apply_no_weight="true"
       apply_with_weight="true"
       only_selected="false" />
    <inkscape:path-effect
       effect="bspline"
       id="path-effect926"
       is_visible="true"
       lpeversion="1"
       weight="33.333333"
       steps="2"
       helper_size="0"
       apply_no_weight="true"
       apply_with_weight="true"
       only_selected="false" />
    <inkscape:path-effect
       effect="bspline"
       id="path-effect928"
       is_visible="true"
       lpeversion="1"
       weight="33.333333"
       steps="2"
       helper_size="0"
       apply_no_weight="true"
       apply_with_weight="true"
       only_selected="false" />
    <inkscape:path-effect
       effect="bspline"
       id="path-effect936"
       is_visible="true"
       lpeversion="1"
       weight="33.333333"
       steps="2"
       helper_size="0"
       apply_no_weight="true"
       apply_with_weight="true"
       only_selected="false" />
    <inkscape:path-effect
       effect="bspline"
       id="path-effect938"
       is_visible="true"
       lpeversion="1"
       weight="33.333333"
       steps="2"
       helper_size="0"
       apply_no_weight="true"
       apply_with_weight="true"
       only_selected="false" />
  </defs>
  <sodipodi:namedview
     id="base"
     pagecolor="#ffffff"
     bordercolor="#666666"
     borderopacity="1.0"
     inkscape:pageopacity="0.0"
     inkscape:pageshadow="2"
     inkscape:zoom="7.9195959"
     inkscape:cx="54.962798"
     inkscape:cy="40.494825"
     inkscape:document-units="px"
     inkscape:current-layer="layer1"
     inkscape:document-rotation="0"
     showgrid="false"
     units="px"
     inkscape:window-width="1600"
     inkscape:window-height="838"
     inkscape:window-x="-8"
     inkscape:window-y="-8"
     inkscape:window-maximized="1">
    <inkscape:grid
       type="xygrid"
       id="grid864" />
  </sodipodi:namedview>
  <metadata
     id="metadata5">
    <rdf:RDF>
      <cc:Work
         rdf:about="">
        <dc:format>image/svg+xml</dc:format>
        <dc:type
           rdf:resource="http://purl.org/dc/dcmitype/StillImage" />
        <dc:title></dc:title>
      </cc:Work>
    </rdf:RDF>
  </metadata>
  <g
     inkscape:label="Layer 1"
     inkscape:groupmode="layer"
     id="layer1">
    <rect
       style="fill:#ffffff;fill-rule:evenodd;stroke-width:0.264583"
       id="rect14"
       width="33.866665"
       height="16.933332"
       x="5.567627e-07"
       y="2.7838135e-07"
       sodipodi:insensitive="true" />
    <path
       id="path860"
       style="fill:#000000;fill-rule:evenodd;stroke-width:0.245765"
       d="m 10.176205,5.4069343 a 1.4699824,1.8736488 0 0 0 -0.09043,0.6456192 1.4699824,1.8736488 0 0 0 1.470194,1.87399 1.4699824,1.8736488 0 0 0 1.469678,-1.87399 1.4699824,1.8736488 0 0 0 -0.462504,-1.3643612 2.0661342,3.2864598 76.288496 0 1 -0.02222,0.013822 2.0661342,3.2864598 76.288496 0 1 -0.0677,0.040128 2.0661342,3.2864598 76.288496 0 1 -0.06873,0.039236 2.0661342,3.2864598 76.288496 0 1 -0.06976,0.038345 2.0661342,3.2864598 76.288496 0 1 -0.04961,0.026306 2.0661342,3.2864598 76.288496 0 1 -0.07183,0.036116 2.0661342,3.2864598 76.288496 0 1 -0.07235,0.035669 2.0661342,3.2864598 76.288496 0 1 -0.0739,0.034332 2.0661342,3.2864598 76.288496 0 1 -0.07441,0.033441 2.0661342,3.2864598 76.288496 0 1 -0.07545,0.032103 2.0661342,3.2864598 76.288496 0 1 -0.07648,0.03121 2.0661342,3.2864598 76.288496 0 1 -0.077,0.029873 2.0661342,3.2864598 76.288496 0 1 -0.07752,0.028536 2.0661342,3.2864598 76.288496 0 1 -0.07855,0.027644 2.0661342,3.2864598 76.288496 0 1 -0.07906,0.026306 2.0661342,3.2864598 76.288496 0 1 -0.07958,0.024969 2.0661342,3.2864598 76.288496 0 1 -0.0801,0.023631 2.0661342,3.2864598 76.288496 0 1 -0.0801,0.022739 2.0661342,3.2864598 76.288496 0 1 -0.08113,0.020957 2.0661342,3.2864598 76.288496 0 1 -0.08113,0.020064 2.0661342,3.2864598 76.288496 0 1 -0.08165,0.018726 2.0661342,3.2864598 76.288496 0 1 -0.08165,0.017388 2.0661342,3.2864598 76.288496 0 1 -0.08216,0.016051 2.0661342,3.2864598 76.288496 0 1 -0.08217,0.014713 2.0661342,3.2864598 76.288496 0 1 -0.08217,0.01293 2.0661342,3.2864598 76.288496 0 1 -0.08217,0.012038 2.0661342,3.2864598 76.288496 0 1 -0.08217,0.0107 2.0661342,3.2864598 76.288496 0 1 -0.08217,0.00936 2.0661342,3.2864598 76.288496 0 1 -0.08217,0.00758 2.0661342,3.2864598 76.288496 0 1 -0.08165,0.00669 2.0661342,3.2864598 76.288496 0 1 -0.08165,0.0049 2.0661342,3.2864598 76.288496 0 1 -0.04858,0.00223 z" />
    <path
       id="path870"
       style="fill:#000000;fill-rule:evenodd;stroke-width:0.241815"
       d="m 24.07133,5.4164094 a 1.4699824,1.8139016 0 0 1 0.09043,0.6250316 1.4699824,1.8139016 0 0 1 -1.470195,1.8142319 1.4699824,1.8139016 0 0 1 -1.469677,-1.8142319 1.4699824,1.8139016 0 0 1 0.462504,-1.3208543 3.2808779,2.0036521 12.781187 0 0 0.02222,0.013381 3.2808779,2.0036521 12.781187 0 0 0.0677,0.038849 3.2808779,2.0036521 12.781187 0 0 0.06873,0.037985 3.2808779,2.0036521 12.781187 0 0 0.06976,0.037122 3.2808779,2.0036521 12.781187 0 0 0.04961,0.025467 3.2808779,2.0036521 12.781187 0 0 0.07183,0.034964 3.2808779,2.0036521 12.781187 0 0 0.07235,0.034532 3.2808779,2.0036521 12.781187 0 0 0.0739,0.033237 3.2808779,2.0036521 12.781187 0 0 0.07441,0.032374 3.2808779,2.0036521 12.781187 0 0 0.07545,0.031079 3.2808779,2.0036521 12.781187 0 0 0.07648,0.030215 3.2808779,2.0036521 12.781187 0 0 0.077,0.02892 3.2808779,2.0036521 12.781187 0 0 0.07751,0.027626 3.2808779,2.0036521 12.781187 0 0 0.07855,0.026762 3.2808779,2.0036521 12.781187 0 0 0.07906,0.025467 3.2808779,2.0036521 12.781187 0 0 0.07958,0.024173 3.2808779,2.0036521 12.781187 0 0 0.0801,0.022877 3.2808779,2.0036521 12.781187 0 0 0.0801,0.022014 3.2808779,2.0036521 12.781187 0 0 0.08113,0.020288 3.2808779,2.0036521 12.781187 0 0 0.08113,0.019424 3.2808779,2.0036521 12.781187 0 0 0.08165,0.018129 3.2808779,2.0036521 12.781187 0 0 0.08165,0.016835 3.2808779,2.0036521 12.781187 0 0 0.08217,0.01554 3.2808779,2.0036521 12.781187 0 0 0.08216,0.014244 3.2808779,2.0036521 12.781187 0 0 0.08217,0.012518 3.2808779,2.0036521 12.781187 0 0 0.08216,0.011655 3.2808779,2.0036521 12.781187 0 0 0.08217,0.010359 3.2808779,2.0036521 12.781187 0 0 0.08216,0.00906 3.2808779,2.0036521 12.781187 0 0 0.08217,0.00734 3.2808779,2.0036521 12.781187 0 0 0.08165,0.00647 3.2808779,2.0036521 12.781187 0 0 0.08165,0.00474 3.2808779,2.0036521 12.781187 0 0 0.04858,0.00216 z"
       inkscape:connector-curvature="0" />
    <path
       style="fill:none;stroke:#000000;stroke-width:0.55562496;stroke-linecap:round;stroke-linejoin:miter;stroke-miterlimit:4;stroke-dasharray:none;stroke-opacity:1"
       d="M 10.176173,5.4069254 C 10.73984,5.3408633 11.295417,5.2060525 11.826676,5.0064307 12.472989,4.763577 13.083101,4.4246263 13.630746,4.00417"
       id="path44"
       inkscape:connector-curvature="0"
       inkscape:path-effect="#path-effect46"
       inkscape:original-d="m 10.176173,5.4069254 c 0.550432,-0.133763 1.1006,-0.2672611 1.650503,-0.4004947 0.549904,-0.1332339 1.202978,-0.6684386 1.80407,-1.0022607"
       transform="translate(0.24807887,-0.02361461)" />
    <path
       transform="matrix(-1,0,0,1,33.999456,-0.04957478)"
       inkscape:original-d="m 10.176173,5.4069254 c 0.550432,-0.133763 1.1006,-0.2672611 1.650503,-0.4004947 0.549904,-0.1332339 1.202978,-0.6684386 1.80407,-1.0022607"
       inkscape:path-effect="#path-effect4558"
       inkscape:connector-curvature="0"
       id="path4556"
       d="M 10.176173,5.4069254 C 10.73984,5.3408633 11.295417,5.2060525 11.826676,5.0064307 12.472989,4.763577 13.083101,4.4246263 13.630746,4.00417"
       style="fill:none;stroke:#000000;stroke-width:0.55562496;stroke-linecap:round;stroke-linejoin:miter;stroke-miterlimit:4;stroke-dasharray:none;stroke-opacity:1" />
    <path
       transform="translate(0.38171363,4.2192891)"
       inkscape:original-d="m 10.176173,5.4069254 c 0.550432,-0.133763 1.1006,-0.2672611 1.650503,-0.4004947 0.549904,-0.1332339 1.202978,-0.6684386 1.80407,-1.0022607"
       inkscape:path-effect="#path-effect4562"
       inkscape:connector-curvature="0"
       id="path4560"
       d="M 10.176173,5.4069254 C 10.73984,5.3408633 11.295417,5.2060525 11.826676,5.0064307 12.472989,4.763577 13.083101,4.4246263 13.630746,4.00417"
       style="fill:none;stroke:#000000;stroke-width:0.37041666;stroke-linecap:round;stroke-linejoin:miter;stroke-miterlimit:4;stroke-dasharray:none;stroke-opacity:1" />
    <path
       style="fill:none;stroke:#000000;stroke-width:0.37041667;stroke-linecap:round;stroke-linejoin:miter;stroke-miterlimit:4;stroke-dasharray:none;stroke-opacity:1"
       d="M 10.176173,5.4069254 C 10.73984,5.3408633 11.295417,5.2060525 11.826676,5.0064307 12.472989,4.763577 13.083101,4.4246263 13.630746,4.00417"
       id="path4564"
       inkscape:connector-curvature="0"
       inkscape:path-effect="#path-effect4566"
       inkscape:original-d="m 10.176173,5.4069254 c 0.550432,-0.133763 1.1006,-0.2672611 1.650503,-0.4004947 0.549904,-0.1332339 1.202978,-0.6684386 1.80407,-1.0022607"
       transform="matrix(-1,0,0,1,33.976743,4.119063)" />
    <path
       transform="matrix(-0.99098092,-0.21949165,0.41840048,-0.51986564,27.056652,18.003235)"
       inkscape:original-d="m 10.176173,5.4069254 c 0.550432,-0.133763 1.1006,-0.2672611 1.650503,-0.4004947 0.549904,-0.1332339 1.202978,-0.6684386 1.80407,-1.0022607"
       inkscape:path-effect="#path-effect4570"
       inkscape:connector-curvature="0"
       id="path4568"
       d="M 10.176173,5.4069254 C 10.73984,5.3408633 11.295417,5.2060525 11.826676,5.0064307 12.472989,4.763577 13.083101,4.4246263 13.630746,4.00417"
       style="fill:none;stroke:#000000;stroke-width:1.26999998;stroke-linecap:round;stroke-linejoin:miter;stroke-miterlimit:4;stroke-dasharray:none;stroke-opacity:1"
       inkscape:transform-center-x="-2.371873"
       inkscape:transform-center-y="0.30138581" />
    <path
       style="fill:none;stroke:#000000;stroke-width:0.26458332px;stroke-linecap:round;stroke-linejoin:miter;stroke-opacity:1"
       d="m 9.4212507,1.298066 c 7e-5,0.08909 7e-5,0.1781797 0,0.2672695 -8.485e-4,1.0802877 -0.011985,2.1605673 -0.033409,3.2406429"
       id="path4572"
       inkscape:connector-curvature="0"
       inkscape:path-effect="#path-effect4574"
       inkscape:original-d="m 9.4212507,1.298066 c 2.646e-4,0.088825 2.646e-4,0.1779151 0,0.2672695 -2.646e-4,0.089354 -0.022008,2.1601639 -0.033409,3.2406429" />
    <path
       inkscape:original-d="m 9.4212507,1.298066 c 2.646e-4,0.088825 2.646e-4,0.1779151 0,0.2672695 -2.646e-4,0.089354 -0.022008,2.1601639 -0.033409,3.2406429"
       inkscape:path-effect="#path-effect4578"
       inkscape:connector-curvature="0"
       id="path4576"
       d="m 9.4212507,1.298066 c 7e-5,0.08909 7e-5,0.1781797 0,0.2672695 -8.485e-4,1.0802877 -0.011985,2.1605673 -0.033409,3.2406429"
       style="fill:none;stroke:#000000;stroke-width:0.26458332px;stroke-linecap:round;stroke-linejoin:miter;stroke-opacity:1"
       transform="translate(16.06958,-0.06681738)" />
    <path
       transform="matrix(1,0,0,0.82859635,14.499372,0.18899712)"
       style="fill:none;stroke:#000000;stroke-width:0.26458332px;stroke-linecap:round;stroke-linejoin:miter;stroke-opacity:1"
       d="m 9.4212507,1.298066 c 7e-5,0.08909 7e-5,0.1781797 0,0.2672695 -8.485e-4,1.0802877 -0.011985,2.1605673 -0.033409,3.2406429"
       id="path4580"
       inkscape:connector-curvature="0"
       inkscape:path-effect="#path-effect4582"
       inkscape:original-d="m 9.4212507,1.298066 c 2.646e-4,0.088825 2.646e-4,0.1779151 0,0.2672695 -2.646e-4,0.089354 -0.022008,2.1601639 -0.033409,3.2406429" />
    <path
       inkscape:original-d="m 9.4212507,1.298066 c 2.646e-4,0.088825 2.646e-4,0.1779151 0,0.2672695 -2.646e-4,0.089354 -0.022008,2.1601639 -0.033409,3.2406429"
       inkscape:path-effect="#path-effect4586"
       inkscape:connector-curvature="0"
       id="path4584"
       d="m 9.4212507,1.298066 c 7e-5,0.08909 7e-5,0.1781797 0,0.2672695 -8.485e-4,1.0802877 -0.011985,2.1605673 -0.033409,3.2406429"
       style="fill:none;stroke:#000000;stroke-width:0.26458332px;stroke-linecap:round;stroke-linejoin:miter;stroke-opacity:1"
       transform="matrix(1,0,0,0.82859635,1.5368002,0.15558843)" />
    <path
       transform="matrix(1.2095074,0,0,0.62094391,1.6378166,0.05435707)"
       style="fill:none;stroke:#000000;stroke-width:0.26458332px;stroke-linecap:round;stroke-linejoin:miter;stroke-opacity:1"
       d="m 9.4212507,1.298066 c 7e-5,0.08909 7e-5,0.1781797 0,0.2672695 -8.485e-4,1.0802877 -0.011985,2.1605673 -0.033409,3.2406429"
       id="path4588"
       inkscape:connector-curvature="0"
       inkscape:path-effect="#path-effect4590"
       inkscape:original-d="m 9.4212507,1.298066 c 2.646e-4,0.088825 2.646e-4,0.1779151 0,0.2672695 -2.646e-4,0.089354 -0.022008,2.1601639 -0.033409,3.2406429" />
    <path
       inkscape:original-d="m 9.4212507,1.298066 c 2.646e-4,0.088825 2.646e-4,0.1779151 0,0.2672695 -2.646e-4,0.089354 -0.022008,2.1601639 -0.033409,3.2406429"
       inkscape:path-effect="#path-effect4594"
       inkscape:connector-curvature="0"
       id="path4592"
       d="m 9.4212507,1.298066 c 7e-5,0.08909 7e-5,0.1781797 0,0.2672695 -8.485e-4,1.0802877 -0.011985,2.1605673 -0.033409,3.2406429"
       style="fill:none;stroke:#000000;stroke-width:0.26458332px;stroke-linecap:round;stroke-linejoin:miter;stroke-opacity:1"
       transform="matrix(1.2095074,0,0,0.62094391,10.49112,0.18799183)" />
  </g>
</svg>
