<?xml version="1.0" encoding="UTF-8" standalone="no"?>
<svg
   xmlns:dc="http://purl.org/dc/elements/1.1/"
   xmlns:cc="http://creativecommons.org/ns#"
   xmlns:rdf="http://www.w3.org/1999/02/22-rdf-syntax-ns#"
   xmlns:svg="http://www.w3.org/2000/svg"
   xmlns="http://www.w3.org/2000/svg"
   xmlns:sodipodi="http://sodipodi.sourceforge.net/DTD/sodipodi-0.dtd"
   xmlns:inkscape="http://www.inkscape.org/namespaces/inkscape"
   width="128"
   height="64"
   viewBox="0 0 33.866666 16.933333"
   version="1.1"
   id="svg8"
   inkscape:version="0.92.4 (5da689c313, 2019-01-14)"
   sodipodi:docname="ze_palido_3.svg"
   inkscape:export-filename="C:\Users\Aluno\Desktop\ze_palido_2.png"
   inkscape:export-xdpi="96"
   inkscape:export-ydpi="96">
  <defs
     id="defs2">
    <inkscape:path-effect
       is_visible="true"
       id="path-effect4594"
       effect="spiro" />
    <inkscape:path-effect
       effect="spiro"
       id="path-effect4590"
       is_visible="true" />
    <inkscape:path-effect
       is_visible="true"
       id="path-effect4586"
       effect="spiro" />
    <inkscape:path-effect
       effect="spiro"
       id="path-effect4582"
       is_visible="true" />
    <inkscape:path-effect
       is_visible="true"
       id="path-effect4578"
       effect="spiro" />
    <inkscape:path-effect
       effect="spiro"
       id="path-effect4574"
       is_visible="true" />
    <inkscape:path-effect
       is_visible="true"
       id="path-effect4570"
       effect="spiro" />
    <inkscape:path-effect
       effect="spiro"
       id="path-effect4566"
       is_visible="true" />
    <inkscape:path-effect
       is_visible="true"
       id="path-effect4562"
       effect="spiro" />
    <inkscape:path-effect
       is_visible="true"
       id="path-effect4558"
       effect="spiro" />
    <inkscape:path-effect
       effect="spiro"
       id="path-effect46"
       is_visible="true" />
    <inkscape:path-effect
       effect="bspline"
       id="path-effect89"
       is_visible="true"
       lpeversion="1"
       weight="33.333333"
       steps="2"
       helper_size="0"
       apply_no_weight="true"
       apply_with_weight="true"
       only_selected="false" />
    <inkscape:path-effect
       effect="bspline"
       id="path-effect85"
       is_visible="true"
       lpeversion="1"
       weight="33.333333"
       steps="2"
       helper_size="0"
       apply_no_weight="true"
       apply_with_weight="true"
       only_selected="false" />
    <inkscape:path-effect
       effect="bspline"
       id="path-effect81"
       is_visible="true"
       lpeversion="1"
       weight="33.333333"
       steps="2"
       helper_size="0"
       apply_no_weight="true"
       apply_with_weight="true"
       only_selected="false" />
    <inkscape:path-effect
       effect="spiro"
       id="path-effect77"
       is_visible="true"
       lpeversion="1" />
    <inkscape:path-effect
       effect="spiro"
       id="path-effect73"
       is_visible="true"
       lpeversion="1" />
    <inkscape:path-effect
       effect="bspline"
       id="path-effect1120"
       is_visible="true"
       lpeversion="1"
       weight="33.333333"
       steps="2"
       helper_size="0"
       apply_no_weight="true"
       apply_with_weight="true"
       only_selected="false" />
    <inkscape:path-effect
       effect="bspline"
       id="path-effect1118"
       is_visible="true"
       lpeversion="1"
       weight="33.333333"
       steps="2"
       helper_size="0"
       apply_no_weight="true"
       apply_with_weight="true"
       only_selected="false" />
    <inkscape:path-effect
       effect="bspline"
       id="path-effect1116"
       is_visible="true"
       lpeversion="1"
       weight="33.333333"
       steps="2"
       helper_size="0"
       apply_no_weight="true"
       apply_with_weight="true"
       only_selected="false" />
    <inkscape:path-effect
       effect="bspline"
       id="path-effect1114"
       is_visible="true"
       lpeversion="1"
       weight="33.333333"
       steps="2"
       helper_size="0"
       apply_no_weight="true"
       apply_with_weight="true"
       only_selected="false" />
    <inkscape:path-effect
       effect="bspline"
       id="path-effect1112"
       is_visible="true"
       lpeversion="1"
       weight="33.333333"
       steps="2"
       helper_size="0"
       apply_no_weight="true"
       apply_with_weight="true"
       only_selected="false" />
    <inkscape:path-effect
       effect="bspline"
       id="path-effect852"
       is_visible="true"
       lpeversion="1"
       weight="33.333333"
       steps="2"
       helper_size="0"
       apply_no_weight="true"
       apply_with_weight="true"
       only_selected="false" />
    <inkscape:path-effect
       effect="bspline"
       id="path-effect843"
       is_visible="true"
       lpeversion="1"
       weight="33.333333"
       steps="2"
       helper_size="0"
       apply_no_weight="true"
       apply_with_weight="true"
       only_selected="false" />
    <inkscape:path-effect
       effect="bspline"
       id="path-effect835"
       is_visible="true"
       lpeversion="1"
       weight="33.333333"
       steps="2"
       helper_size="0"
       apply_no_weight="true"
       apply_with_weight="true"
       only_selected="false" />
    <inkscape:path-effect
       effect="bspline"
       id="path-effect850"
       is_visible="true"
       lpeversion="1"
       weight="33.333333"
       steps="2"
       helper_size="0"
       apply_no_weight="true"
       apply_with_weight="true"
       only_selected="false" />
    <inkscape:path-effect
       effect="bspline"
       id="path-effect854"
       is_visible="true"
       lpeversion="1"
       weight="33.333333"
       steps="2"
       helper_size="0"
       apply_no_weight="true"
       apply_with_weight="true"
       only_selected="false" />
    <inkscape:path-effect
       effect="bspline"
       id="path-effect858"
       is_visible="true"
       lpeversion="1"
       weight="33.333333"
       steps="2"
       helper_size="0"
       apply_no_weight="true"
       apply_with_weight="true"
       only_selected="false" />
    <inkscape:path-effect
       effect="bspline"
       id="path-effect863"
       is_visible="true"
       lpeversion="1"
       weight="33.333333"
       steps="2"
       helper_size="0"
       apply_no_weight="true"
       apply_with_weight="true"
       only_selected="false" />
    <inkscape:path-effect
       effect="bspline"
       id="path-effect880"
       is_visible="true"
       lpeversion="1"
       weight="33.333333"
       steps="2"
       helper_size="0"
       apply_no_weight="true"
       apply_with_weight="true"
       only_selected="false" />
    <inkscape:path-effect
       effect="bspline"
       id="path-effect884"
       is_visible="true"
       lpeversion="1"
       weight="33.333333"
       steps="2"
       helper_size="0"
       apply_no_weight="true"
       apply_with_weight="true"
       only_selected="false" />
    <inkscape:path-effect
       effect="bspline"
       id="path-effect896"
       is_visible="true"
       lpeversion="1"
       weight="33.333333"
       steps="2"
       helper_size="0"
       apply_no_weight="true"
       apply_with_weight="true"
       only_selected="false" />
    <inkscape:path-effect
       effect="bspline"
       id="path-effect898"
       is_visible="true"
       lpeversion="1"
       weight="33.333333"
       steps="2"
       helper_size="0"
       apply_no_weight="true"
       apply_with_weight="true"
       only_selected="false" />
    <inkscape:path-effect
       effect="bspline"
       id="path-effect906"
       is_visible="true"
       lpeversion="1"
       weight="33.333333"
       steps="2"
       helper_size="0"
       apply_no_weight="true"
       apply_with_weight="true"
       only_selected="false" />
    <inkscape:path-effect
       effect="bspline"
       id="path-effect908"
       is_visible="true"
       lpeversion="1"
       weight="33.333333"
       steps="2"
       helper_size="0"
       apply_no_weight="true"
       apply_with_weight="true"
       only_selected="false" />
    <inkscape:path-effect
       effect="bspline"
       id="path-effect916"
       is_visible="true"
       lpeversion="1"
       weight="33.333333"
       steps="2"
       helper_size="0"
       apply_no_weight="true"
       apply_with_weight="true"
       only_selected="false" />
    <inkscape:path-effect
       effect="bspline"
       id="path-effect918"
       is_visible="true"
       lpeversion="1"
       weight="33.333333"
       steps="2"
       helper_size="0"
       apply_no_weight="true"
       apply_with_weight="true"
       only_selected="false" />
    <inkscape:path-effect
       effect="bspline"
       id="path-effect926"
       is_visible="true"
       lpeversion="1"
       weight="33.333333"
       steps="2"
       helper_size="0"
       apply_no_weight="true"
       apply_with_weight="true"
       only_selected="false" />
    <inkscape:path-effect
       effect="bspline"
       id="path-effect928"
       is_visible="true"
       lpeversion="1"
       weight="33.333333"
       steps="2"
       helper_size="0"
       apply_no_weight="true"
       apply_with_weight="true"
       only_selected="false" />
    <inkscape:path-effect
       effect="bspline"
       id="path-effect936"
       is_visible="true"
       lpeversion="1"
       weight="33.333333"
       steps="2"
       helper_size="0"
       apply_no_weight="true"
       apply_with_weight="true"
       only_selected="false" />
    <inkscape:path-effect
       effect="bspline"
       id="path-effect938"
       is_visible="true"
       lpeversion="1"
       weight="33.333333"
       steps="2"
       helper_size="0"
       apply_no_weight="true"
       apply_with_weight="true"
       only_selected="false" />
  </defs>
  <sodipodi:namedview
     id="base"
     pagecolor="#ffffff"
     bordercolor="#666666"
     borderopacity="1.0"
     inkscape:pageopacity="0.0"
     inkscape:pageshadow="2"
     inkscape:zoom="11.2"
     inkscape:cx="49.580088"
     inkscape:cy="44.38984"
     inkscape:document-units="px"
     inkscape:current-layer="layer1"
     inkscape:document-rotation="0"
     showgrid="false"
     units="px"
     inkscape:window-width="1600"
     inkscape:window-height="838"
     inkscape:window-x="-8"
     inkscape:window-y="-8"
     inkscape:window-maximized="1">
    <inkscape:grid
       type="xygrid"
       id="grid864" />
  </sodipodi:namedview>
  <metadata
     id="metadata5">
    <rdf:RDF>
      <cc:Work
         rdf:about="">
        <dc:format>image/svg+xml</dc:format>
        <dc:type
           rdf:resource="http://purl.org/dc/dcmitype/StillImage" />
        <dc:title></dc:title>
      </cc:Work>
    </rdf:RDF>
  </metadata>
  <g
     inkscape:label="Layer 1"
     inkscape:groupmode="layer"
     id="layer1">
    <rect
       style="fill:#ffffff;fill-rule:evenodd;stroke-width:0.264583"
       id="rect14"
       width="33.866665"
       height="16.933332"
       x="5.567627e-07"
       y="2.7838135e-07"
       sodipodi:insensitive="true" />
    <path
       id="path860"
       style="fill:#000000;fill-rule:evenodd;stroke-width:0.14433281"
       d="m 10.143903,5.1673975 a 0.64621687,1.4699824 80.525583 0 0 -0.05254,0.2345205 0.64621687,1.4699824 80.525583 0 0 1.55653,0.3955135 0.64621687,1.4699824 80.525583 0 0 1.343239,-0.8794376 0.64621687,1.4699824 80.525583 0 0 -0.533653,-0.3880145 0.72408691,3.2343443 77.528792 0 1 -0.02113,0.00835 0.72408691,3.2343443 77.528792 0 1 -0.0645,0.024795 0.72408691,3.2343443 77.528792 0 1 -0.06556,0.024662 0.72408691,3.2343443 77.528792 0 1 -0.06663,0.024527 0.72408691,3.2343443 77.528792 0 1 -0.04744,0.017113 0.72408691,3.2343443 77.528792 0 1 -0.0688,0.02411 0.72408691,3.2343443 77.528792 0 1 -0.06934,0.024044 0.72408691,3.2343443 77.528792 0 1 -0.07094,0.023844 0.72408691,3.2343443 77.528792 0 1 -0.0715,0.023625 0.72408691,3.2343443 77.528792 0 1 -0.0726,0.023341 0.72408691,3.2343443 77.528792 0 1 -0.07367,0.023206 0.72408691,3.2343443 77.528792 0 1 -0.07425,0.022837 0.72408691,3.2343443 77.528792 0 1 -0.07484,0.022466 0.72408691,3.2343443 77.528792 0 1 -0.07591,0.02233 0.72408691,3.2343443 77.528792 0 1 -0.07649,0.02196 0.72408691,3.2343443 77.528792 0 1 -0.07708,0.021592 0.72408691,3.2343443 77.528792 0 1 -0.07766,0.021224 0.72408691,3.2343443 77.528792 0 1 -0.07772,0.020918 0.72408691,3.2343443 77.528792 0 1 -0.07883,0.020486 0.72408691,3.2343443 77.528792 0 1 -0.07888,0.02018 0.72408691,3.2343443 77.528792 0 1 -0.07947,0.019812 0.72408691,3.2343443 77.528792 0 1 -0.07955,0.019358 0.72408691,3.2343443 77.528792 0 1 -0.08013,0.018989 0.72408691,3.2343443 77.528792 0 1 -0.08021,0.018536 0.72408691,3.2343443 77.528792 0 1 -0.08032,0.017925 0.72408691,3.2343443 77.528792 0 1 -0.08037,0.017619 0.72408691,3.2343443 77.528792 0 1 -0.08044,0.017165 0.72408691,3.2343443 77.528792 0 1 -0.08052,0.016712 0.72408691,3.2343443 77.528792 0 1 -0.08062,0.0161 0.72408691,3.2343443 77.528792 0 1 -0.08016,0.015719 0.72408691,3.2343443 77.528792 0 1 -0.08026,0.015107 0.72408691,3.2343443 77.528792 0 1 -0.04779,0.00875 z"
       inkscape:connector-curvature="0" />
    <path
       id="path870"
       style="fill:#000000;fill-rule:evenodd;stroke-width:0.14194505"
       d="m 24.100328,5.1639004 a 1.4699824,0.62501111 8.3516502 0 1 0.05819,0.2262163 1.4699824,0.62501111 8.3516502 0 1 -1.545402,0.4049526 1.4699824,0.62501111 8.3516502 0 1 -1.363293,-0.8319636 1.4699824,0.62501111 8.3516502 0 1 0.523705,-0.3831188 3.2340599,0.70038744 11.240446 0 0 0.02131,0.00779 3.2340599,0.70038744 11.240446 0 0 0.06504,0.023077 3.2340599,0.70038744 11.240446 0 0 0.0661,0.022933 3.2340599,0.70038744 11.240446 0 0 0.06716,0.022788 3.2340599,0.70038744 11.240446 0 0 0.04781,0.015883 3.2340599,0.70038744 11.240446 0 0 0.06932,0.022353 3.2340599,0.70038744 11.240446 0 0 0.06985,0.022282 3.2340599,0.70038744 11.240446 0 0 0.07145,0.022064 3.2340599,0.70038744 11.240446 0 0 0.072,0.021845 3.2340599,0.70038744 11.240446 0 0 0.07309,0.021554 3.2340599,0.70038744 11.240446 0 0 0.07416,0.021409 3.2340599,0.70038744 11.240446 0 0 0.07474,0.021048 3.2340599,0.70038744 11.240446 0 0 0.07531,0.020677 3.2340599,0.70038744 11.240446 0 0 0.07638,0.020531 3.2340599,0.70038744 11.240446 0 0 0.07695,0.02016 3.2340599,0.70038744 11.240446 0 0 0.07753,0.019801 3.2340599,0.70038744 11.240446 0 0 0.07811,0.019431 3.2340599,0.70038744 11.240446 0 0 0.07815,0.019144 3.2340599,0.70038744 11.240446 0 0 0.07925,0.0187 3.2340599,0.70038744 11.240446 0 0 0.0793,0.018403 3.2340599,0.70038744 11.240446 0 0 0.07988,0.018043 3.2340599,0.70038744 11.240446 0 0 0.07994,0.017598 3.2340599,0.70038744 11.240446 0 0 0.08052,0.017228 3.2340599,0.70038744 11.240446 0 0 0.08058,0.016792 3.2340599,0.70038744 11.240446 0 0 0.08067,0.016199 3.2340599,0.70038744 11.240446 0 0 0.08071,0.015901 3.2340599,0.70038744 11.240446 0 0 0.08078,0.015467 3.2340599,0.70038744 11.240446 0 0 0.08084,0.015021 3.2340599,0.70038744 11.240446 0 0 0.08093,0.014438 3.2340599,0.70038744 11.240446 0 0 0.08046,0.014066 3.2340599,0.70038744 11.240446 0 0 0.08055,0.013472 3.2340599,0.70038744 11.240446 0 0 0.04796,0.00779 z"
       inkscape:connector-curvature="0" />
    <path
       style="fill:none;stroke:#000000;stroke-width:0.55562496;stroke-linecap:round;stroke-linejoin:miter;stroke-miterlimit:4;stroke-dasharray:none;stroke-opacity:1"
       d="M 10.176173,5.4069254 C 10.73984,5.3408633 11.295417,5.2060525 11.826676,5.0064307 12.472989,4.763577 13.083101,4.4246263 13.630746,4.00417"
       id="path44"
       inkscape:connector-curvature="0"
       inkscape:path-effect="#path-effect46"
       inkscape:original-d="m 10.176173,5.4069254 c 0.550432,-0.133763 1.1006,-0.2672611 1.650503,-0.4004947 0.549904,-0.1332339 1.202978,-0.6684386 1.80407,-1.0022607"
       transform="translate(0.24807887,-0.02361461)" />
    <path
       transform="matrix(-1,0,0,1,33.999456,-0.04957478)"
       inkscape:original-d="m 10.176173,5.4069254 c 0.550432,-0.133763 1.1006,-0.2672611 1.650503,-0.4004947 0.549904,-0.1332339 1.202978,-0.6684386 1.80407,-1.0022607"
       inkscape:path-effect="#path-effect4558"
       inkscape:connector-curvature="0"
       id="path4556"
       d="M 10.176173,5.4069254 C 10.73984,5.3408633 11.295417,5.2060525 11.826676,5.0064307 12.472989,4.763577 13.083101,4.4246263 13.630746,4.00417"
       style="fill:none;stroke:#000000;stroke-width:0.55562496;stroke-linecap:round;stroke-linejoin:miter;stroke-miterlimit:4;stroke-dasharray:none;stroke-opacity:1" />
    <path
       transform="translate(0.38171363,4.2192891)"
       inkscape:original-d="m 10.176173,5.4069254 c 0.550432,-0.133763 1.1006,-0.2672611 1.650503,-0.4004947 0.549904,-0.1332339 1.202978,-0.6684386 1.80407,-1.0022607"
       inkscape:path-effect="#path-effect4562"
       inkscape:connector-curvature="0"
       id="path4560"
       d="M 10.176173,5.4069254 C 10.73984,5.3408633 11.295417,5.2060525 11.826676,5.0064307 12.472989,4.763577 13.083101,4.4246263 13.630746,4.00417"
       style="fill:none;stroke:#000000;stroke-width:0.37041666;stroke-linecap:round;stroke-linejoin:miter;stroke-miterlimit:4;stroke-dasharray:none;stroke-opacity:1" />
    <path
       style="fill:none;stroke:#000000;stroke-width:0.37041667;stroke-linecap:round;stroke-linejoin:miter;stroke-miterlimit:4;stroke-dasharray:none;stroke-opacity:1"
       d="M 10.176173,5.4069254 C 10.73984,5.3408633 11.295417,5.2060525 11.826676,5.0064307 12.472989,4.763577 13.083101,4.4246263 13.630746,4.00417"
       id="path4564"
       inkscape:connector-curvature="0"
       inkscape:path-effect="#path-effect4566"
       inkscape:original-d="m 10.176173,5.4069254 c 0.550432,-0.133763 1.1006,-0.2672611 1.650503,-0.4004947 0.549904,-0.1332339 1.202978,-0.6684386 1.80407,-1.0022607"
       transform="matrix(-1,0,0,1,33.976743,4.119063)" />
    <path
       transform="matrix(-0.99098092,-0.21949165,0.41840048,-0.51986564,27.056652,18.003235)"
       inkscape:original-d="m 10.176173,5.4069254 c 0.550432,-0.133763 1.1006,-0.2672611 1.650503,-0.4004947 0.549904,-0.1332339 1.202978,-0.6684386 1.80407,-1.0022607"
       inkscape:path-effect="#path-effect4570"
       inkscape:connector-curvature="0"
       id="path4568"
       d="M 10.176173,5.4069254 C 10.73984,5.3408633 11.295417,5.2060525 11.826676,5.0064307 12.472989,4.763577 13.083101,4.4246263 13.630746,4.00417"
       style="fill:none;stroke:#000000;stroke-width:1.26999998;stroke-linecap:round;stroke-linejoin:miter;stroke-miterlimit:4;stroke-dasharray:none;stroke-opacity:1"
       inkscape:transform-center-x="-2.371873"
       inkscape:transform-center-y="0.30138581" />
    <path
       style="fill:none;stroke:#000000;stroke-width:0.26458332px;stroke-linecap:round;stroke-linejoin:miter;stroke-opacity:1"
       d="m 9.4212507,1.298066 c 7e-5,0.08909 7e-5,0.1781797 0,0.2672695 -8.485e-4,1.0802877 -0.011985,2.1605673 -0.033409,3.2406429"
       id="path4572"
       inkscape:connector-curvature="0"
       inkscape:path-effect="#path-effect4574"
       inkscape:original-d="m 9.4212507,1.298066 c 2.646e-4,0.088825 2.646e-4,0.1779151 0,0.2672695 -2.646e-4,0.089354 -0.022008,2.1601639 -0.033409,3.2406429" />
    <path
       inkscape:original-d="m 9.4212507,1.298066 c 2.646e-4,0.088825 2.646e-4,0.1779151 0,0.2672695 -2.646e-4,0.089354 -0.022008,2.1601639 -0.033409,3.2406429"
       inkscape:path-effect="#path-effect4578"
       inkscape:connector-curvature="0"
       id="path4576"
       d="m 9.4212507,1.298066 c 7e-5,0.08909 7e-5,0.1781797 0,0.2672695 -8.485e-4,1.0802877 -0.011985,2.1605673 -0.033409,3.2406429"
       style="fill:none;stroke:#000000;stroke-width:0.26458332px;stroke-linecap:round;stroke-linejoin:miter;stroke-opacity:1"
       transform="translate(16.06958,-0.06681738)" />
    <path
       transform="matrix(1,0,0,0.82859635,14.499372,0.18899712)"
       style="fill:none;stroke:#000000;stroke-width:0.26458332px;stroke-linecap:round;stroke-linejoin:miter;stroke-opacity:1"
       d="m 9.4212507,1.298066 c 7e-5,0.08909 7e-5,0.1781797 0,0.2672695 -8.485e-4,1.0802877 -0.011985,2.1605673 -0.033409,3.2406429"
       id="path4580"
       inkscape:connector-curvature="0"
       inkscape:path-effect="#path-effect4582"
       inkscape:original-d="m 9.4212507,1.298066 c 2.646e-4,0.088825 2.646e-4,0.1779151 0,0.2672695 -2.646e-4,0.089354 -0.022008,2.1601639 -0.033409,3.2406429" />
    <path
       inkscape:original-d="m 9.4212507,1.298066 c 2.646e-4,0.088825 2.646e-4,0.1779151 0,0.2672695 -2.646e-4,0.089354 -0.022008,2.1601639 -0.033409,3.2406429"
       inkscape:path-effect="#path-effect4586"
       inkscape:connector-curvature="0"
       id="path4584"
       d="m 9.4212507,1.298066 c 7e-5,0.08909 7e-5,0.1781797 0,0.2672695 -8.485e-4,1.0802877 -0.011985,2.1605673 -0.033409,3.2406429"
       style="fill:none;stroke:#000000;stroke-width:0.26458332px;stroke-linecap:round;stroke-linejoin:miter;stroke-opacity:1"
       transform="matrix(1,0,0,0.82859635,1.5368002,0.15558843)" />
    <path
       transform="matrix(1.2095074,0,0,0.62094391,1.6378166,0.05435707)"
       style="fill:none;stroke:#000000;stroke-width:0.26458332px;stroke-linecap:round;stroke-linejoin:miter;stroke-opacity:1"
       d="m 9.4212507,1.298066 c 7e-5,0.08909 7e-5,0.1781797 0,0.2672695 -8.485e-4,1.0802877 -0.011985,2.1605673 -0.033409,3.2406429"
       id="path4588"
       inkscape:connector-curvature="0"
       inkscape:path-effect="#path-effect4590"
       inkscape:original-d="m 9.4212507,1.298066 c 2.646e-4,0.088825 2.646e-4,0.1779151 0,0.2672695 -2.646e-4,0.089354 -0.022008,2.1601639 -0.033409,3.2406429" />
    <path
       inkscape:original-d="m 9.4212507,1.298066 c 2.646e-4,0.088825 2.646e-4,0.1779151 0,0.2672695 -2.646e-4,0.089354 -0.022008,2.1601639 -0.033409,3.2406429"
       inkscape:path-effect="#path-effect4594"
       inkscape:connector-curvature="0"
       id="path4592"
       d="m 9.4212507,1.298066 c 7e-5,0.08909 7e-5,0.1781797 0,0.2672695 -8.485e-4,1.0802877 -0.011985,2.1605673 -0.033409,3.2406429"
       style="fill:none;stroke:#000000;stroke-width:0.26458332px;stroke-linecap:round;stroke-linejoin:miter;stroke-opacity:1"
       transform="matrix(1.2095074,0,0,0.62094391,10.49112,0.18799183)" />
  </g>
</svg>
