#define fce898ecc0e749238de5d482f2c4d870_width 1
#define fce898ecc0e749238de5d482f2c4d870_height 3
static char fce898ecc0e749238de5d482f2c4d870_bits[] = {
  0x00, 0x00, 0x01, };
