<?xml version="1.0" encoding="UTF-8" standalone="no"?>
<svg
   xmlns:dc="http://purl.org/dc/elements/1.1/"
   xmlns:cc="http://creativecommons.org/ns#"
   xmlns:rdf="http://www.w3.org/1999/02/22-rdf-syntax-ns#"
   xmlns:svg="http://www.w3.org/2000/svg"
   xmlns="http://www.w3.org/2000/svg"
   xmlns:sodipodi="http://sodipodi.sourceforge.net/DTD/sodipodi-0.dtd"
   xmlns:inkscape="http://www.inkscape.org/namespaces/inkscape"
   width="128"
   height="64"
   viewBox="0 0 33.866666 16.933333"
   version="1.1"
   id="svg8"
   inkscape:version="1.0.2-2 (e86c870879, 2021-01-15)"
   sodipodi:docname="ze_sede_3.svg"
   inkscape:export-filename="C:\Users\Ari\Documents\GitHub\PI3_2022_1\imagens PI3\ze_sede_2.png"
   inkscape:export-xdpi="96"
   inkscape:export-ydpi="96">
  <defs
     id="defs2">
    <inkscape:path-effect
       effect="bspline"
       id="path-effect935"
       is_visible="true"
       lpeversion="1"
       weight="33.333333"
       steps="2"
       helper_size="0"
       apply_no_weight="true"
       apply_with_weight="true"
       only_selected="false" />
    <inkscape:path-effect
       effect="bspline"
       id="path-effect931"
       is_visible="true"
       lpeversion="1"
       weight="33.333333"
       steps="2"
       helper_size="0"
       apply_no_weight="true"
       apply_with_weight="true"
       only_selected="false" />
    <inkscape:path-effect
       effect="bspline"
       id="path-effect927"
       is_visible="true"
       lpeversion="1"
       weight="33.333333"
       steps="2"
       helper_size="0"
       apply_no_weight="true"
       apply_with_weight="true"
       only_selected="false" />
    <inkscape:path-effect
       effect="bspline"
       id="path-effect923"
       is_visible="true"
       lpeversion="1"
       weight="33.333333"
       steps="2"
       helper_size="0"
       apply_no_weight="true"
       apply_with_weight="true"
       only_selected="false" />
    <inkscape:path-effect
       effect="bspline"
       id="path-effect919"
       is_visible="true"
       lpeversion="1"
       weight="33.333333"
       steps="2"
       helper_size="0"
       apply_no_weight="true"
       apply_with_weight="true"
       only_selected="false" />
    <inkscape:path-effect
       effect="bspline"
       id="path-effect92"
       is_visible="true"
       lpeversion="1"
       weight="33.333333"
       steps="2"
       helper_size="0"
       apply_no_weight="true"
       apply_with_weight="true"
       only_selected="false" />
    <inkscape:path-effect
       effect="powerstroke"
       id="path-effect66"
       is_visible="true"
       lpeversion="1"
       offset_points="1.0343088,0.039150809"
       sort_points="true"
       interpolator_type="CentripetalCatmullRom"
       interpolator_beta="0.75"
       start_linecap_type="zerowidth"
       linejoin_type="spiro"
       miter_limit="4"
       scale_width="1"
       end_linecap_type="zerowidth" />
    <inkscape:path-effect
       effect="simplify"
       id="path-effect64"
       is_visible="true"
       lpeversion="1"
       steps="1"
       threshold="0.0047745358"
       smooth_angles="0"
       helper_size="0"
       simplify_individual_paths="false"
       simplify_just_coalesce="false"
       step="1" />
    <inkscape:path-effect
       effect="powerstroke"
       id="path-effect59"
       is_visible="true"
       lpeversion="1"
       offset_points="0.41923091,0.11073521"
       sort_points="true"
       interpolator_type="CentripetalCatmullRom"
       interpolator_beta="0.75"
       start_linecap_type="zerowidth"
       linejoin_type="spiro"
       miter_limit="4"
       scale_width="1"
       end_linecap_type="zerowidth" />
    <inkscape:path-effect
       effect="simplify"
       id="path-effect57"
       is_visible="true"
       lpeversion="1"
       steps="1"
       threshold="0.0047745358"
       smooth_angles="0"
       helper_size="0"
       simplify_individual_paths="false"
       simplify_just_coalesce="false"
       step="1" />
    <inkscape:path-effect
       effect="bspline"
       id="path-effect54"
       is_visible="true"
       lpeversion="1"
       weight="33.333333"
       steps="2"
       helper_size="0"
       apply_no_weight="true"
       apply_with_weight="true"
       only_selected="false" />
    <inkscape:path-effect
       effect="bspline"
       id="path-effect50"
       is_visible="true"
       lpeversion="1"
       weight="33.333333"
       steps="2"
       helper_size="0"
       apply_no_weight="true"
       apply_with_weight="true"
       only_selected="false" />
    <inkscape:path-effect
       effect="bspline"
       id="path-effect46"
       is_visible="true"
       lpeversion="1"
       weight="33.333333"
       steps="2"
       helper_size="0"
       apply_no_weight="true"
       apply_with_weight="true"
       only_selected="false" />
    <inkscape:path-effect
       effect="bspline"
       id="path-effect89"
       is_visible="true"
       lpeversion="1"
       weight="33.333333"
       steps="2"
       helper_size="0"
       apply_no_weight="true"
       apply_with_weight="true"
       only_selected="false" />
    <inkscape:path-effect
       effect="bspline"
       id="path-effect85"
       is_visible="true"
       lpeversion="1"
       weight="33.333333"
       steps="2"
       helper_size="0"
       apply_no_weight="true"
       apply_with_weight="true"
       only_selected="false" />
    <inkscape:path-effect
       effect="bspline"
       id="path-effect81"
       is_visible="true"
       lpeversion="1"
       weight="33.333333"
       steps="2"
       helper_size="0"
       apply_no_weight="true"
       apply_with_weight="true"
       only_selected="false" />
    <inkscape:path-effect
       effect="spiro"
       id="path-effect77"
       is_visible="true"
       lpeversion="1" />
    <inkscape:path-effect
       effect="spiro"
       id="path-effect73"
       is_visible="true"
       lpeversion="1" />
    <inkscape:path-effect
       effect="bspline"
       id="path-effect1120"
       is_visible="true"
       lpeversion="1"
       weight="33.333333"
       steps="2"
       helper_size="0"
       apply_no_weight="true"
       apply_with_weight="true"
       only_selected="false" />
    <inkscape:path-effect
       effect="bspline"
       id="path-effect1118"
       is_visible="true"
       lpeversion="1"
       weight="33.333333"
       steps="2"
       helper_size="0"
       apply_no_weight="true"
       apply_with_weight="true"
       only_selected="false" />
    <inkscape:path-effect
       effect="bspline"
       id="path-effect1116"
       is_visible="true"
       lpeversion="1"
       weight="33.333333"
       steps="2"
       helper_size="0"
       apply_no_weight="true"
       apply_with_weight="true"
       only_selected="false" />
    <inkscape:path-effect
       effect="bspline"
       id="path-effect1114"
       is_visible="true"
       lpeversion="1"
       weight="33.333333"
       steps="2"
       helper_size="0"
       apply_no_weight="true"
       apply_with_weight="true"
       only_selected="false" />
    <inkscape:path-effect
       effect="bspline"
       id="path-effect1112"
       is_visible="true"
       lpeversion="1"
       weight="33.333333"
       steps="2"
       helper_size="0"
       apply_no_weight="true"
       apply_with_weight="true"
       only_selected="false" />
    <inkscape:path-effect
       effect="bspline"
       id="path-effect852"
       is_visible="true"
       lpeversion="1"
       weight="33.333333"
       steps="2"
       helper_size="0"
       apply_no_weight="true"
       apply_with_weight="true"
       only_selected="false" />
    <inkscape:path-effect
       effect="bspline"
       id="path-effect843"
       is_visible="true"
       lpeversion="1"
       weight="33.333333"
       steps="2"
       helper_size="0"
       apply_no_weight="true"
       apply_with_weight="true"
       only_selected="false" />
    <inkscape:path-effect
       effect="bspline"
       id="path-effect835"
       is_visible="true"
       lpeversion="1"
       weight="33.333333"
       steps="2"
       helper_size="0"
       apply_no_weight="true"
       apply_with_weight="true"
       only_selected="false" />
    <inkscape:path-effect
       effect="bspline"
       id="path-effect850"
       is_visible="true"
       lpeversion="1"
       weight="33.333333"
       steps="2"
       helper_size="0"
       apply_no_weight="true"
       apply_with_weight="true"
       only_selected="false" />
    <inkscape:path-effect
       effect="bspline"
       id="path-effect854"
       is_visible="true"
       lpeversion="1"
       weight="33.333333"
       steps="2"
       helper_size="0"
       apply_no_weight="true"
       apply_with_weight="true"
       only_selected="false" />
    <inkscape:path-effect
       effect="bspline"
       id="path-effect858"
       is_visible="true"
       lpeversion="1"
       weight="33.333333"
       steps="2"
       helper_size="0"
       apply_no_weight="true"
       apply_with_weight="true"
       only_selected="false" />
    <inkscape:path-effect
       effect="bspline"
       id="path-effect863"
       is_visible="true"
       lpeversion="1"
       weight="33.333333"
       steps="2"
       helper_size="0"
       apply_no_weight="true"
       apply_with_weight="true"
       only_selected="false" />
    <inkscape:path-effect
       effect="bspline"
       id="path-effect880"
       is_visible="true"
       lpeversion="1"
       weight="33.333333"
       steps="2"
       helper_size="0"
       apply_no_weight="true"
       apply_with_weight="true"
       only_selected="false" />
    <inkscape:path-effect
       effect="bspline"
       id="path-effect884"
       is_visible="true"
       lpeversion="1"
       weight="33.333333"
       steps="2"
       helper_size="0"
       apply_no_weight="true"
       apply_with_weight="true"
       only_selected="false" />
    <inkscape:path-effect
       effect="bspline"
       id="path-effect896"
       is_visible="true"
       lpeversion="1"
       weight="33.333333"
       steps="2"
       helper_size="0"
       apply_no_weight="true"
       apply_with_weight="true"
       only_selected="false" />
    <inkscape:path-effect
       effect="bspline"
       id="path-effect898"
       is_visible="true"
       lpeversion="1"
       weight="33.333333"
       steps="2"
       helper_size="0"
       apply_no_weight="true"
       apply_with_weight="true"
       only_selected="false" />
    <inkscape:path-effect
       effect="bspline"
       id="path-effect906"
       is_visible="true"
       lpeversion="1"
       weight="33.333333"
       steps="2"
       helper_size="0"
       apply_no_weight="true"
       apply_with_weight="true"
       only_selected="false" />
    <inkscape:path-effect
       effect="bspline"
       id="path-effect908"
       is_visible="true"
       lpeversion="1"
       weight="33.333333"
       steps="2"
       helper_size="0"
       apply_no_weight="true"
       apply_with_weight="true"
       only_selected="false" />
    <inkscape:path-effect
       effect="bspline"
       id="path-effect916"
       is_visible="true"
       lpeversion="1"
       weight="33.333333"
       steps="2"
       helper_size="0"
       apply_no_weight="true"
       apply_with_weight="true"
       only_selected="false" />
    <inkscape:path-effect
       effect="bspline"
       id="path-effect918"
       is_visible="true"
       lpeversion="1"
       weight="33.333333"
       steps="2"
       helper_size="0"
       apply_no_weight="true"
       apply_with_weight="true"
       only_selected="false" />
    <inkscape:path-effect
       effect="bspline"
       id="path-effect926"
       is_visible="true"
       lpeversion="1"
       weight="33.333333"
       steps="2"
       helper_size="0"
       apply_no_weight="true"
       apply_with_weight="true"
       only_selected="false" />
    <inkscape:path-effect
       effect="bspline"
       id="path-effect928"
       is_visible="true"
       lpeversion="1"
       weight="33.333333"
       steps="2"
       helper_size="0"
       apply_no_weight="true"
       apply_with_weight="true"
       only_selected="false" />
    <inkscape:path-effect
       effect="bspline"
       id="path-effect936"
       is_visible="true"
       lpeversion="1"
       weight="33.333333"
       steps="2"
       helper_size="0"
       apply_no_weight="true"
       apply_with_weight="true"
       only_selected="false" />
    <inkscape:path-effect
       effect="bspline"
       id="path-effect938"
       is_visible="true"
       lpeversion="1"
       weight="33.333333"
       steps="2"
       helper_size="0"
       apply_no_weight="true"
       apply_with_weight="true"
       only_selected="false" />
  </defs>
  <sodipodi:namedview
     id="base"
     pagecolor="#ffffff"
     bordercolor="#666666"
     borderopacity="1.0"
     inkscape:pageopacity="0.0"
     inkscape:pageshadow="2"
     inkscape:zoom="11.2"
     inkscape:cx="55.627323"
     inkscape:cy="35.04558"
     inkscape:document-units="px"
     inkscape:current-layer="layer1"
     inkscape:document-rotation="0"
     showgrid="false"
     units="px"
     inkscape:window-width="1366"
     inkscape:window-height="705"
     inkscape:window-x="-8"
     inkscape:window-y="-8"
     inkscape:window-maximized="1">
    <inkscape:grid
       type="xygrid"
       id="grid864" />
  </sodipodi:namedview>
  <metadata
     id="metadata5">
    <rdf:RDF>
      <cc:Work
         rdf:about="">
        <dc:format>image/svg+xml</dc:format>
        <dc:type
           rdf:resource="http://purl.org/dc/dcmitype/StillImage" />
        <dc:title></dc:title>
      </cc:Work>
    </rdf:RDF>
  </metadata>
  <g
     inkscape:label="Layer 1"
     inkscape:groupmode="layer"
     id="layer1">
    <rect
       style="fill:#ffffff;fill-rule:evenodd;stroke-width:0.264583"
       id="rect14"
       width="33.866665"
       height="16.933332"
       x="5.567627e-07"
       y="2.7838135e-07"
       sodipodi:insensitive="true" />
    <path
       id="path860"
       style="fill:#000000;fill-rule:evenodd;stroke-width:0.245765"
       d="m 10.176205,5.4069343 a 1.4699824,1.8736488 0 0 0 -0.09043,0.6456192 1.4699824,1.8736488 0 0 0 1.470194,1.87399 1.4699824,1.8736488 0 0 0 1.469678,-1.87399 1.4699824,1.8736488 0 0 0 -0.462504,-1.3643612 2.0661342,3.2864598 76.288496 0 1 -0.02222,0.013822 2.0661342,3.2864598 76.288496 0 1 -0.0677,0.040128 2.0661342,3.2864598 76.288496 0 1 -0.06873,0.039236 2.0661342,3.2864598 76.288496 0 1 -0.06976,0.038345 2.0661342,3.2864598 76.288496 0 1 -0.04961,0.026306 2.0661342,3.2864598 76.288496 0 1 -0.07183,0.036116 2.0661342,3.2864598 76.288496 0 1 -0.07235,0.035669 2.0661342,3.2864598 76.288496 0 1 -0.0739,0.034332 2.0661342,3.2864598 76.288496 0 1 -0.07441,0.033441 2.0661342,3.2864598 76.288496 0 1 -0.07545,0.032103 2.0661342,3.2864598 76.288496 0 1 -0.07648,0.03121 2.0661342,3.2864598 76.288496 0 1 -0.077,0.029873 2.0661342,3.2864598 76.288496 0 1 -0.07752,0.028536 2.0661342,3.2864598 76.288496 0 1 -0.07855,0.027644 2.0661342,3.2864598 76.288496 0 1 -0.07906,0.026306 2.0661342,3.2864598 76.288496 0 1 -0.07958,0.024969 2.0661342,3.2864598 76.288496 0 1 -0.0801,0.023631 2.0661342,3.2864598 76.288496 0 1 -0.0801,0.022739 2.0661342,3.2864598 76.288496 0 1 -0.08113,0.020957 2.0661342,3.2864598 76.288496 0 1 -0.08113,0.020064 2.0661342,3.2864598 76.288496 0 1 -0.08165,0.018726 2.0661342,3.2864598 76.288496 0 1 -0.08165,0.017388 2.0661342,3.2864598 76.288496 0 1 -0.08216,0.016051 2.0661342,3.2864598 76.288496 0 1 -0.08217,0.014713 2.0661342,3.2864598 76.288496 0 1 -0.08217,0.01293 2.0661342,3.2864598 76.288496 0 1 -0.08217,0.012038 2.0661342,3.2864598 76.288496 0 1 -0.08217,0.0107 2.0661342,3.2864598 76.288496 0 1 -0.08217,0.00936 2.0661342,3.2864598 76.288496 0 1 -0.08217,0.00758 2.0661342,3.2864598 76.288496 0 1 -0.08165,0.00669 2.0661342,3.2864598 76.288496 0 1 -0.08165,0.0049 2.0661342,3.2864598 76.288496 0 1 -0.04858,0.00223 z" />
    <path
       id="path870"
       style="fill:#000000;fill-rule:evenodd;stroke-width:0.241815"
       d="m 23.837469,5.4164094 a 1.4699824,1.8139016 0 0 1 0.09043,0.6250316 1.4699824,1.8139016 0 0 1 -1.470195,1.8142319 1.4699824,1.8139016 0 0 1 -1.469677,-1.8142319 1.4699824,1.8139016 0 0 1 0.462504,-1.3208543 3.2808779,2.0036521 12.781187 0 0 0.02222,0.013381 3.2808779,2.0036521 12.781187 0 0 0.0677,0.038849 3.2808779,2.0036521 12.781187 0 0 0.06873,0.037985 3.2808779,2.0036521 12.781187 0 0 0.06976,0.037122 3.2808779,2.0036521 12.781187 0 0 0.04961,0.025467 3.2808779,2.0036521 12.781187 0 0 0.07183,0.034964 3.2808779,2.0036521 12.781187 0 0 0.07235,0.034532 3.2808779,2.0036521 12.781187 0 0 0.0739,0.033237 3.2808779,2.0036521 12.781187 0 0 0.07441,0.032374 3.2808779,2.0036521 12.781187 0 0 0.07545,0.031079 3.2808779,2.0036521 12.781187 0 0 0.07648,0.030215 3.2808779,2.0036521 12.781187 0 0 0.077,0.02892 3.2808779,2.0036521 12.781187 0 0 0.07751,0.027626 3.2808779,2.0036521 12.781187 0 0 0.07855,0.026762 3.2808779,2.0036521 12.781187 0 0 0.07906,0.025467 3.2808779,2.0036521 12.781187 0 0 0.07958,0.024173 3.2808779,2.0036521 12.781187 0 0 0.0801,0.022877 3.2808779,2.0036521 12.781187 0 0 0.0801,0.022014 3.2808779,2.0036521 12.781187 0 0 0.08113,0.020288 3.2808779,2.0036521 12.781187 0 0 0.08113,0.019424 3.2808779,2.0036521 12.781187 0 0 0.08165,0.018129 3.2808779,2.0036521 12.781187 0 0 0.08165,0.016835 3.2808779,2.0036521 12.781187 0 0 0.08217,0.01554 3.2808779,2.0036521 12.781187 0 0 0.08216,0.014244 3.2808779,2.0036521 12.781187 0 0 0.08217,0.012518 3.2808779,2.0036521 12.781187 0 0 0.08216,0.011655 3.2808779,2.0036521 12.781187 0 0 0.08217,0.010359 3.2808779,2.0036521 12.781187 0 0 0.08216,0.00906 3.2808779,2.0036521 12.781187 0 0 0.08217,0.00734 3.2808779,2.0036521 12.781187 0 0 0.08165,0.00647 3.2808779,2.0036521 12.781187 0 0 0.08165,0.00474 3.2808779,2.0036521 12.781187 0 0 0.04858,0.00216 z" />
    <ellipse
       style="fill:#000000;fill-rule:evenodd;stroke-width:0.101104"
       id="path88"
       cx="17.121954"
       cy="11.008164"
       rx="1.2862346"
       ry="0.1503391" />
    <path
       style="fill:none;stroke:#000000;stroke-width:0.079375;stroke-linecap:round;stroke-linejoin:miter;stroke-opacity:1;stroke-miterlimit:4;stroke-dasharray:none"
       d="m 15.919241,10.223059 c 0.05026,0.106114 0.100377,0.211907 0.105843,0.32319 0.0055,0.111283 -0.03351,0.228213 -0.07243,0.344984"
       id="path90"
       inkscape:path-effect="#path-effect92"
       inkscape:original-d="m 15.919241,10.223059 c 0.05038,0.106059 0.100491,0.211853 0.150339,0.317383 -0.03871,0.117197 -0.07769,0.234125 -0.11693,0.350791" />
    <path
       style="fill:none;stroke:#000000;stroke-width:0.079375;stroke-linecap:round;stroke-linejoin:miter;stroke-miterlimit:4;stroke-dasharray:none;stroke-opacity:1"
       d="m 17.261738,10.07272 c -0.05026,0.106114 -0.100377,0.211907 -0.105843,0.32319 -0.0055,0.111283 0.03351,0.228213 0.07243,0.344984"
       id="path917"
       inkscape:path-effect="#path-effect919"
       inkscape:original-d="m 17.261738,10.07272 c -0.05038,0.106059 -0.100491,0.211853 -0.150339,0.317383 0.03871,0.117197 0.07769,0.234125 0.11693,0.350791" />
    <path
       style="fill:none;stroke:#000000;stroke-width:0.079375;stroke-linecap:round;stroke-linejoin:miter;stroke-miterlimit:4;stroke-dasharray:none;stroke-opacity:1"
       d="m 18.213886,10.106129 c -0.05026,0.106114 -0.100377,0.211907 -0.105843,0.32319 -0.0055,0.111283 0.03351,0.228213 0.07243,0.344984"
       id="path921"
       inkscape:path-effect="#path-effect923"
       inkscape:original-d="m 18.213886,10.106129 c -0.05038,0.106059 -0.100491,0.211853 -0.150339,0.317383 0.03871,0.117197 0.07769,0.234125 0.11693,0.350791" />
    <path
       style="fill:none;stroke:#000000;stroke-width:0.0557525;stroke-linecap:round;stroke-linejoin:miter;stroke-miterlimit:4;stroke-dasharray:none;stroke-opacity:1"
       d="m 15.986058,11.349604 c 0.05031,0.0524 0.100418,0.104589 0.105901,0.159413 0.0055,0.05482 -0.03349,0.112513 -0.07249,0.170234"
       id="path925"
       inkscape:path-effect="#path-effect927"
       inkscape:original-d="m 15.986058,11.349604 c 0.05038,0.05233 0.100491,0.104519 0.150339,0.156583 -0.03871,0.05782 -0.07769,0.115506 -0.11693,0.173064" />
    <path
       style="fill:none;stroke:#000000;stroke-width:0.0557525;stroke-linecap:round;stroke-linejoin:miter;stroke-miterlimit:4;stroke-dasharray:none;stroke-opacity:1"
       d="m 17.328555,11.275433 c -0.0503,0.05239 -0.100418,0.104589 -0.105902,0.159413 -0.0055,0.05482 0.03349,0.112514 0.07249,0.170235"
       id="path929"
       inkscape:path-effect="#path-effect931"
       inkscape:original-d="m 17.328555,11.275433 c -0.05038,0.05232 -0.100491,0.104519 -0.150339,0.156583 0.03871,0.05782 0.07769,0.115507 0.11693,0.173065" />
    <path
       style="fill:none;stroke:#000000;stroke-width:0.0557525;stroke-linecap:round;stroke-linejoin:miter;stroke-miterlimit:4;stroke-dasharray:none;stroke-opacity:1"
       d="m 18.280703,11.291916 c -0.0503,0.05239 -0.100419,0.104589 -0.105902,0.159413 -0.0055,0.05482 0.03349,0.112513 0.07249,0.170234"
       id="path933"
       inkscape:path-effect="#path-effect935"
       inkscape:original-d="m 18.280703,11.291916 c -0.05038,0.05232 -0.100491,0.104519 -0.150339,0.156582 0.03871,0.05782 0.07769,0.115507 0.11693,0.173065" />
  </g>
</svg>
