<?xml version="1.0" encoding="UTF-8" standalone="no"?>
<svg
   xmlns:dc="http://purl.org/dc/elements/1.1/"
   xmlns:cc="http://creativecommons.org/ns#"
   xmlns:rdf="http://www.w3.org/1999/02/22-rdf-syntax-ns#"
   xmlns:svg="http://www.w3.org/2000/svg"
   xmlns="http://www.w3.org/2000/svg"
   xmlns:sodipodi="http://sodipodi.sourceforge.net/DTD/sodipodi-0.dtd"
   xmlns:inkscape="http://www.inkscape.org/namespaces/inkscape"
   width="128"
   height="64"
   viewBox="0 0 33.866666 16.933333"
   version="1.1"
   id="svg8"
   inkscape:version="1.0.2-2 (e86c870879, 2021-01-15)"
   sodipodi:docname="ze_triste_2.svg"
   inkscape:export-filename="C:\Users\Ari\Documents\GitHub\PI3_2022_1\imagens PI3\ze_triste_2.png"
   inkscape:export-xdpi="96"
   inkscape:export-ydpi="96">
  <defs
     id="defs2">
    <inkscape:path-effect
       effect="bspline"
       id="path-effect852"
       is_visible="true"
       lpeversion="1"
       weight="33.333333"
       steps="2"
       helper_size="0"
       apply_no_weight="true"
       apply_with_weight="true"
       only_selected="false" />
    <inkscape:path-effect
       effect="bspline"
       id="path-effect843"
       is_visible="true"
       lpeversion="1"
       weight="33.333333"
       steps="2"
       helper_size="0"
       apply_no_weight="true"
       apply_with_weight="true"
       only_selected="false" />
    <inkscape:path-effect
       effect="bspline"
       id="path-effect835"
       is_visible="true"
       lpeversion="1"
       weight="33.333333"
       steps="2"
       helper_size="0"
       apply_no_weight="true"
       apply_with_weight="true"
       only_selected="false" />
  </defs>
  <sodipodi:namedview
     id="base"
     pagecolor="#ffffff"
     bordercolor="#666666"
     borderopacity="1.0"
     inkscape:pageopacity="0.0"
     inkscape:pageshadow="2"
     inkscape:zoom="3.959798"
     inkscape:cx="33.652709"
     inkscape:cy="50.436125"
     inkscape:document-units="px"
     inkscape:current-layer="layer1"
     inkscape:document-rotation="0"
     showgrid="false"
     units="px"
     inkscape:window-width="1366"
     inkscape:window-height="705"
     inkscape:window-x="-8"
     inkscape:window-y="-8"
     inkscape:window-maximized="1">
    <inkscape:grid
       type="xygrid"
       id="grid864" />
  </sodipodi:namedview>
  <metadata
     id="metadata5">
    <rdf:RDF>
      <cc:Work
         rdf:about="">
        <dc:format>image/svg+xml</dc:format>
        <dc:type
           rdf:resource="http://purl.org/dc/dcmitype/StillImage" />
        <dc:title></dc:title>
      </cc:Work>
    </rdf:RDF>
  </metadata>
  <g
     inkscape:label="Layer 1"
     inkscape:groupmode="layer"
     id="layer1">
    <rect
       style="fill:#ffffff;fill-rule:evenodd;stroke-width:0.264583"
       id="rect14"
       width="33.866665"
       height="16.933332"
       x="5.567627e-07"
       y="2.7838135e-07" />
    <path
       id="path845"
       style="fill:none;fill-rule:evenodd;stroke:#000000;stroke-width:0.72773;stroke-linecap:round;stroke-miterlimit:4;stroke-dasharray:none"
       d="m 22.182218,13.388732 c -0.87095,-1.753349 -2.395025,-3.6663136 -5.203121,-3.6663136 -2.808103,0 -4.423712,1.7675536 -5.294649,3.5209096"
       sodipodi:nodetypes="csc" />
    <path
       id="path860"
       style="fill:#000000;fill-rule:evenodd;stroke-width:0.264583"
       d="m 11.091829,4.6560464 a 1.4699824,2.1715648 0 0 1 -1.4701943,-2.1714437 1.4699824,2.1715648 0 0 1 0.00723,-0.2129068 3.3074604,2.1548605 0 0 0 1.6298743,0.2795693 3.3074604,2.1548605 0 0 0 1.301213,-0.1741495 1.4699824,2.1715648 0 0 1 0.0015,0.107487 1.4699824,2.1715648 0 0 1 -1.469678,2.1714437 z" />
    <path
       id="path842"
       style="fill:#000000;fill-rule:evenodd;stroke-width:0.264583"
       d="m 21.985515,4.5826874 a 1.4699824,-2.1715648 0 0 0 1.470194,-2.1714437 1.4699824,-2.1715648 0 0 0 -0.0072,-0.2129068 3.3074604,-2.1548605 0 0 1 -1.629875,0.2795694 3.3074604,-2.1548605 0 0 1 -1.301213,-0.1741496 1.4699824,-2.1715648 0 0 0 -0.0015,0.107487 1.4699824,-2.1715648 0 0 0 1.469678,2.1714437 z" />
  </g>
</svg>
