<?xml version="1.0" encoding="UTF-8" standalone="no"?>
<svg
   xmlns:dc="http://purl.org/dc/elements/1.1/"
   xmlns:cc="http://creativecommons.org/ns#"
   xmlns:rdf="http://www.w3.org/1999/02/22-rdf-syntax-ns#"
   xmlns:svg="http://www.w3.org/2000/svg"
   xmlns="http://www.w3.org/2000/svg"
   xmlns:sodipodi="http://sodipodi.sourceforge.net/DTD/sodipodi-0.dtd"
   xmlns:inkscape="http://www.inkscape.org/namespaces/inkscape"
   width="200"
   height="200"
   viewBox="0 0 52.916668 52.916668"
   version="1.1"
   id="svg871"
   sodipodi:docname="ze_vasinho.svg"
   inkscape:version="1.0.2-2 (e86c870879, 2021-01-15)"
   inkscape:export-filename="D:\imagens\pi3\ze_vasinho.png"
   inkscape:export-xdpi="96"
   inkscape:export-ydpi="96">
  <defs
     id="defs865">
    <inkscape:path-effect
       effect="bspline"
       id="path-effect1475"
       is_visible="true"
       lpeversion="1"
       weight="33.333333"
       steps="2"
       helper_size="0"
       apply_no_weight="true"
       apply_with_weight="true"
       only_selected="false" />
    <inkscape:path-effect
       effect="bspline"
       id="path-effect1467"
       is_visible="true"
       lpeversion="1"
       weight="33.333333"
       steps="2"
       helper_size="0"
       apply_no_weight="true"
       apply_with_weight="true"
       only_selected="false" />
    <filter
       inkscape:collect="always"
       style="color-interpolation-filters:sRGB"
       id="filter991"
       x="-0.11624392"
       width="1.2324878"
       y="-0.84176636"
       height="2.6835327">
      <feGaussianBlur
         inkscape:collect="always"
         stdDeviation="3.8445255"
         id="feGaussianBlur993" />
    </filter>
  </defs>
  <sodipodi:namedview
     id="base"
     pagecolor="#ffffff"
     bordercolor="#666666"
     borderopacity="1.0"
     inkscape:pageopacity="0.0"
     inkscape:pageshadow="2"
     inkscape:zoom="0.98994949"
     inkscape:cx="260.21415"
     inkscape:cy="206.78782"
     inkscape:document-units="mm"
     inkscape:current-layer="layer1"
     inkscape:document-rotation="0"
     showgrid="false"
     units="px"
     inkscape:window-width="1366"
     inkscape:window-height="705"
     inkscape:window-x="-8"
     inkscape:window-y="-8"
     inkscape:window-maximized="1">
    <inkscape:grid
       type="xygrid"
       id="grid1463" />
  </sodipodi:namedview>
  <metadata
     id="metadata868">
    <rdf:RDF>
      <cc:Work
         rdf:about="">
        <dc:format>image/svg+xml</dc:format>
        <dc:type
           rdf:resource="http://purl.org/dc/dcmitype/StillImage" />
        <dc:title></dc:title>
      </cc:Work>
    </rdf:RDF>
  </metadata>
  <g
     inkscape:groupmode="layer"
     id="layer2"
     inkscape:label="Layer 2" />
  <g
     inkscape:label="Layer 1"
     inkscape:groupmode="layer"
     id="layer1">
    <circle
       style="fill:#803300;fill-rule:evenodd;stroke-width:0.343871"
       id="circle1442"
       cx="66.309204"
       cy="87.659294"
       r="0" />
    <g
       id="g1109"
       transform="matrix(0.36497374,0,0,0.36497374,1.7374445,-0.50098326)">
      <ellipse
         style="fill:#2b1100;fill-rule:evenodd;stroke-width:0.219855;filter:url(#filter991)"
         id="path989"
         cx="67.733337"
         cy="129.3327"
         rx="39.6875"
         ry="5.4806547" />
      <g
         id="g986"
         transform="matrix(0.96759497,0,0,0.96759497,2.1949007,2.7460753)">
        <g
           id="g1527"
           transform="translate(3.5603841e-6,3.9687497)">
          <g
             id="g1457">
            <path
               id="path1438"
               style="fill:#803300;fill-rule:evenodd;stroke-width:0.264583"
               d="m 41.730076,113.733 a 8.41899,8.41899 0 0 0 -4.102076,7.22798 8.41899,8.41899 0 0 0 8.419123,8.41913 8.41899,8.41899 0 0 0 8.419124,-8.41913 8.41899,8.41899 0 0 0 -0.305925,-2.24689 41.694047,32.874148 0 0 1 -12.430246,-4.98109 z" />
            <ellipse
               style="fill:#803300;fill-rule:evenodd;stroke-width:0.255402"
               id="path1444"
               cx="67.73333"
               cy="86.19442"
               rx="41.694046"
               ry="32.874149" />
            <path
               id="path1452"
               style="fill:#803300;fill-rule:evenodd;stroke-width:0.264583"
               d="m 93.73617,113.73322 a 8.41899,8.41899 0 0 1 4.10208,7.22798 8.41899,8.41899 0 0 1 -8.41912,8.41913 A 8.41899,8.41899 0 0 1 81,120.9612 a 8.41899,8.41899 0 0 1 0.30593,-2.24689 41.694047,32.874148 0 0 0 12.43024,-4.98109 z" />
          </g>
          <ellipse
             style="fill:#000000;fill-rule:evenodd;stroke-width:0.264583"
             id="path1459"
             cx="47.73341"
             cy="79.98764"
             rx="3.8754082"
             ry="7.0826426" />
          <ellipse
             style="fill:#000000;fill-rule:evenodd;stroke-width:0.264583"
             id="ellipse1461"
             cx="87.733406"
             cy="79.98793"
             rx="3.8754082"
             ry="7.0826426" />
          <path
             id="path1488"
             style="fill:none;fill-rule:evenodd;stroke:#000000;stroke-width:5;stroke-linecap:round;stroke-linejoin:round;stroke-miterlimit:4;stroke-dasharray:none"
             d="M 80.422132,96.572917 A 13.321141,8.6909332 0 0 1 67.733385,102.61787 13.321141,8.6909332 0 0 1 55.044535,96.572707" />
        </g>
        <g
           id="g970">
          <path
             id="path919"
             style="fill:#447821;fill-opacity:1;fill-rule:evenodd;stroke:#447821;stroke-width:0.27187;stroke-opacity:1"
             d="m 77.768776,1.0030402 c 0,0 -2.163953,11.8570588 -8.218103,23.6931278 -1.986786,3.884227 -3.33044,7.840948 -4.170289,11.427209 0.346202,-2.527686 0.579988,-4.729401 0.63872,-6.172234 C 66.622436,15.133409 58.539458,3.461805 58.539458,3.461805 58.420737,3.191923 58.945437,13.457501 56.439328,27.590564 51.142452,17.955398 48.691997,9.230445 48.691997,9.230445 c 0,0 -1.179219,13.150072 3.373956,26.064558 0.04157,0.117875 0.08466,0.232604 0.126606,0.349851 C 43.322535,26.122325 38.745318,15.76803 38.745318,15.76803 c 0,0 -0.258501,12.735744 5.998083,24.354069 3.817889,7.089722 8.512148,12.667527 12.094352,15.704984 a 41.694047,32.874148 0 0 1 0.255799,-0.05116 41.694047,32.874148 0 0 1 0.285772,-0.05478 41.694047,32.874148 0 0 1 0.286287,-0.05374 41.694047,32.874148 0 0 1 0.286803,-0.05219 41.694047,32.874148 0 0 1 0.287321,-0.05013 41.694047,32.874148 0 0 1 0.287838,-0.04909 41.694047,32.874148 0 0 1 0.288353,-0.04702 41.694047,32.874148 0 0 1 0.288357,-0.04548 41.694047,32.874148 0 0 1 0.288872,-0.04444 41.694047,32.874148 0 0 1 0.289385,-0.04237 41.694047,32.874148 0 0 1 0.289907,-0.04031 41.694047,32.874148 0 0 1 0.289904,-0.03927 41.694047,32.874148 0 0 1 0.290422,-0.03772 41.694047,32.874148 0 0 1 0.290939,-0.03566 41.694047,32.874148 0 0 1 0.290938,-0.03462 41.694047,32.874148 0 0 1 0.291454,-0.03256 41.694047,32.874148 0 0 1 0.291971,-0.031 41.694047,32.874148 0 0 1 0.291973,-0.02946 41.694047,32.874148 0 0 1 0.291973,-0.02791 41.694047,32.874148 0 0 1 0.292486,-0.02636 41.694047,32.874148 0 0 1 0.292489,-0.02429 41.694047,32.874148 0 0 1 0.293008,-0.02325 41.694047,32.874148 0 0 1 0.293004,-0.02119 41.694047,32.874148 0 0 1 0.293521,-0.01964 41.694047,32.874148 0 0 1 0.293524,-0.01809 41.694047,32.874148 0 0 1 0.29352,-0.01602 41.694047,32.874148 0 0 1 0.293524,-0.01499 41.694047,32.874148 0 0 1 0.294037,-0.01292 41.694047,32.874148 0 0 1 0.294039,-0.01188 41.694047,32.874148 0 0 1 0.294039,-0.0098 41.694047,32.874148 0 0 1 0.29404,-0.0083 41.694047,32.874148 0 0 1 0.294039,-0.0062 41.694047,32.874148 0 0 1 0.294556,-0.0052 41.694047,32.874148 0 0 1 0.294039,-0.0031 41.694047,32.874148 0 0 1 0.294555,-0.0021 41.694047,32.874148 0 0 1 0.152445,0 41.694047,32.874148 0 0 1 0.294556,0.001 41.694047,32.874148 0 0 1 0.294039,0.0021 41.694047,32.874148 0 0 1 0.294555,0.0041 41.694047,32.874148 0 0 1 0.29404,0.0057 41.694047,32.874148 0 0 1 0.294039,0.0078 41.694047,32.874148 0 0 1 0.294039,0.0088 41.694047,32.874148 0 0 1 0.294037,0.01085 41.694047,32.874148 0 0 1 0.29404,0.01189 41.694047,32.874148 0 0 1 0.294039,0.01395 41.694047,32.874148 0 0 1 0.293521,0.0155 41.694047,32.874148 0 0 1 0.293523,0.01757 41.694047,32.874148 0 0 1 0.293005,0.0186 41.694047,32.874148 0 0 1 0.293524,0.02067 41.694047,32.874148 0 0 1 0.293004,0.0217 41.694047,32.874148 0 0 1 0.292489,0.02377 41.694047,32.874148 0 0 1 0.293005,0.02532 41.694047,32.874148 0 0 1 0.291971,0.02739 41.694047,32.874148 0 0 1 0.291973,0.02842 41.694047,32.874148 0 0 1 0.291973,0.02997 41.694047,32.874148 0 0 1 0.291454,0.03204 41.694047,32.874148 0 0 1 0.291454,0.03359 41.694047,32.874148 0 0 1 0.290939,0.03514 41.694047,32.874148 0 0 1 0.290422,0.03669 41.694047,32.874148 0 0 1 0.29042,0.03824 41.694047,32.874148 0 0 1 0.289907,0.03979 41.694047,32.874148 0 0 1 0.289388,0.04134 41.694047,32.874148 0 0 1 0.289388,0.04341 41.694047,32.874148 0 0 1 0.288869,0.04496 41.694047,32.874148 0 0 1 0.288357,0.04599 41.694047,32.874148 0 0 1 0.287837,0.04806 41.694047,32.874148 0 0 1 0.287838,0.04961 41.694047,32.874148 0 0 1 0.286803,0.05116 41.694047,32.874148 0 0 1 0.286805,0.05271 41.694047,32.874148 0 0 1 0.285769,0.05478 41.694047,32.874148 0 0 1 0.285771,0.05581 41.694047,32.874148 0 0 1 0.285255,0.05736 41.694047,32.874148 0 0 1 0.284737,0.05943 41.694047,32.874148 0 0 1 0.283702,0.06046 41.694047,32.874148 0 0 1 0.283705,0.06253 41.694047,32.874148 0 0 1 0.26665,0.05994 c 8.670676,-4.317995 17.999934,-15.707569 17.999934,-15.707569 0,0 -12.006606,6.422552 -21.178035,7.877556 1.69323,-1.706663 3.340851,-3.628003 4.840533,-5.759339 7.593624,-10.792031 8.779309,-31.675069 8.779309,-31.675068 0,0 -5.932374,11.22923 -13.39143,20.140889 0.363011,-1.200896 0.707628,-2.439371 1.026808,-3.710885 3.333956,-13.28157 0.937929,-26.2655788 0.937929,-26.2655788 z" />
          <path
             id="path925"
             style="fill:#2d5016;fill-rule:evenodd;stroke-width:0.165698"
             d="m 72.760417,41.010417 c -6.058802,8.090612 -5.623851,12.810128 -4.344679,9.139984 0.56931,-1.633437 7.020468,-5.792396 8.901276,-14.087207 2.236513,-9.863549 -2.966967,-23.613692 -2.705014,-22.233341 0.420039,2.213386 5.444145,17.438223 -1.851583,27.180564 z"
             sodipodi:nodetypes="sssss" />
          <path
             id="path954"
             style="fill:#2d5016;fill-rule:evenodd;stroke-width:0.158875"
             d="m 59.863278,50.270833 c 7.84795,0.879104 8.243971,3.80144 7.048554,2.531573 -2.128784,-2.261364 -7.740984,2.302911 -12.494873,-2.334354 -5.652956,-5.514275 -7.207991,-20.37954 -6.853929,-19.111887 0.567736,2.032678 2.850112,17.856094 12.300248,18.914668 z"
             sodipodi:nodetypes="sssss" />
          <path
             id="path961"
             style="fill:#2d5016;fill-rule:evenodd;stroke-width:0.135403"
             d="m 79.375,47.625 c -7.478518,3.50646 -8.978462,7.077197 -6.64559,4.921944 1.03827,-0.959217 7.288887,-1.479496 11.832813,-6.738742 C 89.965511,39.554313 91.49681,27.638467 91.155281,28.734604 90.607641,30.492254 88.380285,43.402682 79.375,47.625 Z"
             sodipodi:nodetypes="sssss" />
          <path
             id="path963"
             style="fill:#2d5016;fill-rule:evenodd;stroke-width:0.101812"
             d="m 60.854167,38.364583 c 3.05067,8.25839 3.09642,12.356486 2.354342,8.87649 -0.330269,-1.548811 -3.35594,-6.39867 -4.591822,-14.080663 -1.469617,-9.134835 0.116491,-20.361174 0.07102,-19.186991 -0.07292,1.882796 -1.507013,14.446791 2.166463,24.391164 z"
             sodipodi:nodetypes="sssss" />
        </g>
      </g>
    </g>
  </g>
</svg>
